<svg width="198" height="40" viewBox="0 0 198 40" fill="none" xmlns="http://www.w3.org/2000/svg">
<path d="M56.2834 22.2344L54.6106 24.0684V28.5255H50.533V11.6255H54.6106V19.0773L56.0278 16.93L59.6756 11.6255H64.7174L59.0018 19.1005L64.7174 28.5255H59.8847L56.2834 22.2344Z" fill="#2A2A2A"/>
<path d="M73.4126 19.5068L72.1231 19.4139C70.8917 19.4139 70.1017 19.8008 69.7532 20.5746V28.5255H65.8382V15.9666H69.5092L69.637 17.58C70.2953 16.3496 71.2131 15.7344 72.3903 15.7344C72.8085 15.7344 73.1725 15.7809 73.4823 15.8737L73.4126 19.5068Z" fill="#2A2A2A"/>
<path d="M80.2955 23.0469L82.3866 15.9666H86.5803L81.4572 30.6264L81.2365 31.1604C80.5085 32.7854 79.2228 33.5979 77.3796 33.5979C76.8684 33.5979 76.3302 33.5205 75.7648 33.3657V30.5684H76.276C76.8258 30.5684 77.2441 30.4871 77.5306 30.3246C77.8249 30.1699 78.0418 29.8874 78.1812 29.4773L78.4948 28.6416L74.1268 15.9666H78.309L80.2955 23.0469Z" fill="#2A2A2A"/>
<path d="M99.5157 22.3389C99.5157 24.2889 99.0743 25.8481 98.1914 27.0166C97.3162 28.1773 96.1313 28.7577 94.6366 28.7577C93.4826 28.7577 92.5339 28.3359 91.7904 27.4925V33.3541H87.8754V15.9666H91.5348L91.651 17.1273C92.4022 16.1987 93.3897 15.7344 94.6133 15.7344C96.1623 15.7344 97.3666 16.307 98.2262 17.4523C99.0859 18.5898 99.5157 20.1568 99.5157 22.1532V22.3389ZM95.6008 22.0952C95.6008 19.8666 94.9502 18.7523 93.6491 18.7523C92.7197 18.7523 92.1002 19.085 91.7904 19.7505V24.6952C92.1311 25.3916 92.7585 25.7398 93.6723 25.7398C94.9192 25.7398 95.562 24.6642 95.6008 22.513V22.0952Z" fill="#2A2A2A"/>
<path d="M106.05 12.8442V15.9666H108.118V18.6826H106.05V24.4282C106.05 24.9002 106.135 25.2291 106.306 25.4148C106.476 25.6005 106.813 25.6934 107.316 25.6934C107.704 25.6934 108.029 25.6702 108.292 25.6237V28.4211C107.587 28.6455 106.852 28.7577 106.085 28.7577C104.737 28.7577 103.742 28.4404 103.099 27.8059C102.457 27.1714 102.135 26.208 102.135 24.9157V18.6826H100.532V15.9666H102.135V12.8442H106.05Z" fill="#2A2A2A"/>
<path d="M109.065 22.13C109.065 20.8764 109.308 19.7621 109.796 18.7871C110.284 17.8044 110.985 17.0499 111.899 16.5237C112.813 15.9975 113.886 15.7344 115.117 15.7344C116.999 15.7344 118.482 16.3187 119.566 17.4871C120.651 18.6478 121.193 20.2303 121.193 22.2344V22.3737C121.193 24.3315 120.647 25.8868 119.555 27.0398C118.47 28.185 116.999 28.7577 115.14 28.7577C113.351 28.7577 111.915 28.2237 110.83 27.1559C109.746 26.0803 109.161 24.6255 109.076 22.7916L109.065 22.13ZM112.979 22.3737C112.979 23.5344 113.161 24.3856 113.525 24.9273C113.889 25.469 114.428 25.7398 115.14 25.7398C116.534 25.7398 117.247 24.6681 117.278 22.5246V22.13C117.278 19.8782 116.558 18.7523 115.117 18.7523C113.808 18.7523 113.1 19.7234 112.991 21.6657L112.979 22.3737Z" fill="#2A2A2A"/>
<path d="M129.737 24.9969C129.737 24.6642 129.563 24.3972 129.214 24.196C128.866 23.9949 128.203 23.7859 127.228 23.5693C126.252 23.3526 125.446 23.0702 124.811 22.7219C124.176 22.366 123.692 21.9365 123.359 21.4335C123.026 20.9306 122.86 20.3541 122.86 19.7041C122.86 18.5511 123.336 17.6032 124.288 16.8603C125.241 16.1097 126.488 15.7344 128.029 15.7344C129.687 15.7344 131.019 16.1097 132.025 16.8603C133.032 17.6109 133.536 18.5975 133.536 19.8201H129.609C129.609 18.8142 129.079 18.3112 128.018 18.3112C127.607 18.3112 127.262 18.4273 126.984 18.6594C126.705 18.8838 126.565 19.1663 126.565 19.5068C126.565 19.855 126.736 20.1374 127.077 20.3541C127.417 20.5707 127.959 20.7487 128.703 20.888C129.454 21.0273 130.113 21.1937 130.678 21.3871C132.568 22.0371 133.512 23.2017 133.512 24.8809C133.512 26.0261 133.001 26.9586 131.979 27.6782C130.964 28.3978 129.648 28.7577 128.029 28.7577C126.953 28.7577 125.992 28.5642 125.148 28.1773C124.304 27.7904 123.646 27.2642 123.173 26.5987C122.701 25.9333 122.465 25.233 122.465 24.4978H126.124C126.139 25.0782 126.333 25.5038 126.705 25.7746C127.077 26.0377 127.553 26.1693 128.134 26.1693C128.668 26.1693 129.067 26.0609 129.33 25.8443C129.601 25.6276 129.737 25.3452 129.737 24.9969Z" fill="#2A2A2A"/>
<path d="M140.209 25.5077H145.937V28.5255H135.261V26.3434L140.837 18.9844H135.505V15.9666H145.809V18.0791L140.209 25.5077Z" fill="#2A2A2A"/>
<path d="M153.97 28.7577C152.041 28.7577 150.481 28.185 149.288 27.0398C148.095 25.8868 147.499 24.3895 147.499 22.5478V22.2228C147.499 20.9383 147.735 19.8047 148.208 18.8219C148.688 17.8392 149.385 17.0809 150.299 16.5469C151.213 16.0053 152.297 15.7344 153.551 15.7344C155.317 15.7344 156.711 16.2838 157.734 17.3826C158.756 18.4737 159.267 19.9981 159.267 21.9559V23.4764H151.484C151.623 24.1806 151.929 24.7338 152.401 25.1362C152.874 25.5386 153.486 25.7398 154.237 25.7398C155.476 25.7398 156.444 25.3065 157.141 24.4398L158.93 26.5523C158.442 27.2255 157.749 27.7633 156.851 28.1657C155.96 28.5603 155 28.7577 153.97 28.7577ZM153.528 18.7523C152.382 18.7523 151.7 19.5106 151.484 21.0273H155.433V20.7255C155.449 20.0987 155.29 19.6151 154.957 19.2746C154.624 18.9264 154.148 18.7523 153.528 18.7523Z" fill="#2A2A2A"/>
<path d="M164.686 15.9666L164.814 17.4407C165.681 16.3032 166.878 15.7344 168.404 15.7344C169.713 15.7344 170.688 16.1252 171.331 16.9067C171.982 17.6883 172.319 18.8645 172.342 20.4353V28.5255H168.415V20.5978C168.415 19.9633 168.288 19.499 168.032 19.205C167.776 18.9032 167.312 18.7523 166.638 18.7523C165.871 18.7523 165.302 19.0541 164.93 19.6576V28.5255H161.015V15.9666H164.686Z" fill="#2A2A2A"/>
<path d="M180.84 28.7577C178.911 28.7577 177.351 28.185 176.158 27.0398C174.965 25.8868 174.369 24.3895 174.369 22.5478V22.2228C174.369 20.9383 174.605 19.8047 175.077 18.8219C175.558 17.8392 176.255 17.0809 177.169 16.5469C178.082 16.0053 179.167 15.7344 180.421 15.7344C182.187 15.7344 183.581 16.2838 184.604 17.3826C185.626 18.4737 186.137 19.9981 186.137 21.9559V23.4764H178.354C178.493 24.1806 178.799 24.7338 179.271 25.1362C179.744 25.5386 180.356 25.7398 181.107 25.7398C182.346 25.7398 183.314 25.3065 184.011 24.4398L185.8 26.5523C185.312 27.2255 184.619 27.7633 183.721 28.1657C182.83 28.5603 181.87 28.7577 180.84 28.7577ZM180.398 18.7523C179.252 18.7523 178.57 19.5106 178.354 21.0273H182.303V20.7255C182.319 20.0987 182.16 19.6151 181.827 19.2746C181.494 18.9264 181.018 18.7523 180.398 18.7523Z" fill="#2A2A2A"/>
<path d="M18.7562 38.6621C29.0216 38.6621 37.3434 30.3475 37.3434 20.0908C37.3434 9.83418 29.0216 1.51953 18.7562 1.51953C8.49072 1.51953 0.168945 9.83418 0.168945 20.0908C0.168945 30.3475 8.49072 38.6621 18.7562 38.6621Z" fill="#EB9A29"/>
<rect x="0.422363" y="15.7856" width="5.99859" height="1.60388" fill="white"/>
<rect x="0.422363" y="22.792" width="5.99859" height="1.60388" fill="white"/>
<rect y="19.3311" width="9.63155" height="1.51947" fill="white"/>
<rect width="6.00781" height="1.56719" transform="matrix(-1 0 0 1 37.0957 15.7812)" fill="white"/>
<rect width="6.00781" height="1.5672" transform="matrix(-1 0 0 1 37.0957 22.8337)" fill="white"/>
<rect width="9.63155" height="1.56719" transform="matrix(-1 0 0 1 37.4771 19.3074)" fill="white"/>
<path d="M18.3259 22.1275L16.7749 23.8279V27.9605H12.9941V12.291H16.7749V19.2002L18.089 17.2093L21.4711 12.291H26.1459L20.8464 19.2218L26.1459 27.9605H21.665L18.3259 22.1275Z" fill="white"/>
</svg>
