<svg width="195" height="39" viewBox="0 0 195 39" fill="none" xmlns="http://www.w3.org/2000/svg">
<path d="M52.9023 27.9911C54.1705 27.9911 55.304 27.7801 56.3027 27.358C57.3173 26.9359 58.1733 26.3809 58.8708 25.693C59.5683 24.9895 60.0677 24.2235 60.3689 23.395L57.4679 22.0583C57.1191 22.9338 56.5484 23.6607 55.7558 24.2391C54.979 24.8019 54.0279 25.0833 52.9023 25.0833C51.7927 25.0833 50.8177 24.8254 49.9776 24.3095C49.1374 23.7936 48.4795 23.0823 48.0039 22.1756C47.5283 21.2532 47.2906 20.1823 47.2906 18.9629C47.2906 17.7435 47.5283 16.6805 48.0039 15.7737C48.4795 14.8514 49.1374 14.1401 49.9776 13.6398C50.8177 13.1239 51.7927 12.866 52.9023 12.866C54.0279 12.866 54.979 13.1552 55.7558 13.7336C56.5484 14.2964 57.1191 15.0155 57.4679 15.891L60.3689 14.5544C60.0677 13.7258 59.5683 12.9676 58.8708 12.2797C58.1733 11.5762 57.3173 11.0134 56.3027 10.5913C55.304 10.1692 54.1705 9.95818 52.9023 9.95818C51.6341 9.95818 50.4611 10.1849 49.3831 10.6382C48.3051 11.076 47.3698 11.7013 46.5772 12.5142C45.7846 13.3115 45.1663 14.2651 44.7224 15.3751C44.2786 16.4694 44.0566 17.6654 44.0566 18.9629C44.0566 20.2605 44.2786 21.4642 44.7224 22.5742C45.1663 23.6685 45.7846 24.6222 46.5772 25.4351C47.3698 26.248 48.3051 26.8812 49.3831 27.3345C50.4611 27.7723 51.6341 27.9911 52.9023 27.9911Z" fill="#163EB2"/>
<path d="M62.7328 27.7097H65.8478V20.6044C65.8478 19.6352 66.1173 18.8848 66.6563 18.3532C67.2111 17.8061 67.9245 17.5325 68.7964 17.5325H69.914V14.8123H69.1531C68.3605 14.8123 67.6629 14.953 67.0606 15.2344C66.4582 15.5158 65.9905 16.0239 65.6576 16.7586V14.953H62.7328V27.7097Z" fill="#163EB2"/>
<path d="M73.196 32.8921C74.4167 32.8921 75.4312 32.5482 76.2397 31.8604C77.064 31.1881 77.7219 30.2345 78.2133 28.9995L83.8489 14.953H80.4723L77.1433 23.7467L73.7905 14.953H70.4377L75.5501 27.7097L75.2648 28.3898C75.0111 28.9213 74.7179 29.3512 74.385 29.6795C74.0679 30.0078 73.5527 30.172 72.8393 30.172C72.5857 30.172 72.3162 30.1485 72.0309 30.1016C71.7455 30.0703 71.4919 30.0234 71.2699 29.9609V32.5404C71.5394 32.6655 71.8406 32.7514 72.1735 32.7983C72.5064 32.8609 72.8473 32.8921 73.196 32.8921Z" fill="#163EB2"/>
<path d="M85.5595 32.3997H88.6745V26.4903C89.1501 26.975 89.7287 27.3502 90.4104 27.6159C91.092 27.8661 91.8292 27.9911 92.6218 27.9911C93.8741 27.9911 94.9917 27.7019 95.9746 27.1235C96.9575 26.5294 97.7342 25.7321 98.3049 24.7316C98.8756 23.7154 99.161 22.582 99.161 21.3314C99.161 20.0807 98.8756 18.9551 98.3049 17.9546C97.7342 16.9384 96.9575 16.1411 95.9746 15.5627C94.9917 14.9686 93.8821 14.6716 92.6456 14.6716C91.7578 14.6716 90.9573 14.8279 90.2439 15.1406C89.5306 15.4533 88.944 15.891 88.4843 16.4538V14.953H85.5595V32.3997ZM92.2651 25.1771C91.5835 25.1771 90.9652 25.013 90.4104 24.6847C89.8714 24.3564 89.4434 23.903 89.1263 23.3246C88.8251 22.7462 88.6745 22.0818 88.6745 21.3314C88.6745 20.581 88.8251 19.9166 89.1263 19.3381C89.4434 18.7597 89.8714 18.3063 90.4104 17.978C90.9652 17.6497 91.5835 17.4856 92.2651 17.4856C92.9785 17.4856 93.6046 17.6576 94.1436 18.0015C94.6985 18.3298 95.1344 18.7831 95.4515 19.3616C95.7685 19.94 95.927 20.5966 95.927 21.3314C95.927 22.0661 95.7685 22.7305 95.4515 23.3246C95.1344 23.903 94.6985 24.3564 94.1436 24.6847C93.6046 25.013 92.9785 25.1771 92.2651 25.1771Z" fill="#163EB2"/>
<path d="M107.201 27.8504C107.724 27.8504 108.239 27.8113 108.746 27.7332V25.0833C108.445 25.1302 108.168 25.1537 107.914 25.1537C107.153 25.1537 106.598 24.9817 106.25 24.6378C105.901 24.2939 105.726 23.8014 105.726 23.1605V17.6966H108.699V14.953H105.726V12.0452H102.611V13.0301C102.611 13.6554 102.437 14.1323 102.088 14.4606C101.74 14.7889 101.248 14.953 100.614 14.953H100.376V17.6966H102.611V23.3246C102.611 24.7472 103.008 25.8572 103.8 26.6545C104.609 27.4518 105.742 27.8504 107.201 27.8504Z" fill="#163EB2"/>
<path d="M117.335 27.9911C118.588 27.9911 119.729 27.7097 120.76 27.1469C121.79 26.5685 122.614 25.779 123.232 24.7785C123.851 23.7623 124.16 22.6133 124.16 21.3314C124.16 20.0494 123.851 18.9082 123.232 17.9077C122.63 16.9072 121.814 16.1177 120.783 15.5392C119.753 14.9608 118.604 14.6716 117.335 14.6716C116.051 14.6716 114.894 14.9608 113.864 15.5392C112.833 16.1177 112.009 16.9072 111.391 17.9077C110.788 18.9082 110.487 20.0494 110.487 21.3314C110.487 22.6133 110.788 23.7545 111.391 24.755C112.009 25.7556 112.833 26.545 113.864 27.1235C114.91 27.7019 116.067 27.9911 117.335 27.9911ZM117.335 25.1771C116.638 25.1771 116.012 25.013 115.457 24.6847C114.918 24.3564 114.49 23.903 114.173 23.3246C113.872 22.7305 113.721 22.0661 113.721 21.3314C113.721 20.5966 113.872 19.94 114.173 19.3616C114.49 18.7831 114.918 18.3298 115.457 18.0015C116.012 17.6576 116.638 17.4856 117.335 17.4856C118.033 17.4856 118.643 17.6576 119.166 18.0015C119.705 18.3298 120.125 18.7831 120.427 19.3616C120.744 19.94 120.902 20.5966 120.902 21.3314C120.902 22.0661 120.744 22.7305 120.427 23.3246C120.125 23.903 119.705 24.3564 119.166 24.6847C118.643 25.013 118.033 25.1771 117.335 25.1771Z" fill="#163EB2"/>
<path d="M126.522 27.7097H129.637V20.2292C129.637 19.4007 129.875 18.7362 130.351 18.236C130.842 17.7357 131.476 17.4856 132.253 17.4856C133.03 17.4856 133.656 17.7357 134.131 18.236C134.623 18.7206 134.868 19.385 134.868 20.2292V27.7097H137.983V19.5023C137.983 18.5486 137.777 17.7123 137.365 16.9931C136.953 16.2584 136.374 15.6878 135.629 15.2813C134.9 14.8748 134.06 14.6716 133.109 14.6716C132.3 14.6716 131.571 14.8279 130.921 15.1406C130.287 15.4533 129.796 15.9144 129.447 16.5241V14.953H126.522V27.7097Z" fill="#163EB2"/>
<path d="M144.541 27.9911C146.221 27.9911 147.569 27.444 148.583 26.3496V27.7097H151.532V19.2209C151.532 18.3298 151.302 17.5403 150.842 16.8524C150.383 16.1646 149.749 15.633 148.94 15.2578C148.147 14.867 147.22 14.6716 146.158 14.6716C144.858 14.6716 143.701 14.9764 142.686 15.5861C141.672 16.1958 140.974 17.001 140.594 18.0015L143.138 19.2209C143.376 18.6424 143.748 18.1813 144.256 17.8373C144.763 17.4778 145.357 17.298 146.039 17.298C146.752 17.298 147.323 17.4856 147.751 17.8608C148.195 18.2203 148.417 18.6737 148.417 19.2209V19.643L144.565 20.2527C143.043 20.5028 141.917 20.9796 141.188 21.6831C140.459 22.3866 140.094 23.2699 140.094 24.3329C140.094 25.4585 140.499 26.3496 141.307 27.0062C142.116 27.6628 143.194 27.9911 144.541 27.9911ZM143.328 24.2157C143.328 23.3246 143.939 22.7618 145.159 22.5273L148.417 21.988V22.5039C148.417 23.3793 148.108 24.1219 147.49 24.7316C146.887 25.3413 146.095 25.6461 145.112 25.6461C144.589 25.6461 144.161 25.5211 143.828 25.2709C143.495 25.0052 143.328 24.6534 143.328 24.2157Z" fill="#163EB2"/>
<path d="M159.024 27.9911C159.833 27.9911 160.546 27.8426 161.164 27.5456C161.798 27.2329 162.298 26.7795 162.662 26.1855V27.7097H165.611V14.953H162.496V22.4335C162.496 23.2777 162.25 23.9499 161.759 24.4502C161.267 24.9348 160.641 25.1771 159.88 25.1771C159.103 25.1771 158.469 24.9348 157.978 24.4502C157.502 23.9656 157.265 23.3168 157.265 22.5039V14.953H154.15V22.7618C154.15 24.3251 154.578 25.5914 155.434 26.5607C156.305 27.5143 157.502 27.9911 159.024 27.9911Z" fill="#163EB2"/>
<path d="M174.404 27.8504C174.927 27.8504 175.442 27.8113 175.949 27.7332V25.0833C175.648 25.1302 175.371 25.1537 175.117 25.1537C174.356 25.1537 173.801 24.9817 173.452 24.6378C173.104 24.2939 172.929 23.8014 172.929 23.1605V17.6966H175.902V14.953H172.929V12.0452H169.814V13.0301C169.814 13.6554 169.64 14.1323 169.291 14.4606C168.942 14.7889 168.451 14.953 167.817 14.953H167.579V17.6966H169.814V23.3246C169.814 24.7472 170.211 25.8572 171.003 26.6545C171.812 27.4518 172.945 27.8504 174.404 27.8504Z" fill="#163EB2"/>
<path d="M184.348 27.9911C185.664 27.9911 186.813 27.7019 187.796 27.1235C188.795 26.5294 189.492 25.779 189.888 24.8723L187.368 23.6529C187.083 24.1375 186.686 24.5362 186.179 24.8488C185.688 25.1459 185.085 25.2944 184.372 25.2944C183.436 25.2944 182.652 25.013 182.018 24.4502C181.384 23.8874 181.019 23.137 180.924 22.199H190.245C190.309 22.027 190.348 21.8316 190.364 21.6128C190.396 21.3783 190.412 21.1438 190.412 20.9093C190.412 19.768 190.166 18.7284 189.674 17.7904C189.183 16.8524 188.47 16.102 187.534 15.5392C186.599 14.9608 185.458 14.6716 184.11 14.6716C182.905 14.6716 181.812 14.9608 180.829 15.5392C179.862 16.1177 179.093 16.9072 178.522 17.9077C177.967 18.8926 177.69 20.026 177.69 21.3079C177.69 22.5429 177.967 23.6685 178.522 24.6847C179.077 25.7009 179.854 26.506 180.853 27.1C181.851 27.6941 183.016 27.9911 184.348 27.9911ZM184.11 17.2042C184.935 17.2042 185.616 17.4543 186.155 17.9546C186.71 18.4392 187.019 19.0724 187.083 19.854H180.995C181.17 19.0098 181.534 18.361 182.089 17.9077C182.66 17.4387 183.333 17.2042 184.11 17.2042Z" fill="#163EB2"/>
<ellipse cx="16.6501" cy="20.8008" rx="16.6507" ry="16.6507" transform="rotate(180 16.6501 20.8008)" fill="#163EB2"/>
<path d="M13.9088 20.1462C13.282 20.6944 12.7007 21.3544 12.2693 22.1402C10.4908 25.3796 11.859 29.5411 11.859 29.5411C11.859 29.5411 16.1045 28.4616 17.883 25.2222C18.3144 24.4365 18.5593 23.5917 18.6853 22.7685L13.9088 20.1462Z" fill="#C20404"/>
<path d="M20.0498 21.5951L22.4472 24.4285L24.3332 20.2704L23.2192 18.0434C26.6266 13.7227 27.8463 10.1148 28.1112 7.38125C28.4903 3.63485 27.0694 1.54203 27.0694 1.54203C27.0694 1.54203 24.5409 1.46656 21.5803 3.79564C19.4193 5.48818 17.0299 8.45393 15.2104 13.6464L12.7334 13.9019L10.2375 17.7251L13.915 18.227L20.0498 21.5951ZM23.4844 8.07172C24.6542 8.71392 25.0842 10.1891 24.4424 11.3581C23.8007 12.527 22.3252 12.956 21.1554 12.3138C19.9857 11.6716 19.5557 10.1964 20.1975 9.02749C20.8392 7.85856 22.3147 7.42952 23.4844 8.07172Z" fill="white"/>
<path d="M27.0683 1.54217C27.0683 1.54217 28.766 3.95579 27.9237 8.68539L24.6843 5.89946L20.6674 4.60369C23.5181 1.54217 27.0683 1.54217 27.0683 1.54217Z" fill="#163EB2"/>
</svg>