<svg width="213" height="41" viewBox="0 0 213 41" fill="none" xmlns="http://www.w3.org/2000/svg">
<path d="M103.375 10.8969C101.655 10.8374 99.9446 11.1872 98.3856 11.9176C96.8265 12.648 95.4632 13.7381 94.4076 15.0982L94.9227 12.0073C94.9633 11.7634 94.7753 11.5415 94.5282 11.5415H87.4246C87.2303 11.5415 87.064 11.6812 87.0306 11.8727L82.3244 38.8284C82.2817 39.0732 82.47 39.2972 82.7184 39.2972H90.1288C90.3226 39.2972 90.4885 39.1583 90.5226 38.9674L93.0407 24.8388C93.763 21.2318 96.0884 18.1338 99.7152 18.1338C102.731 18.1338 104.355 20.0416 103.711 23.6486L101.085 38.8245C101.043 39.069 101.231 39.2927 101.48 39.2927H108.89C109.084 39.2927 109.25 39.1535 109.284 38.9624L112.215 22.4128C113.349 15.2521 110.05 10.8969 103.375 10.8969Z" fill="white"/>
<path d="M138.754 11.547C138.555 11.5438 138.384 11.687 138.353 11.8832L137.867 14.894C137.177 13.5982 136.125 12.531 134.839 11.8219C133.554 11.1128 132.09 10.7925 130.625 10.9C126.714 11.1208 123.006 12.7113 120.15 15.3926C117.295 18.0739 115.474 21.6748 115.007 25.5641C113.538 34.1206 118.306 40.0729 125.316 40.0729C127.147 40.0524 128.951 39.6365 130.606 38.8538C132.26 38.071 133.726 36.9399 134.903 35.5378L134.268 38.9553C134.223 39.2012 134.412 39.4283 134.662 39.4283H141.577C141.771 39.4283 141.937 39.2888 141.971 39.0975L146.708 12.1358C146.75 11.8935 146.566 11.6706 146.32 11.6667L138.754 11.547ZM136.242 25.3295C136.033 27.2736 135.142 29.0806 133.727 30.4298C132.311 31.7789 130.464 32.5829 128.512 32.6989C124.929 32.6989 122.558 29.8386 123.357 25.3295C123.633 23.4293 124.551 21.6807 125.957 20.373C127.363 19.0653 129.173 18.2769 131.089 18.1383C134.671 18.1383 137.067 20.9483 136.242 25.3295Z" fill="white"/>
<path d="M168.196 11.4584C168.233 11.257 168.111 11.059 167.912 11.0153C167.476 10.92 167.03 10.8801 166.584 10.8969C164.764 10.9475 162.989 11.4792 161.441 12.438C159.893 13.3967 158.626 14.7484 157.77 16.3554L158.491 12.0023C158.532 11.7586 158.344 11.5369 158.097 11.5369H150.735C150.541 11.5369 150.375 11.6764 150.341 11.8677L145.605 38.8234C145.562 39.0683 145.75 39.2927 145.999 39.2927H153.472C153.666 39.2927 153.832 39.1529 153.866 38.9614L155.762 28.0892C156.792 22.3168 160.297 18.6839 165.065 18.6839C165.509 18.6603 165.954 18.706 166.382 18.8183C166.625 18.882 166.884 18.7377 166.929 18.4904L168.196 11.4584Z" fill="white"/>
<path d="M203.559 14.891C202.869 13.5962 201.818 12.5296 200.534 11.8206C199.25 11.1116 197.787 10.7907 196.324 10.8969C192.417 11.0896 188.703 12.6519 185.833 15.3097C182.962 17.9674 181.12 21.5509 180.628 25.4316C179.159 33.9881 183.926 39.9418 190.935 39.9418C192.762 39.9211 194.562 39.5047 196.211 38.7213C197.861 37.9378 199.321 36.806 200.492 35.4037L199.881 38.8254C199.837 39.0706 200.025 39.2957 200.274 39.2957H207.191C207.386 39.2957 207.552 39.1562 207.585 38.9649L212.321 12.0092C212.364 11.7644 212.176 11.54 211.927 11.54H204.515C204.322 11.54 204.157 11.6774 204.122 11.8668L203.559 14.891ZM201.935 25.1938C201.725 27.138 200.834 28.9451 199.419 30.2944C198.003 31.6438 196.156 32.4481 194.204 32.5648C190.621 32.5648 188.252 29.7045 189.05 25.1938C189.328 23.2951 190.246 21.5481 191.652 20.2419C193.058 18.9356 194.867 18.1484 196.781 18.0103C200.328 18.1371 202.687 20.8926 201.958 25.1945C201.955 25.2088 201.935 25.2083 201.935 25.1938Z" fill="white"/>
<path d="M83.2091 12.0103C83.2518 11.7656 83.0635 11.5415 82.8151 11.5415H75.4267C75.2325 11.5415 75.0664 11.6809 75.0327 11.8721L70.2807 38.8278C70.2375 39.0727 70.4259 39.2972 70.6746 39.2972H78.1089C78.3032 39.2972 78.4695 39.1575 78.5029 38.966L83.2091 12.0103Z" fill="white"/>
<path d="M66.1169 11.5415L66.376 10.3041C66.547 9.29276 67.1058 8.38796 67.9334 7.78212C68.7609 7.17257 69.7529 6.90742 70.8074 6.87847H73.2882C73.4822 6.87847 73.6482 6.7393 73.6821 6.54831L74.7471 0.542722C74.7906 0.297688 74.6021 0.072876 74.3532 0.072876H70.5499C67.5799 0.0926863 64.7043 0.85005 62.414 2.70764C60.1224 4.56508 58.604 7.2089 58.1547 10.1243L57.8972 11.5415H54.3919C54.1982 11.5415 54.0323 11.6804 53.9982 11.8711L52.9814 17.5613C52.9376 17.8065 53.1261 18.0317 53.3752 18.0317H56.7634L53.1079 38.8234C53.0649 39.0683 53.2533 39.2927 53.5019 39.2927H60.9108C61.105 39.2927 61.2712 39.1532 61.3048 38.9619L64.9832 18.0317H70.2137C70.4081 18.0317 70.5743 17.8919 70.6077 17.7004L71.6017 12.0061C71.6445 11.7613 71.4559 11.5371 71.2074 11.5373L66.1169 11.5415Z" fill="white"/>
<path d="M179.656 12.0103C179.699 11.7656 179.511 11.5415 179.262 11.5415H171.874C171.68 11.5415 171.514 11.6809 171.48 11.8721L166.728 38.8278C166.685 39.0727 166.873 39.2972 167.122 39.2972H174.556C174.75 39.2972 174.916 39.1575 174.95 38.966L179.656 12.0103Z" fill="white"/>
<path d="M14.3557 36.9945C13.0182 37.9599 13.7012 40.0729 15.3507 40.0729H34.9138C35.74 40.0729 36.4465 39.4789 36.5885 38.6651L39.4077 22.5084C39.6699 21.0062 37.9745 19.9453 36.738 20.8378L14.3557 36.9945Z" fill="#E3001C"/>
<path d="M14.3557 36.9945C13.0182 37.9599 13.7012 40.0729 15.3507 40.0729H34.9138C35.74 40.0729 36.4465 39.4789 36.5885 38.6651L39.4077 22.5084C39.6699 21.0062 37.9745 19.9453 36.738 20.8378L14.3557 36.9945Z" fill="url(#paint0_linear_5985_24602)"/>
<path d="M1.70342 0.072876C0.174926 0.072876 -0.577082 1.93288 0.521914 2.99519L29.2923 30.805C30.2727 31.7528 31.914 31.2183 32.1485 29.875L37.0019 2.06515C37.1834 1.02511 36.383 0.072876 35.3272 0.072876H1.70342Z" fill="url(#paint1_linear_5985_24602)"/>
<defs>
<linearGradient id="paint0_linear_5985_24602" x1="25.1085" y1="18.3922" x2="25.1085" y2="40.0729" gradientUnits="userSpaceOnUse">
<stop stop-color="#E3001C"/>
<stop offset="1" stop-color="#FD0000"/>
</linearGradient>
<linearGradient id="paint1_linear_5985_24602" x1="-2.50134" y1="0.072876" x2="-2.50134" y2="33.0331" gradientUnits="userSpaceOnUse">
<stop stop-color="#00FFA3"/>
<stop offset="1" stop-color="#22B07D"/>
</linearGradient>
</defs>
</svg>
