<svg width="72" height="72" viewBox="0 0 72 72" fill="none" xmlns="http://www.w3.org/2000/svg"><path d="M52.44 1H4v55.89h48.44V1Z" fill="#fff"/><path d="M69.28 50.49v-3.24a2.69 2.69 0 0 0-2.21-2.63l-2.5-.44a2.73 2.73 0 0 1-2-1.66 2.72 2.72 0 0 1 .26-2.62l1.45-2.07a2.67 2.67 0 0 0-.3-3.43l-2.29-2.29a2.67 2.67 0 0 0-3.42-.3l-2.08 1.46a2.72 2.72 0 0 1-2.62.25 2.731 2.731 0 0 1-1.66-2L51.4 29a2.66 2.66 0 0 0-2.63-2.21h-3.24A2.66 2.66 0 0 0 42.9 29l-.44 2.49a2.731 2.731 0 0 1-1.66 2 2.72 2.72 0 0 1-2.62-.25l-2.07-1.46a2.68 2.68 0 0 0-3.43.3l-2.29 2.29a2.68 2.68 0 0 0-.3 3.43l1.46 2.07a2.75 2.75 0 0 1 .25 2.62 2.73 2.73 0 0 1-2 1.66l-2.49.44A2.69 2.69 0 0 0 25 47.25v3.24a2.69 2.69 0 0 0 2.21 2.64l2.5.43a2.74 2.74 0 0 1 2 1.67 2.74 2.74 0 0 1-.25 2.62L30.06 60a2.67 2.67 0 0 0 .3 3.42l2.29 2.29a2.67 2.67 0 0 0 3.43.3l2.07-1.45a2.721 2.721 0 0 1 2.62-.26 2.689 2.689 0 0 1 1.66 2l.44 2.5a2.66 2.66 0 0 0 2.66 2.2h3.24a2.66 2.66 0 0 0 2.63-2.21l.44-2.5a2.69 2.69 0 0 1 1.66-2 2.72 2.72 0 0 1 2.62.26L58.23 66a2.66 2.66 0 0 0 3.42-.3l2.29-2.29a2.66 2.66 0 0 0 .3-3.42l-1.45-2.08a2.719 2.719 0 0 1-.26-2.62 2.74 2.74 0 0 1 2-1.67l2.5-.43a2.69 2.69 0 0 0 2.25-2.7Zm-22.13 6a7.58 7.58 0 1 1 7.57-7.58 7.58 7.58 0 0 1-7.57 7.54v.04Z" fill="#92C4FF"/><path opacity=".5" d="M26.19 57.08a2.5 2.5 0 0 0-.38.81h28.91v-17S50.53 31 49.66 30.62a2.729 2.729 0 0 1-1.66-2l-.44-2.49a2.67 2.67 0 0 0-2.63-2.22h-3.27A2.67 2.67 0 0 0 39 26.09l-.44 2.49a2.73 2.73 0 0 1-1.66 2 2.75 2.75 0 0 1-2.62-.25l-2.08-1.42a2.67 2.67 0 0 0-3.42.3l-2.29 2.29a2.67 2.67 0 0 0-.3 3.43L27.64 37a2.721 2.721 0 0 1 .26 2.62 2.73 2.73 0 0 1-2 1.66l-2.5.44a2.66 2.66 0 0 0-2.21 2.63v3.24a2.66 2.66 0 0 0 2.21 2.63l2.5.44a2.731 2.731 0 0 1 2 1.66 2.72 2.72 0 0 1-.26 2.68l-1.45 2.08Zm28.53-6.76a7.57 7.57 0 1 1-15.14 0 7.57 7.57 0 0 1 15.14 0Z" fill="#92C4FF"/><path d="M23.73 57.89H4a1 1 0 0 1-1-1V1a1 1 0 0 1 1-1h48.44a1 1 0 0 1 1 1v23a1 1 0 0 1-2 0V2H5v53.89h18.73a1 1 0 0 1 0 2Z" fill="#1351AA"/><path d="M45 9.52H11.45a1 1 0 1 1 0-2H45a1 1 0 0 1 0 2ZM21 50.37h-9.55a1 1 0 0 1 0-2H21a1 1 0 0 1 0 2ZM48.74 72h-3.18A3.61 3.61 0 0 1 42 69l-.43-2.45a1.77 1.77 0 0 0-2.66-1.1l-2 1.42a3.61 3.61 0 0 1-4.63-.4L30 64.24a3.63 3.63 0 0 1-.4-4.64l1.42-2a1.76 1.76 0 0 0-1.1-2.67l-2.44-.43a3.61 3.61 0 0 1-3-3.56v-3.2a3.62 3.62 0 0 1 3-3.57l2.44-.43a1.66 1.66 0 0 0 1.24-1 1.68 1.68 0 0 0-.16-1.66l-1.42-2a3.61 3.61 0 0 1 .4-4.63l2.25-2.24a3.6 3.6 0 0 1 4.63-.41l2 1.43a1.65 1.65 0 0 0 1.6.14 1.68 1.68 0 0 0 1.06-1.25l.48-2.48a3.61 3.61 0 0 1 3.56-3h3.18a3.61 3.61 0 0 1 3.56 3l.43 2.44a1.679 1.679 0 0 0 1 1.24 1.69 1.69 0 0 0 1.64-.13l2-1.43a3.61 3.61 0 0 1 4.64.41l2.24 2.24a3.61 3.61 0 0 1 .4 4.63l-1.42 2a1.75 1.75 0 0 0 1.1 2.66l2.44.43a3.62 3.62 0 0 1 3 3.57v3.17a3.61 3.61 0 0 1-3 3.56l-2.44.43a1.68 1.68 0 0 0-1.24 1 1.69 1.69 0 0 0 .14 1.64l1.42 2a3.63 3.63 0 0 1-.4 4.64L62 66.38a3.61 3.61 0 0 1-4.63.4l-2-1.42a1.65 1.65 0 0 0-1.6-.15 1.68 1.68 0 0 0-1.06 1.25L52.3 69a3.61 3.61 0 0 1-3.56 3Zm-8.92-8.83a3.83 3.83 0 0 1 1.47.3 3.68 3.68 0 0 1 2.25 2.75l.46 2.44A1.62 1.62 0 0 0 45.56 70h3.18a1.61 1.61 0 0 0 1.59-1.34l.43-2.44a3.76 3.76 0 0 1 5.78-2.4l2 1.43a1.61 1.61 0 0 0 2.07-.19l2.24-2.24a1.6 1.6 0 0 0 .18-2.07l-1.42-2a3.619 3.619 0 0 1-.35-3.52 3.669 3.669 0 0 1 2.74-2.3l2.45-.43a1.61 1.61 0 0 0 1.34-1.59v-3.17a1.63 1.63 0 0 0-1.34-1.6L64 45.71a3.76 3.76 0 0 1-2.39-5.78l1.42-2a1.61 1.61 0 0 0-.18-2.08l-2.24-2.24a1.61 1.61 0 0 0-2.07-.18l-2 1.42a3.65 3.65 0 0 1-3.52.36 3.7 3.7 0 0 1-2.26-2.75L50.33 30a1.62 1.62 0 0 0-1.59-1.34h-3.18A1.63 1.63 0 0 0 44 30l-.43 2.45a3.75 3.75 0 0 1-5.78 2.39l-2-1.42a1.62 1.62 0 0 0-2.08.18l-2.24 2.24a1.61 1.61 0 0 0-.18 2.08l1.42 2a3.76 3.76 0 0 1-2.39 5.78l-2.45.43a1.63 1.63 0 0 0-1.34 1.6v3.17a1.61 1.61 0 0 0 1.34 1.59l2.45.43a3.76 3.76 0 0 1 2.39 5.78l-1.42 2a1.6 1.6 0 0 0 .18 2.07l2.24 2.24a1.62 1.62 0 0 0 2.08.19l2-1.43c.6-.4 1.308-.61 2.03-.6Zm7.33-5.43a8.42 8.42 0 1 1 8.42-8.42 8.43 8.43 0 0 1-8.42 8.42Zm0-14.84a6.42 6.42 0 1 0 6.42 6.42 6.43 6.43 0 0 0-6.42-6.42Z" fill="#1351AA"/><g opacity=".3" fill="#1351AA"><path opacity=".3" d="M41.55 16.2H14.89a1 1 0 0 1 0-2h26.66a1 1 0 1 1 0 2ZM41.55 23.07H14.89a1 1 0 1 1 0-2h26.66a1 1 0 0 1 0 2ZM23.53 29.94h-8.64a1 1 0 1 1 0-2h8.64a1 1 0 0 1 0 2ZM22.89 36.82h-8a1 1 0 1 1 0-2h8a1 1 0 0 1 0 2ZM18.94 43.69h-4a1 1 0 1 1 0-2h4a1 1 0 0 1 0 2Z"/></g></svg>
