<svg width="73" height="73" viewBox="0 0 73 73" fill="none" xmlns="http://www.w3.org/2000/svg"><path opacity=".5" d="M56.59 32.322 38 50.132l-19.08 4.87 18-.73a7.91 7.91 0 0 0 5.08-2.17l14.59-13.89v-5.89Z" fill="#92C4FF"/><path d="M11.65 12.792H3v8.65h8.65v-8.65ZM11.65 61.422H3v8.65h8.65v-8.65ZM60.92 61.422h-8.65v8.65h8.65v-8.65Z" fill="#DCECFF"/><path d="M66.31 20.682a7.07 7.07 0 0 0 0-10l-4.15-4.15a7.07 7.07 0 0 0-10 0l-29.69 29.69-3.55 17.7 17.71-3.56 29.68-29.68Z" fill="#92C4FF"/><path d="m22.47 36.222-3.55 17.7 17.71-3.56" fill="#fff"/><path d="M11.65 22.262H3a1 1 0 0 1-1-1v-8.65a1 1 0 0 1 1-1h8.65a1 1 0 0 1 1 1v8.65a1 1 0 0 1-1 1Zm-7.65-2h6.65v-6.65H4v6.65ZM11.65 71.062H3a1 1 0 0 1-1-1v-8.64a1 1 0 0 1 1-1h8.65a1 1 0 0 1 1 1v8.64a1 1 0 0 1-1 1Zm-7.65-2h6.65v-6.64H4v6.64ZM60.91 71.062h-8.64a1 1 0 0 1-1-1v-8.64a1 1 0 0 1 1-1h8.64a1 1 0 0 1 1 1v8.64a1 1 0 0 1-1 1Zm-7.64-2h6.64v-6.64h-6.64v6.64ZM18.84 55.162a.999.999 0 0 1-.71-.29 1 1 0 0 1-.27-.91l3.6-18c.038-.193.132-.37.27-.51l30.11-30.06a8.18 8.18 0 0 1 11.56 0l4.2 4.21a8.18 8.18 0 0 1 0 11.56l-30.09 30.09a1 1 0 0 1-.51.28l-18 3.61-.16.02Zm4.52-18.46-3.25 16.18 16.2-3.26 29.88-29.87a6.19 6.19 0 0 0 0-8.74L62 6.812a6.19 6.19 0 0 0-8.74 0l-29.9 29.89Z" fill="#1351AA"/><path d="m20.05 48.132-1.21 6.03 6.04-1.21-4.83-4.82Z" fill="#1351AA"/><path d="M18.84 55.162a1 1 0 0 1-.71-.29 1 1 0 0 1-.27-.91l1.21-6a1 1 0 0 1 1.69-.51l4.82 4.82a1 1 0 0 1 .25 1 1 1 0 0 1-.76.7l-6 1.21-.23-.02Zm1.82-5-.55 2.73 2.74-.55-2.19-2.18ZM36.81 51.552a.998.998 0 0 1-.71-.3l-14.37-14.33a1.004 1.004 0 1 1 1.42-1.42l14.36 14.34a1 1 0 0 1 0 1.41 1 1 0 0 1-.7.3ZM62.08 26.122a1 1 0 0 1-.71-.29l-13.53-13.51a1 1 0 0 1 1.41-1.42l13.53 13.51a1 1 0 0 1-.7 1.71ZM56.59 61.172a1 1 0 0 1-1-1v-21a1 1 0 1 1 2 0v21a1 1 0 0 1-1 1ZM51 66.742H12.89a1 1 0 0 1 0-2H51a1 1 0 0 1 0 2ZM7.32 61.702a1 1 0 0 1-1-1v-38.2a1 1 0 1 1 2 0v38.2a1 1 0 0 1-1 1ZM29.15 17.932H12.89a1 1 0 0 1 0-2h16.26a1 1 0 1 1 0 2Z" fill="#1351AA"/></svg>
