<svg width="186" height="186" viewBox="0 0 186 186" fill="none" xmlns="http://www.w3.org/2000/svg"><path d="M129.776 156.838c14.838 0 26.866-12.039 26.866-26.889 0-14.851-12.028-26.89-26.866-26.89s-26.867 12.039-26.867 26.89c0 14.85 12.029 26.889 26.867 26.889z" fill="#DCECFF"/><path d="M129.776 158a27.795 27.795 0 01-19.816-8.212 28.109 28.109 0 010-39.678 27.968 27.968 0 0119.816-8.226 27.97 27.97 0 0119.816 8.226 28.12 28.12 0 010 39.678A27.89 27.89 0 01129.776 158zm0-53.791a25.738 25.738 0 00-22.744 37.855 25.74 25.74 0 1040.91-30.317 25.56 25.56 0 00-18.166-7.538z" fill="#1351AA"/><path opacity=".3" d="M97.914 133.422c-.13.002-.26-.018-.383-.058a27.87 27.87 0 01-8.444-4.647 1.174 1.174 0 01-.18-1.655 1.18 1.18 0 011.655-.18 25.284 25.284 0 007.736 4.286 1.165 1.165 0 01.75 1.281 1.16 1.16 0 01-1.122.973h-.012zM83.72 122.004a1.163 1.163 0 01-.987-.558 27.665 27.665 0 01-3.485-8.979 1.185 1.185 0 112.323-.464 25.547 25.547 0 003.183 8.235 1.162 1.162 0 01-1.034 1.766zm-3.612-17.853h-.163a1.158 1.158 0 01-.976-.866 1.162 1.162 0 01-.023-.458 27.945 27.945 0 012.986-9.165 1.161 1.161 0 011.573-.482 1.163 1.163 0 01.483 1.574 25.644 25.644 0 00-2.719 8.41 1.16 1.16 0 01-1.161.987zm49.04-10.872a1.163 1.163 0 01-.975-.534 25.932 25.932 0 00-6.04-6.459 1.177 1.177 0 01-.452-.769 1.158 1.158 0 01.225-.863 1.162 1.162 0 011.223-.424c.148.038.287.105.409.198a28.94 28.94 0 012.927 2.555 27.544 27.544 0 013.647 4.495 1.162 1.162 0 01-.336 1.568c-.182.138-.4.219-.628.233zm-40.55-5.216a1.161 1.161 0 01-.859-.371 1.162 1.162 0 01.082-1.615 28.12 28.12 0 018.13-5.157 1.163 1.163 0 11.895 2.149A25.286 25.286 0 0089.4 87.76c-.219.2-.505.308-.801.302zm26.008-5.807a1.16 1.16 0 01-.337 0 25.552 25.552 0 00-8.781-1.162 1.164 1.164 0 01-.911-1.946c.208-.227.498-.363.806-.377a28.36 28.36 0 019.571 1.255 1.178 1.178 0 01.988 1.335 1.176 1.176 0 01-1.336.988v-.093zM71.118 107.484a1.15 1.15 0 01-.442-.081 28.182 28.182 0 01-8.13-5.122 1.164 1.164 0 111.556-1.731 25.439 25.439 0 007.492 4.646 1.165 1.165 0 01.714 1.299 1.162 1.162 0 01-1.144.943l-.046.046zM57.562 95.37a1.161 1.161 0 01-1.022-.616 27.957 27.957 0 01-3.031-9.153 1.175 1.175 0 112.323-.349 25.657 25.657 0 002.787 8.398 1.161 1.161 0 01-1.057 1.72zM54.88 77.284a.822.822 0 01-.232 0 1.161 1.161 0 01-.906-1.359 27.773 27.773 0 013.484-9.002 1.16 1.16 0 111.998 1.162 25.32 25.32 0 00-3.194 8.247 1.16 1.16 0 01-1.15.952zm49.621-8.2a1.16 1.16 0 01-.999-.58 26.494 26.494 0 00-4.111-5.31 24.116 24.116 0 00-1.603-1.474 1.162 1.162 0 111.51-1.766c.592.5 1.161 1.045 1.742 1.603a28.223 28.223 0 014.449 5.808 1.165 1.165 0 01-.428 1.588 1.167 1.167 0 01-.583.154l.023-.023zm-40.224-7.4a1.161 1.161 0 01-.732-2.055 27.737 27.737 0 018.433-4.716 1.161 1.161 0 011.43 1.6 1.163 1.163 0 01-.663.595 25.193 25.193 0 00-7.736 4.321 1.162 1.162 0 01-.732.256zm26.286-4.355a1.162 1.162 0 01-.407-.07 25.552 25.552 0 00-8.7-1.591 1.162 1.162 0 010-2.323c3.24.025 6.452.614 9.49 1.742a1.162 1.162 0 01-.383 2.242zM45.04 81.245a1.162 1.162 0 01-.522-.128 27.876 27.876 0 01-7.387-5.308l-.383-.395a1.16 1.16 0 010-1.65 1.162 1.162 0 011.637 0l.36.36a25.458 25.458 0 006.772 4.88 1.162 1.162 0 01-.51 2.206l.034.035zM32.416 68.108a1.162 1.162 0 01-1.057-.697 27.994 27.994 0 01-2.323-9.292 1.164 1.164 0 112.323-.174 25.717 25.717 0 002.149 8.583 1.161 1.161 0 01-.581 1.534c-.165.053-.34.069-.511.046zm-1.36-18.178h-.301a1.16 1.16 0 01-.813-1.429 27.876 27.876 0 014.135-8.723 1.162 1.162 0 011.893 1.313 25.553 25.553 0 00-3.786 7.991 1.161 1.161 0 01-1.127.848zm50.075-4.507a1.162 1.162 0 01-1.045-.65 25.554 25.554 0 00-4.972-6.97l-.197-.197a1.163 1.163 0 011.626-1.661l.22.22a27.786 27.786 0 015.413 7.609 1.162 1.162 0 01-.534 1.545c-.16.073-.335.108-.51.104zm-39.55-10.36a1.162 1.162 0 01-.663-2.115 27.878 27.878 0 018.747-4.077 1.162 1.162 0 11.592 2.242 25.787 25.787 0 00-8.014 3.74 1.161 1.161 0 01-.662.21zm26.53-2.417a1.16 1.16 0 01-.477-.104 25.695 25.695 0 00-8.56-2.219 1.161 1.161 0 01-1.034-1.254A1.161 1.161 0 0159.259 28c3.215.27 6.359 1.095 9.292 2.44a1.162 1.162 0 01-.442 2.206z" fill="#1351AA"/><g opacity=".3" fill="#1351AA"><path opacity=".3" d="M142.332 114.907h-25.124a1.163 1.163 0 010-2.323h25.124a1.16 1.16 0 110 2.323zM149.266 123.014h-38.958a1.16 1.16 0 110-2.323h38.993a1.163 1.163 0 010 2.323h-.035zM151.578 131.11h-43.593a1.159 1.159 0 01-1.162-1.161 1.164 1.164 0 011.162-1.162h43.616a1.164 1.164 0 011.162 1.162 1.161 1.161 0 01-1.162 1.161h-.023zM149.266 139.206h-38.958a1.16 1.16 0 110-2.323h38.993a1.163 1.163 0 010 2.323h-.035zM142.332 147.302h-25.124a1.163 1.163 0 110-2.323h25.124a1.16 1.16 0 110 2.323z"/></g></svg>
