<svg width="72" height="72" viewBox="0 0 72 72" fill="none" xmlns="http://www.w3.org/2000/svg"><path d="M1 58.82V14h51.61v44.82S27 74.26 1 58.82Z" fill="#fff"/><path opacity=".5" d="M52.88 54.43c9.04 0 16.37-7.33 16.37-16.37 0-9.041-7.33-16.37-16.37-16.37-9.04 0-16.37 7.329-16.37 16.37 0 9.04 7.33 16.37 16.37 16.37Z" fill="#92C4FF"/><path d="M26.61 22.08c14.144 0 25.61-3.6 25.61-8.04C52.22 9.6 40.754 6 26.61 6S1 9.6 1 14.04c0 4.44 11.466 8.04 25.61 8.04Z" fill="#DCECFF"/><path d="M55.88 53.18c8.35 0 15.12-6.77 15.12-15.12s-6.77-15.12-15.12-15.12-15.12 6.77-15.12 15.12 6.77 15.12 15.12 15.12Z" fill="#92C4FF"/><path d="M65.2 50.05c3.21-2.17-3.25-7-7.26-7h-4.11a7.14 7.14 0 0 0-7.26 7s7.75 7.38 18.63 0ZM55.88 38.06a4.03 4.03 0 1 0 0-8.06 4.03 4.03 0 0 0 0 8.06Z" fill="#DCECFF"/><path d="M26.61 23.08C13.71 23.08 0 19.92 0 14s13.71-9 26.61-9c12.9 0 26.61 3.17 26.61 9s-13.71 9.08-26.61 9.08Zm0-16.08C12.11 7 2 10.71 2 14s10.11 7 24.61 7 24.61-3.71 24.61-7-10.11-7-24.61-7ZM26.61 37.48c-12.9 0-26.61-3.17-26.61-9a1 1 0 1 1 2 0c0 3.33 10.11 7 24.61 7 3.25.005 6.496-.198 9.72-.61a1 1 0 0 1 .26 1.98c-3.31.428-6.643.638-9.98.63ZM26.61 51.87C13.71 51.87 0 48.7 0 42.83a1 1 0 1 1 2 0c0 3.33 10.11 7 24.61 7A72.34 72.34 0 0 0 38.12 49a1.012 1.012 0 1 1 .32 2c-3.914.6-7.87.892-11.83.87Z" fill="#1351AA"/><path d="M26.61 66.27C13.71 66.27 0 63.1 0 57.23V14a1 1 0 1 1 2 0v43.23c0 3.33 10.11 7 24.61 7s24.61-3.71 24.61-7a1 1 0 0 1 2 0c0 5.87-13.71 9.04-26.61 9.04ZM52.22 21.26a1 1 0 0 1-1-1V14a1 1 0 1 1 2 0v6.22a.999.999 0 0 1-1 1.04Z" fill="#1351AA"/><path d="M55.88 54.19A16.12 16.12 0 1 1 72 38.07a16.13 16.13 0 0 1-16.12 16.12Zm0-30.23A14.12 14.12 0 1 0 70 38.07 14.13 14.13 0 0 0 55.88 24v-.04Z" fill="#1351AA"/><path d="M46.57 51.06a1 1 0 0 1-1-1 8.15 8.15 0 0 1 8.26-8h4.11a8.19 8.19 0 0 1 8.24 7.46 1.002 1.002 0 0 1-2 .14A6.17 6.17 0 0 0 57.94 44h-4.11a6.15 6.15 0 0 0-6.26 6 1 1 0 0 1-1 1.06ZM55.88 39.07a5 5 0 1 1 0-10 5 5 0 0 1 0 10Zm0-8.06a3 3 0 1 0 3 3 3 3 0 0 0-3-3.01v.01Z" fill="#1351AA"/></svg>
