<svg width="153" height="150" fill="none" xmlns="http://www.w3.org/2000/svg"><g clip-path="url(#a)"><path d="M44.3 107.297H19.078v25.221H44.3v-25.221ZM146.776 16.405h-25.222v25.221h25.222V16.405Z" fill="#DCECFF"/><path d="M63.815 106.834H95.94v13.134a7.369 7.369 0 0 1-7.367 7.367H71.182a7.366 7.366 0 0 1-7.367-7.367v-13.134Z" fill="#92C4FF"/><path d="M115.012 64.04a34.97 34.97 0 0 0-32.854-34.86 34.963 34.963 0 0 0-24.271 61.943c4.458 3.643 3.693 7.66 5.968 16.174H96.02l1.932-9.803c9.903-13.134 17.059-18.438 17.059-33.454Z" fill="#DCECFF"/><path d="M139.197 73.138h-32.78v37.611h32.78v-37.61Z" fill="#92C4FF"/><path d="M79.877 77.798a6.522 6.522 0 1 0 0-13.044 6.522 6.522 0 0 0 0 13.044Z" fill="#fff"/><path d="M52.18 36.705H21.846a2.768 2.768 0 0 0-2.768 2.768v19.686a2.768 2.768 0 0 0 2.768 2.767H52.18a2.768 2.768 0 0 0 2.768-2.767V39.473a2.768 2.768 0 0 0-2.768-2.768Z" fill="#92C4FF"/><g opacity=".5" fill="#92C4FF"><path opacity=".5" d="M102.17 92.11c6.934-8.636 11.836-14.201 12.691-24.689H102.17V92.11ZM45.165 63.053a34.593 34.593 0 0 0 .11 3.966H59.78V41.797h-6.552a34.672 34.672 0 0 0-8.062 21.257Z"/></g><path d="M84.588 12.782a5.888 5.888 0 1 0 0-11.776 5.888 5.888 0 0 0 0 11.776ZM127.432 142.371a5.887 5.887 0 1 0 0-11.775 5.887 5.887 0 0 0 0 11.775ZM143.112 59.974a3.653 3.653 0 1 0 0-7.306 3.653 3.653 0 0 0 0 7.306ZM44.3 23.712a3.653 3.653 0 1 0 0-7.307 3.653 3.653 0 0 0 0 7.307ZM53.076 147.987a3.654 3.654 0 1 0 0-7.307 3.654 3.654 0 0 0 0 7.307ZM8.42 89.583a5.888 5.888 0 1 0 0-11.775 5.888 5.888 0 0 0 0 11.775Z" fill="#FC95BF"/><path d="M96.353 108.303H63.734a1.006 1.006 0 0 1-1.006-1.006c0-5.495-2.758-11.262-7.378-15.45a36.433 36.433 0 0 1-11.896-23.61 1.011 1.011 0 0 1 2.013-.191A34.43 34.43 0 0 0 56.7 90.347a23.862 23.862 0 0 1 8.052 15.942h30.625a22.996 22.996 0 0 1 5.033-12.65 1.001 1.001 0 0 1 1.081-.411 1.01 1.01 0 0 1 .632.488c.067.12.108.253.121.39a.995.995 0 0 1-.244.76 20.653 20.653 0 0 0-4.61 12.43 1.006 1.006 0 0 1-1.036 1.006ZM115.636 69.142h-.09a.998.998 0 0 1-.687-.357 1.001 1.001 0 0 1-.229-.74 34.624 34.624 0 0 0-12.732-30.294 35.053 35.053 0 0 0-29.478-6.924 34.218 34.218 0 0 0-13.205 6.039 1.019 1.019 0 0 1-1.208-1.64 36.11 36.11 0 0 1 13.97-6.361 37.026 37.026 0 0 1 31.199 7.367 36.605 36.605 0 0 1 13.638 28.573c0 1.157-.061 2.325-.171 3.472a1.012 1.012 0 0 1-1.007.865Z" fill="#1351AA"/><g opacity=".3" fill="#1351AA"><path opacity=".3" d="M96.353 114.825H63.734a1.006 1.006 0 1 1 0-2.013h32.619a1.005 1.005 0 1 1 0 2.013ZM96.353 121.347H63.734a1.006 1.006 0 1 1 0-2.013h32.619a1.005 1.005 0 1 1 0 2.013Z"/></g><path d="M88.865 127.868H71.222a8.502 8.502 0 0 1-8.494-8.494v-12.077a1.008 1.008 0 0 1 2.012 0v12.077a6.491 6.491 0 0 0 6.482 6.481h17.643a6.488 6.488 0 0 0 6.481-6.481v-12.077a1.008 1.008 0 0 1 1.718-.712c.19.189.295.445.295.712v12.077a8.502 8.502 0 0 1-8.494 8.494Z" fill="#1351AA"/><path d="M80.028 108.303a1.006 1.006 0 0 1-1.006-1.006V77.808a1.006 1.006 0 1 1 2.013 0v29.489a1.004 1.004 0 0 1-1.007 1.006Z" fill="#1351AA"/><path d="M79.877 78.804a7.528 7.528 0 1 1 7.529-7.528 7.538 7.538 0 0 1-7.529 7.528Zm0-13.083a5.516 5.516 0 1 0 5.516 5.515 5.525 5.525 0 0 0-5.516-5.475v-.04ZM139.197 111.715h-32.78a1.006 1.006 0 0 1-1.006-1.006v-37.57a1.005 1.005 0 0 1 1.006-1.007h32.78a1.008 1.008 0 0 1 1.006 1.006v37.571a1.01 1.01 0 0 1-1.006 1.006Zm-31.773-2.013h30.767V74.144h-30.767v35.558ZM44.3 133.525H19.078a1.005 1.005 0 0 1-1.006-1.007v-25.221a1.007 1.007 0 0 1 1.006-1.007H44.3a1.005 1.005 0 0 1 1.006 1.007v25.221a1.008 1.008 0 0 1-1.006 1.007Zm-24.215-2.013h23.208v-23.209H20.085v23.209ZM146.765 42.633h-25.161a1.004 1.004 0 0 1-1.006-1.007V16.405a1.006 1.006 0 0 1 1.006-1.007h25.161a1.008 1.008 0 0 1 1.007 1.007v25.221a1.006 1.006 0 0 1-1.007 1.007Zm-24.154-2.013h23.148V17.411h-23.148V40.62Z" fill="#1351AA"/><path d="M84.588 13.778a6.894 6.894 0 1 1 0-13.787 6.894 6.894 0 0 1 0 13.787Zm0-11.765a4.881 4.881 0 1 0 0 9.763 4.881 4.881 0 0 0 0-9.763ZM127.432 143.378a6.895 6.895 0 1 1 .001-13.79 6.895 6.895 0 0 1-.001 13.79Zm0-11.766a4.88 4.88 0 0 0-3.448 8.337 4.877 4.877 0 0 0 5.323 1.051 4.883 4.883 0 0 0 2.634-6.383 4.858 4.858 0 0 0-2.642-2.637 4.882 4.882 0 0 0-1.867-.368ZM143.112 60.98a4.669 4.669 0 0 1-3.297-7.986 4.666 4.666 0 0 1 5.107-.984 4.673 4.673 0 0 1 1.471 7.62 4.66 4.66 0 0 1-3.281 1.35Zm0-7.317a2.66 2.66 0 0 0-2.458 1.625 2.656 2.656 0 1 0 2.458-1.625ZM44.3 24.728a4.67 4.67 0 1 1 4.66-4.67 4.662 4.662 0 0 1-4.66 4.67Zm0-7.317a2.657 2.657 0 1 0 2.647 2.647 2.647 2.647 0 0 0-2.647-2.647ZM53.076 148.953a4.672 4.672 0 0 1-4.323-2.878 4.669 4.669 0 1 1 8.983-1.781 4.661 4.661 0 0 1-4.66 4.659Zm0-7.316a2.657 2.657 0 1 0 2.647 2.657 2.66 2.66 0 0 0-2.647-2.617v-.04ZM8.42 90.58a6.895 6.895 0 1 1-.02-13.79 6.895 6.895 0 0 1 .02 13.79Zm0-11.766a4.88 4.88 0 1 0-.02 9.762 4.88 4.88 0 0 0 .02-9.762Z" fill="#E44F89"/><path d="M51.848 63.205H22.52a4.106 4.106 0 0 1-4.106-4.097V39.513a4.106 4.106 0 0 1 4.106-4.106h29.328a4.106 4.106 0 0 1 4.106 4.106v19.595a4.106 4.106 0 0 1-4.106 4.097ZM22.52 37.42a2.093 2.093 0 0 0-2.093 2.093v19.595a2.093 2.093 0 0 0 2.093 2.084h29.328a2.093 2.093 0 0 0 2.093-2.084V39.513a2.094 2.094 0 0 0-2.093-2.093H22.52Z" fill="#1351AA"/><path d="M31.035 54.348a1.007 1.007 0 0 1-.705-.292l-4.026-4.026a1.007 1.007 0 0 1 0-1.419l4.026-4.026a1.005 1.005 0 0 1 1.788.223 1.006 1.006 0 0 1-.399 1.176l-3.291 3.332 3.321 3.32a1.008 1.008 0 0 1 0 1.43 1.006 1.006 0 0 1-.714.282ZM43.343 54.348a1.006 1.006 0 0 1-.714-1.721l3.321-3.321-3.321-3.322a1.006 1.006 0 0 1 1.419-1.419l4.026 4.026a1.006 1.006 0 0 1 0 1.42l-4.026 4.025a1.004 1.004 0 0 1-.705.312ZM34.9 56.36a1.124 1.124 0 0 1-.353-.06 1.006 1.006 0 0 1-.583-1.298l4.569-12.077a1.006 1.006 0 1 1 1.882.714l-4.57 12.078a1.006 1.006 0 0 1-.945.644ZM125.882 25.835a1.007 1.007 0 0 1-.342-1.952 5.179 5.179 0 0 0 1.207-.745 4.309 4.309 0 0 1 2.808-1.177 4.5 4.5 0 0 1 2.235.885c.201.131.402.272.613.383a3.385 3.385 0 0 0 4.026-.856 1.01 1.01 0 0 1 1.071-.335 1.006 1.006 0 0 1 .499 1.593 5.394 5.394 0 0 1-6.531 1.38 9.698 9.698 0 0 1-.775-.464 1.758 1.758 0 0 0-1.423-.567 1.748 1.748 0 0 0-1.325.768 6.574 6.574 0 0 1-1.741 1.007 1.007 1.007 0 0 1-.322.08ZM136.268 32.538a9.748 9.748 0 0 1-2.566-.312l-.755-.231a8.272 8.272 0 0 0-1.006-.272 9.059 9.059 0 0 0-4.157.574 1.008 1.008 0 0 1-.574-1.933 10.69 10.69 0 0 1 5.123-.614c.406.084.806.195 1.198.332l.664.202c1.98.35 4.012.272 5.958-.232a1.02 1.02 0 0 1 1.012 1.594 1.02 1.02 0 0 1-.66.42 24.026 24.026 0 0 1-4.237.472ZM23.9 127.818a1.005 1.005 0 0 1-.765-1.651c2.888-3.452 5.031-5.032 6.843-5.082a4.169 4.169 0 0 1 3.14 1.701c.453.483.775.795 1.006.765.383 0 1.57-.675 4.5-5.576a1.003 1.003 0 0 1 1.032-.618 1.007 1.007 0 0 1 .688 1.624c-3.11 5.224-4.64 6.401-6.038 6.552a3.275 3.275 0 0 1-2.687-1.368c-.614-.655-1.007-1.057-1.61-1.007-.806 0-2.396.805-5.375 4.358a1.003 1.003 0 0 1-.735.302ZM32.725 117.754a2.895 2.895 0 0 1-2.677-1.79 2.897 2.897 0 0 1 2.112-3.952 2.9 2.9 0 0 1 3.464 2.843 2.9 2.9 0 0 1-2.899 2.899Zm0-3.775a.892.892 0 0 0-.819.55.885.885 0 1 0 1.705.326.87.87 0 0 0-.256-.629.869.869 0 0 0-.63-.257v.01ZM131.357 82.528h-17.009a1.007 1.007 0 0 1 0-2.013h17.009a1.004 1.004 0 0 1 1.006 1.007 1.005 1.005 0 0 1-1.006 1.006ZM131.357 89.483h-17.009a1.007 1.007 0 0 1 0-2.013h17.009a1.004 1.004 0 0 1 1.006 1.006 1.005 1.005 0 0 1-1.006 1.007ZM131.357 96.417h-17.009a1.008 1.008 0 0 1-.712-1.718c.189-.189.445-.295.712-.295h17.009a1.003 1.003 0 0 1 1.006 1.007 1.006 1.006 0 0 1-1.006 1.006ZM122.812 103.351h-8.504a1.007 1.007 0 1 1 0-2.012h8.504a1.007 1.007 0 1 1 0 2.012Z" fill="#1351AA"/><path d="M152.935 91.143a1.567 1.567 0 0 1-1.451-.969 1.573 1.573 0 0 1 1.145-2.14 1.57 1.57 0 1 1 .306 3.11Zm0-2.013a.441.441 0 0 0-.313.756.441.441 0 0 0 .626 0 .443.443 0 0 0-.313-.756Z" fill="#E44F89"/><circle cx="105.411" cy="21.961" r="1.5" fill="#E44F89"/><circle cx="37.189" cy="92.552" r="1.5" fill="#E44F89"/><circle cx="95.94" cy="143.871" r="1.5" fill="#E44F89"/></g><defs><clipPath id="a"><path fill="#fff" transform="translate(.021)" d="M0 0h152.979v150H0z"/></clipPath></defs></svg>