<svg width="186" height="186" viewBox="0 0 186 186" fill="none" xmlns="http://www.w3.org/2000/svg"><path d="M17.193 79.902H93.86v5.025a3.867 3.867 0 01-3.866 3.866H21.06a3.867 3.867 0 01-3.867-3.867v-5.024zM94.157 80.51h18.367v71.01a2.1 2.1 0 01-2.1 2.1h-12.28a3.991 3.991 0 01-2.819-1.167 3.984 3.984 0 01-1.168-2.819V80.511z" fill="#DCECFF"/><g opacity=".5" fill="#92C4FF"><path opacity=".5" d="M112.524 79.902H94.766v8.891h17.758v-8.89zM62.114 79.902h31.745v3.974a4.917 4.917 0 01-4.917 4.917H62.114v-8.89z"/></g><path d="M71.65 29.193h54.897a21.891 21.891 0 0120.254 13.504 21.891 21.891 0 011.669 8.384v28.821H71.65V29.193z" fill="#DCECFF"/><path d="M106.116 53.42a4.487 4.487 0 100-8.974 4.487 4.487 0 000 8.974zM71.494 29.193A22.355 22.355 0 0193.86 51.546v28.965H49.142V51.546a22.353 22.353 0 0122.352-22.353z" fill="#66A4FF"/><path d="M131.297 48.933h-8.748V62.12h8.748V48.933z" fill="#FC95BF"/><path d="M49.142 74.997V51.701a22.508 22.508 0 0122.52-22.508v0a22.508 22.508 0 0122.507 22.508v28.201" stroke="#1351AA" stroke-width="2" stroke-linecap="round" stroke-linejoin="round"/><path d="M62.221 79.902h86.249v-28.2a22.48 22.48 0 00-6.589-15.92 22.495 22.495 0 00-15.919-6.589h-54.3" stroke="#1351AA" stroke-width="2" stroke-linecap="round" stroke-linejoin="round"/><path d="M110.591 48.933h20.706V62.12h-8.748V48.933" stroke="#E44F89" stroke-width="2" stroke-linecap="round" stroke-linejoin="round"/><path d="M17.193 79.902H62.21v3.688a5.203 5.203 0 01-5.203 5.203h-34.61a5.204 5.204 0 01-5.203-5.203v-3.688z" stroke="#1351AA" stroke-width="2" stroke-linecap="round" stroke-linejoin="round"/><path d="M49.142 88.793h39.824a5.203 5.203 0 005.204-5.203v-3.688M104.875 79.902v70.949M94.766 146.865V79.902M104.875 79.902v73.67M112.524 150.851V84.354" stroke="#1351AA" stroke-width="2" stroke-linecap="round" stroke-linejoin="round"/><path opacity=".3" d="M83.656 55.067a8.438 8.438 0 01-8.438 8.438v5.071l-5.06-5.071h-3.39a8.438 8.438 0 01-8.437-8.438v0a8.44 8.44 0 018.437-8.45h8.45a8.437 8.437 0 018.438 8.45v0z" stroke="#1351AA" stroke-width="2" stroke-linecap="round" stroke-linejoin="round"/><path d="M75.695 156.795c.263-4.237 10.049-8.044 20.133-4.547 18.176 6.301 33.548-12.531 37.736 4.272M106.116 53.42a4.487 4.487 0 100-8.974 4.487 4.487 0 000 8.974z" stroke="#1351AA" stroke-width="2" stroke-linecap="round" stroke-linejoin="round"/></svg>
