<svg width="181" height="181" fill="none" xmlns="http://www.w3.org/2000/svg"><path d="M142.201 108.561h-36.237v36.238h36.237v-36.238ZM66.168 29.1H33.935v32.233h32.233V29.1Z" fill="#DCECFF"/><path d="M130.47 57.089H50.497v68.622h79.973V57.089Z" fill="#fff"/><g opacity=".5" fill="#92C4FF"><path opacity=".5" d="M130.47 108.735v16.976h-24.267v6.356h31.754v-23.332h-7.487ZM49.899 61.518v-5.31h16.28v-6.356H42.412v11.666h7.487ZM130.144 65.022c-4.353 0-7.019-3.526-7.019-7.879h-15.137v1.741a2.782 2.782 0 0 0 2.263 2.645l2.59.457a2.819 2.819 0 0 1 2.155 1.719c.188.44.262.922.216 1.399a2.864 2.864 0 0 1-.477 1.332l-1.513 2.177a2.764 2.764 0 0 0 .305 3.559l2.394 2.415a2.776 2.776 0 0 0 3.558.316l2.177-1.513a2.817 2.817 0 0 1 2.72-.272 2.871 2.871 0 0 1 1.73 2.111l.468 2.623a2.767 2.767 0 0 0 2.732 2.296h1.273c.218.01-.435-15.126-.435-15.126ZM50.508 109.268v4.604a17.642 17.642 0 0 1 14.724 11.861h6.203c.12-11.263-10.469-18.499-20.927-16.465Z"/></g><path d="M158.818 54.03v-3.384a2.775 2.775 0 0 0-2.307-2.742l-2.59-.457a2.855 2.855 0 0 1-2.111-1.73 2.812 2.812 0 0 1 .261-2.72l1.513-2.177a2.784 2.784 0 0 0-.305-3.57l-2.383-2.372a2.775 2.775 0 0 0-3.558-.315l-2.177 1.512a2.816 2.816 0 0 1-2.72.261 2.849 2.849 0 0 1-1.72-2.11l-.457-2.59a2.776 2.776 0 0 0-2.807-2.308h-3.374a2.776 2.776 0 0 0-2.731 2.307l-.425 2.59a2.845 2.845 0 0 1-1.73 2.111 2.817 2.817 0 0 1-2.72-.26l-2.177-1.513a2.775 2.775 0 0 0-3.558.315l-2.384 2.373a2.79 2.79 0 0 0-.304 3.569l1.512 2.176a2.82 2.82 0 0 1 .262 2.72 2.86 2.86 0 0 1-2.112 1.731l-2.59.457a2.775 2.775 0 0 0-2.339 2.742v3.363a2.783 2.783 0 0 0 2.307 2.742l2.59.457a2.82 2.82 0 0 1 2.111 1.72 2.813 2.813 0 0 1-.261 2.72l-1.513 2.177a2.775 2.775 0 0 0 .305 3.558l2.383 2.383a2.775 2.775 0 0 0 3.558.316l2.177-1.513a2.817 2.817 0 0 1 2.72-.272 2.877 2.877 0 0 1 1.763 2.166l.457 2.6a2.767 2.767 0 0 0 2.732 2.297h3.341a2.762 2.762 0 0 0 2.731-2.296l.457-2.601a2.876 2.876 0 0 1 1.73-2.111 2.82 2.82 0 0 1 2.721.272l2.176 1.512a2.776 2.776 0 0 0 3.559-.315l2.383-2.383a2.78 2.78 0 0 0 .305-3.559l-1.513-2.176a2.812 2.812 0 0 1-.261-2.72 2.82 2.82 0 0 1 2.111-1.72l2.59-.457a2.786 2.786 0 0 0 2.372-2.775Zm-23.016 6.193a7.88 7.88 0 1 1 .001-15.76 7.88 7.88 0 0 1-.001 15.76ZM48.528 113.763a17.644 17.644 0 0 0-16.204 10.664 12.818 12.818 0 0 0-15.017 19.859 12.822 12.822 0 0 0 9.924 4.735h21.297a17.63 17.63 0 1 0 0-35.258Z" fill="#92C4FF"/><path d="M167.774 125.069a4.854 4.854 0 1 0 .001-9.707 4.854 4.854 0 0 0-.001 9.707ZM82.861 156.192a4.853 4.853 0 1 0 0-9.707 4.853 4.853 0 0 0 0 9.707ZM101.197 28.795a4.854 4.854 0 1 0 0-9.707 4.854 4.854 0 0 0 0 9.707ZM12.258 109.736a6.474 6.474 0 1 0 0-12.95 6.475 6.475 0 0 0 0 12.95ZM33.935 83.99a4.875 4.875 0 1 0 0-9.751 4.875 4.875 0 0 0 0 9.75ZM173.422 96.797a6.475 6.475 0 1 0 0-12.95 6.475 6.475 0 0 0 0 12.95Z" fill="#FC95BF"/><path d="M137.457 76.448h-3.374a3.864 3.864 0 0 1-3.809-3.2l-.435-2.6a1.733 1.733 0 0 0-1.088-1.284 1.75 1.75 0 0 0-1.709.13l-2.176 1.513a3.864 3.864 0 0 1-4.962-.425l-2.373-2.383a3.85 3.85 0 0 1-.435-4.962l1.513-2.176a1.73 1.73 0 0 0 .152-1.676 1.752 1.752 0 0 0-1.306-1.088l-2.601-.457a3.864 3.864 0 0 1-3.199-3.81v-3.384a3.875 3.875 0 0 1 3.199-3.82l2.601-.456a1.758 1.758 0 0 0 1.295-1.088 1.779 1.779 0 0 0-.141-1.72l-1.513-2.176a3.84 3.84 0 0 1 .435-4.952l2.373-2.383a3.86 3.86 0 0 1 4.962-.435l2.176 1.513a1.843 1.843 0 0 0 2.393-.32c.194-.22.333-.484.404-.769l.457-2.59a3.863 3.863 0 0 1 3.809-3.21h3.352a3.86 3.86 0 0 1 3.808 3.2l.457 2.6a1.743 1.743 0 0 0 1.089 1.295 1.77 1.77 0 0 0 1.719-.141l2.176-1.513a3.865 3.865 0 0 1 4.963.435l2.361 2.384a3.852 3.852 0 0 1 .435 4.951l-1.512 2.176a1.841 1.841 0 0 0 .368 2.4c.227.19.496.322.785.386l2.601.457a3.873 3.873 0 0 1 3.199 3.776v3.363a3.858 3.858 0 0 1-3.199 3.809l-2.601.446a1.84 1.84 0 0 0-1.153 2.786l1.512 2.176a3.859 3.859 0 0 1-.435 4.962l-2.372 2.384a3.864 3.864 0 0 1-4.963.424l-2.176-1.513a1.848 1.848 0 0 0-2.324.412 1.855 1.855 0 0 0-.386.753l-.457 2.6a3.86 3.86 0 0 1-3.895 3.2Zm-9.468-9.424a3.996 3.996 0 0 1 1.567.316 3.93 3.93 0 0 1 2.459 2.894l.458 2.59a1.68 1.68 0 0 0 1.664 1.404h3.32a1.687 1.687 0 0 0 1.664-1.404l.512-2.59a4.015 4.015 0 0 1 6.181-2.557l2.176 1.513a1.689 1.689 0 0 0 2.177-.196l2.383-2.373a1.687 1.687 0 0 0 .185-2.176l-1.513-2.176a4.031 4.031 0 0 1-.326-3.73 4.024 4.024 0 0 1 2.884-2.386l2.59-.457a1.685 1.685 0 0 0 1.403-1.665v-3.385a1.696 1.696 0 0 0-1.403-1.675l-2.59-.436a4.016 4.016 0 0 1-2.568-6.17l1.512-2.176a1.673 1.673 0 0 0-.185-2.177l-2.383-2.383a1.688 1.688 0 0 0-2.176-.185l-2.177 1.513a4.016 4.016 0 0 1-6.17-2.536l-.457-2.6a1.695 1.695 0 0 0-1.719-1.405h-3.374a1.697 1.697 0 0 0-1.665 1.404l-.403 2.601a4.025 4.025 0 0 1-6.181 2.557l-2.176-1.512a1.688 1.688 0 0 0-2.176.185l-2.384 2.383a1.675 1.675 0 0 0-.185 2.176l1.513 2.177a4.016 4.016 0 0 1-2.557 6.148l-2.59.457a1.701 1.701 0 0 0-1.404 1.654v3.363a1.684 1.684 0 0 0 1.404 1.665l2.59.457a4.026 4.026 0 0 1 2.568 6.181l-1.513 2.177a1.688 1.688 0 0 0 .185 2.176l2.383 2.372a1.69 1.69 0 0 0 2.177.196l2.176-1.513a3.8 3.8 0 0 1 2.177-.696h-.033Zm7.781-5.713a8.967 8.967 0 1 1 8.967-8.967 8.978 8.978 0 0 1-8.935 8.967h-.032Zm0-15.746a6.79 6.79 0 1 0 .032 0h-.032ZM50.497 109.649a1.088 1.088 0 0 1-1.088-1.088V57.089A1.088 1.088 0 0 1 50.497 56h57.164a1.088 1.088 0 1 1 0 2.177H51.586v50.384a1.09 1.09 0 0 1-1.089 1.088ZM130.47 126.821H70.4a1.088 1.088 0 1 1 0-2.176h58.982V78.592a1.089 1.089 0 0 1 2.176 0v47.141a1.094 1.094 0 0 1-.671 1.006 1.103 1.103 0 0 1-.417.082Z" fill="#1351AA"/><path d="M142.201 145.887h-35.998a1.089 1.089 0 0 1-1.088-1.088v-13.418a1.09 1.09 0 0 1 1.088-1.088 1.088 1.088 0 0 1 1.088 1.088v12.329h33.822v-33.887h-5.31a1.088 1.088 0 1 1 0-2.176h6.398a1.09 1.09 0 0 1 1.088 1.088v36.064a1.088 1.088 0 0 1-1.088 1.088ZM45.48 62.41H33.936a1.088 1.088 0 0 1-1.088-1.088V29.1a1.088 1.088 0 0 1 1.088-1.088h32.233a1.088 1.088 0 0 1 1.088 1.088v22.003a1.088 1.088 0 0 1-2.177 0V30.188H35.023v30.046h10.458a1.088 1.088 0 1 1 0 2.176ZM48.528 150.098H27.23a13.93 13.93 0 0 1-5.866-1.28 13.929 13.929 0 0 1-7.587-8.943 13.918 13.918 0 0 1 17.991-16.841 18.727 18.727 0 0 1 25.5-8.233 18.726 18.726 0 0 1 .752 32.72 18.726 18.726 0 0 1-9.493 2.577ZM27.23 124.449a11.742 11.742 0 0 0 0 23.473h21.297a16.546 16.546 0 0 0 14.538-8.721 16.54 16.54 0 0 0-16.045-24.295 16.54 16.54 0 0 0-13.728 9.946 1.09 1.09 0 0 1-1.436.566 11.63 11.63 0 0 0-4.626-.969Z" fill="#1351AA"/><path d="M37.515 129.607a1.092 1.092 0 0 1-.881-.435 11.618 11.618 0 0 0-9.403-4.723 1.089 1.089 0 0 1 0-2.176 13.822 13.822 0 0 1 11.198 5.637 1.084 1.084 0 0 1 .058 1.209 1.096 1.096 0 0 1-.286.314 1.086 1.086 0 0 1-.686.174ZM162.79 121.304h-5.038a6.53 6.53 0 0 1-6.53-6.529V95.72a4.355 4.355 0 0 0-4.298-4.353H130.47a1.09 1.09 0 0 1-1.088-1.088 1.088 1.088 0 0 1 1.088-1.088h16.497a6.53 6.53 0 0 1 6.475 6.53v19.13a4.355 4.355 0 0 0 4.353 4.353h5.039a1.087 1.087 0 1 1 0 2.176l-.044-.076Z" fill="#1351AA"/><path d="M167.774 126.158a5.941 5.941 0 1 1 5.942-5.942 5.95 5.95 0 0 1-5.942 5.942Zm0-9.707a3.77 3.77 0 0 0-3.479 2.324 3.769 3.769 0 0 0 .817 4.103 3.758 3.758 0 0 0 4.103.817 3.77 3.77 0 0 0 2.324-3.479 3.76 3.76 0 0 0-1.103-2.662 3.76 3.76 0 0 0-2.662-1.103Z" fill="#E44F89"/><path d="M82.86 146.964a1.088 1.088 0 0 1-1.087-1.088v-20.143a1.088 1.088 0 0 1 2.176 0v20.165a1.086 1.086 0 0 1-1.088 1.066Z" fill="#1351AA"/><path d="M82.86 157.292a5.941 5.941 0 1 1 5.942-5.942 5.953 5.953 0 0 1-5.941 5.942Zm0-9.707a3.763 3.763 0 0 0-3.692 4.499 3.762 3.762 0 0 0 2.958 2.959 3.767 3.767 0 0 0 3.398-6.359 3.776 3.776 0 0 0-2.663-1.11v.011Z" fill="#E44F89"/><path d="M79.781 58.177a1.088 1.088 0 0 1-1.088-1.088v-7.226a6.53 6.53 0 0 1 6.53-6.53H95.8a4.353 4.353 0 0 0 4.353-4.352v-9.794a1.088 1.088 0 1 1 2.176 0v9.794a6.531 6.531 0 0 1-6.53 6.529H85.223a4.353 4.353 0 0 0-4.352 4.353v7.226a1.088 1.088 0 0 1-1.089 1.088Z" fill="#1351AA"/><path d="M101.197 29.883a5.94 5.94 0 1 1 5.942-5.941 5.956 5.956 0 0 1-5.942 5.941Zm0-9.707a3.766 3.766 0 1 0 .001 7.533 3.766 3.766 0 0 0-.001-7.533Z" fill="#E44F89"/><path d="M167.034 91.41h-18.989a1.089 1.089 0 1 1 0-2.176h18.989a1.089 1.089 0 1 1 0 2.177ZM50.497 104.35H18.721a1.088 1.088 0 0 1 0-2.177h31.776a1.089 1.089 0 0 1 0 2.177Z" fill="#1351AA"/><path d="M12.312 110.825a7.567 7.567 0 0 1-6.99-4.649 7.563 7.563 0 1 1 14.542-2.969 7.62 7.62 0 0 1-7.552 7.618Zm0-12.94a5.387 5.387 0 1 0 5.376 5.377 5.442 5.442 0 0 0-5.376-5.376Z" fill="#E44F89"/><path d="M41.824 104.35h-2.502a6.53 6.53 0 0 1-6.475-6.475V83.989a1.088 1.088 0 1 1 2.176 0v13.886a4.353 4.353 0 0 0 4.298 4.298h2.503a1.088 1.088 0 0 1 0 2.177Z" fill="#1351AA"/><path d="M33.935 85.077a5.963 5.963 0 1 1 5.952-5.963 5.974 5.974 0 0 1-5.952 5.963Zm0-9.794a3.787 3.787 0 1 0 3.776 3.787 3.787 3.787 0 0 0-3.776-3.743v-.044ZM173.422 97.886a7.618 7.618 0 1 1-.109-15.237 7.618 7.618 0 0 1 .109 15.237Zm0-12.95a5.389 5.389 0 0 0-4.977 3.325 5.391 5.391 0 0 0 1.168 5.87 5.385 5.385 0 0 0 9.196-3.808 5.446 5.446 0 0 0-5.387-5.387Z" fill="#E44F89"/><g opacity=".3" fill="#1351AA"><path opacity=".3" d="M108.924 75.077H70.401a1.088 1.088 0 1 1 0-2.177h38.523a1.088 1.088 0 0 1 0 2.177ZM118.554 83.815h-54.52a1.088 1.088 0 1 1 0-2.176h54.52a1.088 1.088 0 1 1 0 2.176ZM118.554 92.554h-54.52a1.088 1.088 0 1 1 0-2.177h54.52a1.088 1.088 0 1 1 0 2.177ZM118.554 101.281h-54.52a1.088 1.088 0 0 1 0-2.176h54.52a1.089 1.089 0 1 1 0 2.176ZM111.677 110.019H72.958a1.085 1.085 0 0 1-1.088-1.088 1.086 1.086 0 0 1 1.088-1.088h38.719a1.087 1.087 0 1 1 0 2.176ZM67.005 78.048a1.087 1.087 0 0 1-.772-.327l-2.96-2.96a1.09 1.09 0 0 1 0-1.545l2.96-2.982a1.108 1.108 0 0 1 1.578 1.556l-2.177 2.177 2.177 2.176a1.088 1.088 0 0 1 0 1.535 1.088 1.088 0 0 1-.806.37ZM115.583 112.99a1.08 1.08 0 0 1-.772-.326 1.088 1.088 0 0 1 0-1.535l2.176-2.176-2.176-2.176a1.089 1.089 0 1 1 1.545-1.535l2.96 2.96a1.088 1.088 0 0 1 0 1.545l-2.96 2.928a1.08 1.08 0 0 1-.773.315Z"/></g><circle cx="15.936" cy="39.688" r="1.5" fill="#E44F89"/><circle cx="19.864" cy="78.888" r="1.5" fill="#E44F89"/><circle cx="84.361" cy="30.6" r="1.5" fill="#E44F89"/><circle cx="171.128" cy="69.09" r="1.5" fill="#E44F89"/><circle cx="158.939" cy="140.912" r="1.5" fill="#E44F89"/><circle cx="103.829" cy="157.292" r="1.5" fill="#E44F89"/><circle cx="43.912" cy="162.426" r="1.5" fill="#E44F89"/></svg>