<svg width="186" height="186" viewBox="0 0 186 186" fill="none" xmlns="http://www.w3.org/2000/svg"><path d="M68.511 135.442h33.653v13.619a7.676 7.676 0 01-2.265 5.441 7.754 7.754 0 01-5.468 2.254H76.244a7.754 7.754 0 01-5.468-2.254 7.675 7.675 0 01-2.265-5.441v-13.619z" fill="#92C4FF"/><path d="M122.039 91.955a36.255 36.255 0 00-4.545-17.558 36.47 36.47 0 00-12.495-13.198 36.738 36.738 0 00-35.232-2.108 36.537 36.537 0 00-13.994 11.613 36.291 36.291 0 00-6.627 16.89 36.23 36.23 0 002.386 17.975 36.406 36.406 0 0010.805 14.599c4.653 3.783 3.867 7.964 6.239 15.236h33.588l2.024-8.618c10.362-13.684 17.851-19.198 17.851-34.831z" fill="#fff"/><g opacity=".5" fill="#92C4FF"><path opacity=".5" d="M116.78 107.844a15.44 15.44 0 00-7.639 2.011 15.345 15.345 0 00-5.629 5.517 15.262 15.262 0 00-2.136 7.57 15.256 15.256 0 001.922 7.627l.89-3.848c5.928-7.81 10.904-12.965 14.087-18.864-.49.013-.992-.013-1.495-.013zM63.948 90.505a15.262 15.262 0 00-3.113-9.226 15.391 15.391 0 00-8.074-5.496 35.535 35.535 0 00-3.867 15.159c-.158 4.989.72 9.957 2.578 14.594a15.486 15.486 0 008.935-5.299 15.343 15.343 0 003.541-9.731zM105.863 61.766a15.07 15.07 0 00-4.202 10.426c0 2.034.405 4.048 1.192 5.925a15.38 15.38 0 003.393 5.012 15.48 15.48 0 005.07 3.326 15.54 15.54 0 005.967 1.127 15.96 15.96 0 004.395-.616 36.29 36.29 0 00-5.206-14.279 36.476 36.476 0 00-10.609-10.92z"/></g><path d="M48.546 102.035c6.542 0 11.845-5.277 11.845-11.786 0-6.509-5.303-11.785-11.845-11.785-6.541 0-11.845 5.276-11.845 11.785s5.303 11.786 11.845 11.786z" fill="#DCECFF"/><path d="M48.546 90.236a2.764 2.764 0 002.771-2.757 2.764 2.764 0 00-2.77-2.757 2.764 2.764 0 00-2.772 2.757 2.764 2.764 0 002.771 2.757zM54.63 101.098c0-7.31-11.91-7.31-11.91 0 0 0 6.02 3.001 11.072.372" fill="#92C4FF"/><path d="M116.78 134.685c6.542 0 11.845-5.276 11.845-11.785s-5.303-11.786-11.845-11.786c-6.542 0-11.845 5.277-11.845 11.786 0 6.509 5.303 11.785 11.845 11.785z" fill="#DCECFF"/><path d="M116.78 122.9a2.765 2.765 0 002.771-2.757 2.765 2.765 0 00-2.771-2.758 2.765 2.765 0 00-2.771 2.758 2.765 2.765 0 002.771 2.757zM122.876 133.749c0-7.31-11.909-7.297-11.909 0 0 0 6.019 3.014 11.072.385" fill="#92C4FF"/><path d="M116.78 83.722c6.542 0 11.845-5.277 11.845-11.786 0-6.51-5.303-11.786-11.845-11.786-6.542 0-11.845 5.277-11.845 11.786 0 6.509 5.303 11.785 11.845 11.785z" fill="#DCECFF"/><path d="M116.78 71.923a2.764 2.764 0 002.771-2.757 2.764 2.764 0 00-2.771-2.757 2.764 2.764 0 00-2.771 2.757 2.764 2.764 0 002.771 2.757zM122.876 82.785c0-7.31-11.909-7.31-11.909 0 0 0 6.019 3.014 11.072.385M85.202 43.645c3.709 0 6.715-2.991 6.715-6.681s-3.006-6.682-6.715-6.682c-3.708 0-6.715 2.992-6.715 6.682 0 3.69 3.007 6.681 6.715 6.681z" fill="#92C4FF"/><path d="M85.202 105.151c3.709 0 6.715-2.991 6.715-6.682 0-3.69-3.006-6.681-6.715-6.681-3.708 0-6.715 2.991-6.715 6.681 0 3.691 3.007 6.682 6.715 6.682zM142.996 57.88c3.709 0 6.715-2.991 6.715-6.681s-3.006-6.681-6.715-6.681-6.715 2.99-6.715 6.68c0 3.691 3.006 6.682 6.715 6.682z" fill="#FC95BF"/><path d="M85.202 44.928a8.033 8.033 0 01-4.447-1.342 7.973 7.973 0 01-2.947-3.574 7.927 7.927 0 01-.456-4.602 7.952 7.952 0 012.19-4.077 8.017 8.017 0 014.099-2.18 8.042 8.042 0 014.624.453 7.995 7.995 0 013.592 2.933 7.936 7.936 0 011.35 4.425 7.957 7.957 0 01-2.349 5.628 8.037 8.037 0 01-5.656 2.336zm0-13.376a5.459 5.459 0 00-3.022.912 5.419 5.419 0 00-2.003 2.429 5.387 5.387 0 001.18 5.898 5.465 5.465 0 005.927 1.173 5.434 5.434 0 002.44-1.993c.598-.89.917-1.937.917-3.007a5.41 5.41 0 00-1.597-3.823 5.466 5.466 0 00-3.842-1.589z" fill="#1351AA"/><path d="M85.202 93.058c-.342 0-.67-.136-.911-.376a1.28 1.28 0 01-.378-.907v-48.13c0-.34.136-.666.378-.906a1.292 1.292 0 011.823 0c.241.24.377.566.377.906v48.143a1.28 1.28 0 01-.382.898 1.293 1.293 0 01-.907.372zM102.164 136.66c-.342 0-.67-.135-.911-.375a1.28 1.28 0 01-.378-.907c.001-1.178.104-2.354.309-3.514a1.318 1.318 0 01.537-.841 1.32 1.32 0 011.454-.034 1.313 1.313 0 01.575.816c.038.167.042.339.012.508a17.593 17.593 0 00-.27 3.065 1.281 1.281 0 01-.823 1.196 1.301 1.301 0 01-.505.086zM118.958 108.024a1.28 1.28 0 01-1.16-1.809 34.62 34.62 0 003.119-14.427c0-.34.136-.666.378-.907a1.292 1.292 0 012.2.907 37.248 37.248 0 01-3.351 15.492 1.286 1.286 0 01-1.186.744zM103.247 61.022c-.22 0-.437-.053-.632-.154a35.164 35.164 0 00-11.883-4.04 1.306 1.306 0 01-1.072-.969 1.29 1.29 0 01.49-1.355 1.307 1.307 0 01.968-.24 37.81 37.81 0 0112.747 4.335 1.284 1.284 0 01.592 1.424 1.285 1.285 0 01-1.21.96v.04zM52.632 76.078a1.284 1.284 0 01-1.212-.887 1.277 1.277 0 01.078-.972 37.968 37.968 0 0110.59-12.54 38.198 38.198 0 0114.917-6.928c.838-.166 1.675-.32 2.513-.449a1.31 1.31 0 011.306.62 1.293 1.293 0 01-.932 1.945c-.773.12-1.56.261-2.359.424a35.537 35.537 0 00-13.876 6.443 35.324 35.324 0 00-9.852 11.664 1.285 1.285 0 01-1.173.68zM68.576 136.66a1.28 1.28 0 01-1.289-1.282 21.715 21.715 0 00-2.143-8.572 21.818 21.818 0 00-5.384-7.023 37.685 37.685 0 01-8.352-10.81 1.284 1.284 0 01-.163-1.028 1.273 1.273 0 01.656-.809 1.288 1.288 0 011.043-.06 1.297 1.297 0 01.745.73 35.362 35.362 0 007.85 10.041 24.384 24.384 0 016.014 7.907 24.266 24.266 0 012.35 9.637 1.281 1.281 0 01-1.327 1.269z" fill="#1351AA"/><path d="M102.164 136.66H68.576c-.342 0-.67-.135-.912-.375a1.28 1.28 0 01.912-2.19h33.588c.342 0 .67.136.911.376a1.28 1.28 0 01-.911 2.189z" fill="#1351AA"/><g opacity=".5" fill="#1351AA"><path opacity=".5" d="M100.888 150.895H69.851c-.341 0-.67-.135-.91-.375a1.28 1.28 0 01.91-2.19h31.037c.342 0 .67.136.911.376a1.28 1.28 0 01-.911 2.189zM102.164 143.778H68.576a1.29 1.29 0 01-1.29-1.283 1.29 1.29 0 011.289-1.282h33.589a1.288 1.288 0 011.289 1.282 1.288 1.288 0 01-1.289 1.283z"/></g><path d="M92.536 158H78.204a10.957 10.957 0 01-7.716-3.185 10.848 10.848 0 01-3.201-7.677v-11.747c0-.34.135-.667.377-.907a1.29 1.29 0 012.2.907v11.747a8.3 8.3 0 002.45 5.872 8.384 8.384 0 005.902 2.438h14.32a8.384 8.384 0 005.902-2.438 8.296 8.296 0 002.45-5.872v-11.747a1.281 1.281 0 011.289-1.283 1.288 1.288 0 011.289 1.283v11.747a10.85 10.85 0 01-3.206 7.681A10.957 10.957 0 0192.536 158z" fill="#1351AA"/><path d="M85.37 134.788a1.29 1.29 0 01-1.29-1.282v-28.342a1.29 1.29 0 012.578 0v28.342c0 .34-.135.666-.377.906a1.29 1.29 0 01-.911.376z" fill="#1351AA"/><path d="M85.202 106.433a8.033 8.033 0 01-4.447-1.342 7.973 7.973 0 01-2.947-3.574 7.927 7.927 0 01-.456-4.601 7.952 7.952 0 012.19-4.078 8.016 8.016 0 014.099-2.18 8.042 8.042 0 014.624.454 7.996 7.996 0 013.592 2.933 7.936 7.936 0 01-.995 10.056 8.026 8.026 0 01-5.66 2.332zm0-13.375a5.46 5.46 0 00-3.022.912 5.419 5.419 0 00-2.003 2.428 5.387 5.387 0 001.18 5.898 5.46 5.46 0 005.927 1.173 5.43 5.43 0 002.44-1.993c.598-.89.917-1.936.917-3.007a5.411 5.411 0 00-1.597-3.823 5.466 5.466 0 00-3.842-1.588zM142.996 59.163a8.033 8.033 0 01-4.447-1.342 7.976 7.976 0 01-2.948-3.574 7.924 7.924 0 01-.455-4.602 7.955 7.955 0 012.19-4.077 8.02 8.02 0 014.099-2.18 8.042 8.042 0 014.624.453 7.99 7.99 0 013.592 2.933A7.932 7.932 0 01151 51.2a7.956 7.956 0 01-2.348 5.628 8.036 8.036 0 01-5.656 2.336zm0-13.376a5.46 5.46 0 00-3.022.912 5.422 5.422 0 00-2.003 2.429 5.391 5.391 0 001.179 5.898 5.461 5.461 0 005.927 1.173 5.429 5.429 0 002.441-1.993 5.39 5.39 0 00.917-3.007 5.407 5.407 0 00-1.597-3.823 5.463 5.463 0 00-3.842-1.589z" fill="#E44F89"/><path d="M130.159 99.752H91.917c-.341 0-.67-.135-.911-.376a1.279 1.279 0 010-1.813c.242-.24.57-.376.911-.376h38.242c3.076 0 6.027-1.216 8.202-3.38a11.51 11.51 0 003.398-8.162V57.88c0-.34.135-.666.377-.906a1.294 1.294 0 011.823 0c.242.24.377.566.377.906v27.816a14.07 14.07 0 01-4.17 9.942 14.216 14.216 0 01-10.007 4.114z" fill="#E44F89"/><path d="M122.039 134.596a1.283 1.283 0 01-1.289-1.283 3.44 3.44 0 00-1.212-2.757c-2.036-1.731-6.741-1.18-6.741 2.77 0 .34-.135.666-.377.907a1.295 1.295 0 01-1.823 0 1.279 1.279 0 01-.377-.907 6.496 6.496 0 012.015-4.419 6.562 6.562 0 014.526-1.807c1.686 0 3.307.647 4.526 1.807a6.505 6.505 0 012.015 4.419 1.283 1.283 0 01-1.263 1.27z" fill="#1351AA"/><path d="M116.78 136.635a13.59 13.59 0 01-7.527-2.273 13.488 13.488 0 01-4.989-6.051 13.411 13.411 0 01-.769-7.789 13.46 13.46 0 013.711-6.901 13.577 13.577 0 016.939-3.686 13.608 13.608 0 017.828.773 13.532 13.532 0 016.077 4.969 13.437 13.437 0 012.276 7.492 13.44 13.44 0 01-3.972 9.522 13.582 13.582 0 01-9.574 3.944zm0-24.367c-2.172 0-4.295.641-6.101 1.842a10.934 10.934 0 00-4.044 4.903 10.867 10.867 0 00-.625 6.313 10.901 10.901 0 003.005 5.595 11.026 11.026 0 0011.967 2.368 10.97 10.97 0 004.929-4.024 10.891 10.891 0 001.85-6.07 10.87 10.87 0 00-.828-4.189 10.93 10.93 0 00-2.379-3.554 10.995 10.995 0 00-7.774-3.209v.025z" fill="#1351AA"/><path d="M116.78 124.439a4.08 4.08 0 01-2.259-.675 4.042 4.042 0 01-1.501-1.81 4.024 4.024 0 01.872-4.407 4.075 4.075 0 016.25.606c.447.665.685 1.447.685 2.246a4.039 4.039 0 01-1.188 2.848 4.084 4.084 0 01-2.859 1.192zm0-5.528a1.5 1.5 0 00-1.4.901 1.478 1.478 0 00.308 1.63 1.503 1.503 0 001.632.334 1.492 1.492 0 00.929-1.377 1.487 1.487 0 00-1.469-1.488zM122.541 83.632c-.342 0-.669-.135-.911-.376a1.279 1.279 0 01-.378-.907c0-3.95-4.704-4.501-6.753-2.783a3.466 3.466 0 00-1.186 2.783 1.29 1.29 0 01-2.578 0 6.192 6.192 0 011.903-4.543 6.233 6.233 0 014.632-1.728 6.826 6.826 0 014.446 1.552 5.975 5.975 0 011.582 2.124c.362.817.535 1.703.506 2.595.001.336-.132.658-.368.898a1.29 1.29 0 01-.895.385z" fill="#1351AA"/><path d="M117.283 85.67c-2.68 0-5.299-.79-7.526-2.27a13.488 13.488 0 01-4.989-6.05 13.407 13.407 0 01-.771-7.787 13.456 13.456 0 013.707-6.901 13.568 13.568 0 016.936-3.689 13.61 13.61 0 017.827.767 13.535 13.535 0 016.079 4.964 13.434 13.434 0 012.283 7.488c-.004 3.574-1.432 7-3.971 9.527a13.596 13.596 0 01-9.575 3.952zm0-24.366c-2.173 0-4.296.642-6.103 1.843a10.94 10.94 0 00-4.044 4.905 10.88 10.88 0 002.386 11.91 10.999 10.999 0 005.626 2.987c2.131.42 4.34.202 6.346-.627a10.972 10.972 0 004.926-4.03 10.884 10.884 0 001.844-6.074 10.875 10.875 0 00-.832-4.185 10.92 10.92 0 00-2.38-3.55 10.988 10.988 0 00-3.564-2.371 11.028 11.028 0 00-4.205-.833v.025z" fill="#1351AA"/><path d="M117.283 73.475a4.076 4.076 0 01-2.256-.681 4.04 4.04 0 01-1.495-1.813 4.027 4.027 0 01.88-4.402 4.076 4.076 0 014.424-.876 4.054 4.054 0 011.822 1.488 4.02 4.02 0 01-.504 5.1 4.06 4.06 0 01-2.871 1.184zm0-5.527a1.502 1.502 0 00-1.382.918 1.488 1.488 0 001.09 2.028 1.502 1.502 0 001.535-.632 1.484 1.484 0 00-1.243-2.314zM53.805 101.945a1.29 1.29 0 01-1.289-1.283c0-3.937-4.717-4.488-6.754-2.77a3.463 3.463 0 00-1.186 2.77c0 .34-.135.667-.377.907a1.29 1.29 0 01-2.2-.907 6.166 6.166 0 011.903-4.543 6.23 6.23 0 014.631-1.728 6.827 6.827 0 014.434 1.552 5.98 5.98 0 011.603 2.119 5.95 5.95 0 01.524 2.6 1.29 1.29 0 01-1.289 1.283z" fill="#1351AA"/><path d="M48.546 103.984c-2.679 0-5.298-.791-7.526-2.272a13.492 13.492 0 01-4.989-6.049 13.416 13.416 0 01-.77-7.787 13.457 13.457 0 013.707-6.901 13.568 13.568 0 016.935-3.689 13.61 13.61 0 017.827.767 13.532 13.532 0 016.08 4.964 13.43 13.43 0 012.282 7.489c-.003 3.573-1.431 7-3.97 9.526a13.597 13.597 0 01-9.576 3.952zm0-24.366a11.02 11.02 0 00-6.105 1.836 10.938 10.938 0 00-4.05 4.903 10.875 10.875 0 00-.629 6.316 10.91 10.91 0 003.006 5.597 10.997 10.997 0 005.626 2.991 11.03 11.03 0 006.348-.625 10.968 10.968 0 004.927-4.03 10.888 10.888 0 001.846-6.075 10.878 10.878 0 00-.831-4.182 10.923 10.923 0 00-2.377-3.548 10.985 10.985 0 00-3.56-2.372 11.03 11.03 0 00-4.2-.837v.026z" fill="#1351AA"/><path d="M48.546 91.788a4.075 4.075 0 01-2.253-.68 4.044 4.044 0 01-1.495-1.808 4.022 4.022 0 01.868-4.4 4.079 4.079 0 014.416-.892 4.056 4.056 0 011.828 1.477 4.025 4.025 0 01-.484 5.11 4.06 4.06 0 01-2.88 1.193zm0-5.527a1.5 1.5 0 00-1.383.924 1.481 1.481 0 00.336 1.624 1.498 1.498 0 002.542-1.086 1.483 1.483 0 00-.447-1.036 1.499 1.499 0 00-1.048-.426z" fill="#1351AA"/></svg>
