<svg width="72" height="72" viewBox="0 0 72 72" fill="none" xmlns="http://www.w3.org/2000/svg"><path d="M71.001 20.385v47.84a39.12 39.12 0 0 0-35 0v-47.84s13.87-9.76 35 0ZM1.001 20.385v47.84a39.12 39.12 0 0 1 35 0v-47.84s-13.87-9.76-35 0Z" fill="#fff"/><path opacity=".5" d="M47.712 20.845a9.517 9.517 0 0 0-3.35.36 9.51 9.51 0 0 0 1.23-4.74 9.66 9.66 0 0 0-9.3-9.48 9.55 9.55 0 0 0-8.62 14.16 9 9 0 0 0-6.33.56 9.51 9.51 0 0 0 3.89 18.22 9.441 9.441 0 0 0 8.49-5.24 2.7 2.7 0 0 1 2.1-1.5h.06a2.6 2.6 0 0 1 2.62 1.41 9.55 9.55 0 0 0 18.1-4.24 9.65 9.65 0 0 0-8.89-9.51Z" fill="#92C4FF"/><path d="M25.181 36.175a9.22 9.22 0 1 0 0-18.44 9.22 9.22 0 0 0 0 18.44Z" fill="#DCECFF"/><path d="M25.181 26.945a2.16 2.16 0 1 0 0-4.32 2.16 2.16 0 0 0 0 4.32ZM29.931 35.445c0-5.72-9.28-5.72-9.28 0 0 0 4.69 2.36 8.63.3" fill="#92C4FF"/><path d="M47.181 36.175a9.22 9.22 0 1 0 0-18.44 9.22 9.22 0 0 0 0 18.44Z" fill="#DCECFF"/><path d="M47.462 26.495a2.16 2.16 0 1 0 0-4.32 2.16 2.16 0 0 0 0 4.32ZM52.201 34.995c0-5.72-9.28-5.72-9.28 0 0 0 4.69 2.36 8.63.3" fill="#92C4FF"/><path d="M36.181 22.175a9.22 9.22 0 1 0 0-18.44 9.22 9.22 0 0 0 0 18.44Z" fill="#DCECFF"/><path d="M35.901 13.015a2.16 2.16 0 1 0 0-4.32 2.16 2.16 0 0 0 0 4.32ZM40.322 21.335c0-4.55-5.55-5.3-8-2.62a2.179 2.179 0 0 0 1.08 3.54 9.13 9.13 0 0 0 6.6-.45" fill="#92C4FF"/><path d="M29.282 36.065a1 1 0 0 1-1-1 2.7 2.7 0 0 0-.93-2.17c-1.59-1.35-5.26-.91-5.26 2.17a1 1 0 1 1-2 0 4.851 4.851 0 0 1 5.09-4.91 4.852 4.852 0 0 1 5.1 4.91 1 1 0 0 1-1 1Z" fill="#1351AA"/><path d="M25.181 37.685a10.55 10.55 0 1 1 10.56-10.57 10.558 10.558 0 0 1-10.56 10.57Zm0-19.1a8.55 8.55 0 1 0 8.56 8.55 8.558 8.558 0 0 0-8.56-8.57v.02Z" fill="#1351AA"/><path d="M25.181 28.115a3.17 3.17 0 1 1 0-6.34 3.17 3.17 0 0 1 0 6.34Zm0-4.33a1.17 1.17 0 1 0 0 2.34 1.17 1.17 0 0 0 0-2.34ZM44.541 18.565a1 1 0 0 1-.45-.11 1.001 1.001 0 0 1-.44-1.35 8.34 8.34 0 0 0 .93-3.87 8.56 8.56 0 0 0-17.11 0 8.421 8.421 0 0 0 .84 3.7 1 1 0 0 1-1.8.87 10.442 10.442 0 0 1-1-4.57 10.56 10.56 0 0 1 21.11 0 10.429 10.429 0 0 1-1.15 4.78 1 1 0 0 1-.93.55ZM36.062 23.765c-.67.008-1.34-.045-2-.16a1.016 1.016 0 1 1 .37-2c1.234.158 2.484.158 3.72 0a1.01 1.01 0 1 1 .29 2c-.79.1-1.585.153-2.38.16Z" fill="#1351AA"/><path d="M47.001 37.685a10.55 10.55 0 1 1 10.56-10.57 10.56 10.56 0 0 1-10.56 10.57Zm0-19.1a8.55 8.55 0 1 0 8.55 8.55 8.55 8.55 0 0 0-8.55-8.57v.02Z" fill="#1351AA"/><path d="M51.101 35.905a1 1 0 0 1-1-1 2.71 2.71 0 0 0-.92-2.17c-1.59-1.35-5.26-.92-5.26 2.17a1 1 0 1 1-2 0 4.85 4.85 0 0 1 5.08-4.91 4.849 4.849 0 0 1 5.09 4.91 1 1 0 0 1-.99 1ZM47.002 27.955a3.17 3.17 0 1 1-.02-6.34 3.17 3.17 0 0 1 .02 6.34Zm0-4.33a1.17 1.17 0 1 0 1.16 1.16 1.16 1.16 0 0 0-1.16-1.16ZM32.002 21.125h-.19a.999.999 0 0 1-.8-1.17 4.89 4.89 0 0 1 5-3.88 4.87 4.87 0 0 1 5 3.85 1.019 1.019 0 1 1-2 .39 2.91 2.91 0 0 0-3-2.24 2.91 2.91 0 0 0-3 2.26 1 1 0 0 1-1.01.79ZM36.002 14.015a3.17 3.17 0 1 1-.02-6.34 3.17 3.17 0 0 1 .02 6.34Zm0-4.33a1.17 1.17 0 1 0-.02 2.34 1.17 1.17 0 0 0 .02-2.34ZM36.002 69.225a1.06 1.06 0 0 1-.45-.11 38.29 38.29 0 0 0-34.1 0 1 1 0 0 1-1 0 1 1 0 0 1-.45-.89v-47.84a1 1 0 1 1 2 0v46.3a40.35 40.35 0 0 1 34.45.69 1 1 0 0 1-.45 1.9v-.05Z" fill="#1351AA"/><path d="M1.002 21.175a1 1 0 0 1-.45-1.89 39.91 39.91 0 0 1 13.87-4 1.002 1.002 0 0 1 1.063 1.281 1 1 0 0 1-.864.71 37.761 37.761 0 0 0-13.17 3.8 1 1 0 0 1-.45.1ZM71.001 69.225a.999.999 0 0 1-.45-.11 38.29 38.29 0 0 0-34.1 0 .999.999 0 0 1-1.45-.89v-24.54a1 1 0 1 1 2 0v23a40.38 40.38 0 0 1 33 0v-45.89a38.481 38.481 0 0 0-16.5-3.75 1 1 0 1 1 0-2 40.252 40.252 0 0 1 18 4.24 1 1 0 0 1 .55.89v48.05a1 1 0 0 1-1.05 1Z" fill="#1351AA"/><g opacity=".3" fill="#1351AA"><path opacity=".3" d="M7.721 57.885a1.008 1.008 0 1 1-.25-2 46.28 46.28 0 0 1 22-.23 1 1 0 0 1 .296 1.824 1.002 1.002 0 0 1-.756.126 44.331 44.331 0 0 0-21.01.24.688.688 0 0 1-.28.04ZM7.721 52.975a1.008 1.008 0 1 1-.25-2 46.28 46.28 0 0 1 22-.23 1 1 0 0 1 .296 1.824 1.002 1.002 0 0 1-.756.126 44.331 44.331 0 0 0-21.01.24.69.69 0 0 1-.28.04ZM7.721 48.065a1.008 1.008 0 0 1-.25-2 46.28 46.28 0 0 1 22-.23 1 1 0 0 1 .58 1.556 1 1 0 0 1-1.04.394 44.328 44.328 0 0 0-21.01.24.691.691 0 0 1-.28.04ZM42.721 57.885a1.008 1.008 0 1 1-.25-2 46.28 46.28 0 0 1 22-.23 1 1 0 0 1 .296 1.824 1.002 1.002 0 0 1-.756.126 44.331 44.331 0 0 0-21.01.24.688.688 0 0 1-.28.04ZM42.721 52.975a1.008 1.008 0 1 1-.25-2 46.28 46.28 0 0 1 22-.23 1 1 0 0 1 .296 1.824 1.002 1.002 0 0 1-.756.126 44.331 44.331 0 0 0-21.01.24.69.69 0 0 1-.28.04ZM42.721 48.065a1.008 1.008 0 0 1-.25-2 46.28 46.28 0 0 1 22-.23 1 1 0 0 1 .58 1.556.999.999 0 0 1-1.04.394 44.328 44.328 0 0 0-21.01.24.691.691 0 0 1-.28.04Z"/></g></svg>
