<svg width="73" height="73" viewBox="0 0 73 73" fill="none" xmlns="http://www.w3.org/2000/svg"><path d="M60.088 8.76h-48.08v55.48h48.08V8.76Z" fill="#fff"/><path d="M41.318 61.64a9.37 9.37 0 0 1 9.37-9.37v-5.61l5.62 5.61h3.75a9.37 9.37 0 0 1 6.615 15.993A9.36 9.36 0 0 1 60.048 71h-9.36a9.36 9.36 0 0 1-9.37-9.36ZM30.778 11.36a9.37 9.37 0 0 1-9.36 9.37v5.61l-5.62-5.61h-3.75a9.37 9.37 0 0 1-9.36-9.37A9.36 9.36 0 0 1 12.048 2h9.37a9.36 9.36 0 0 1 9.36 9.36Z" fill="#92C4FF"/><g opacity=".5" fill="#92C4FF"><path opacity=".5" d="M37.798 59.58a9.38 9.38 0 0 1 7.89-9.24 1.75 1.75 0 0 0 1.51-1.71v-1.56a1 1 0 0 1 1.75-.72l2.87 2.87a3.421 3.421 0 0 0 2.42 1h2.33a9.37 9.37 0 0 1 9.37 9.36 9.367 9.367 0 0 1-9.41 9.42h-9.37a9.36 9.36 0 0 1-9.36-9.42ZM34.028 14.94a9.38 9.38 0 0 1-7.85 9.24 1.75 1.75 0 0 0-1.49 1.71v1.57a1 1 0 0 1-1.75.72l-2.87-2.87a3.387 3.387 0 0 0-2.42-1h-2.35a9.36 9.36 0 0 1 0-18.72h9.39a9.36 9.36 0 0 1 9.34 9.35Z"/></g><path d="M60.088 49.2a1 1 0 0 1-1-1V9.76h-23.31a1 1 0 1 1 0-2h24.31a1 1 0 0 1 1 1V48.2a1 1 0 0 1-1 1ZM36.888 65.24h-24.88a1 1 0 0 1-1-1v-39a1 1 0 1 1 2 0v38h23.88a1 1 0 1 1 0 2Z" fill="#1351AA"/><path d="M52.688 17.22h-18.66a1 1 0 0 1 0-2h18.66a1 1 0 1 1 0 2ZM36.888 57.78h-17.48a1 1 0 1 1 0-2h17.48a1 1 0 0 1 0 2Z" fill="#1351AA"/><g opacity=".3" fill="#1351AA"><path opacity=".3" d="M49.278 25h-18a1 1 0 0 1 0-2h18a1 1 0 1 1 0 2ZM49.278 31.34h-26.46a1 1 0 0 1 0-2h26.46a1 1 0 1 1 0 2ZM49.278 37.67h-26.46a1 1 0 1 1 0-2h26.46a1 1 0 0 1 0 2ZM49.278 44h-26.46a1 1 0 0 1 0-2h26.46a1 1 0 1 1 0 2ZM39.688 50.32h-16.87a1 1 0 1 1 0-2h16.87a1 1 0 0 1 0 2Z"/></g><path d="M21.418 27.34a.998.998 0 0 1-.71-.29l-5.32-5.32h-3.34a10.37 10.37 0 0 1 0-20.73h9.37a10.36 10.36 0 0 1 1 20.68v4.66a1 1 0 0 1-.62.93.998.998 0 0 1-.38.07ZM12.048 3a8.37 8.37 0 0 0 0 16.73h3.75a1 1 0 0 1 .71.29l3.91 3.91v-3.2a1 1 0 0 1 1-1 8.37 8.37 0 0 0 0-16.73h-9.37ZM60.048 72h-9.36a10.36 10.36 0 0 1-1-20.68v-4.66a1 1 0 0 1 1.7-.66l5.3 5.27h3.34a10.37 10.37 0 0 1 0 20.73h.02Zm-8.36-22.93v3.2a1 1 0 0 1-1 1 8.37 8.37 0 0 0 0 16.73h9.37a8.37 8.37 0 0 0 0-16.73h-3.76a1 1 0 0 1-.71-.27l-3.9-3.93Z" fill="#1351AA"/></svg>
