<svg width="350" height="350" viewBox="0 0 350 350" fill="none" xmlns="http://www.w3.org/2000/svg"><path d="M134.455 82.639c.624-10.066.426-24.155-4.003-33.212a27.049 27.049 0 0 0-7.279-9.764 5.71 5.71 0 0 0-3.889-1.477c-2.361.24-3.796 2.974-3.536 5.335.26 2.36 1.706 4.408 3.037 6.374a121.082 121.082 0 0 1 15.701 32.744M71.701 109.487c-4.221-4.159-12.477-9.983-18.415-9.94-2.651 0-5.542 1.268-6.478 3.753-1.206 3.192 1.518 6.769 4.783 7.757 3.265.988 6.76.135 10.055-.728 3.296-.863 6.78-1.757 10.055-.842M148.877 287.286c-4.648 6.499-11.812 11.438-15.306 15.732-3.255 3.993 2.329 9.546 6.239 6.114 5.178-4.637 7.05-18.727 9.067-21.846ZM53.41 195.345c-7.964-3.619-24.955-9.598-33.617-8.08-5.76.988-6.592 6.073-.488 7.539 11.126 2.672 23.188-2.911 34.106.541ZM209.426 284.166c3.182 1.508 12.478 5.283 13.31 10.149.364 2.225-1.3 4.814-3.556 4.731-3.13-.104-4.17-3.504-9.754-14.88ZM275.029 107.147c8.069-1.383 19.164-4.159 25.507-9.358a21.832 21.832 0 0 0 6.353-7.601 4.604 4.604 0 0 0 .447-3.338c-.624-1.83-3.057-2.454-4.877-1.81a11.976 11.976 0 0 0-4.46 3.588 98.8 98.8 0 0 1-22.97 18.519M280.831 232.113c7.903 2.173 18.665 6.031 24.457 11.812a21.918 21.918 0 0 1 5.584 8.194 4.608 4.608 0 0 1 .104 3.369c-.801 1.747-3.286 2.132-5.033 1.31a11.98 11.98 0 0 1-4.087-4.013 98.364 98.364 0 0 0-21.025-20.672M61.542 248.781c-4.159 1.809-9.836 7.279-9.92 9.275-.083 1.674 3.38 4.264 6.312-1.799l3.608-7.476ZM335.339 176.15c-.052 1.507-2.08 1.882-3.598 1.799-3.848-.061-7.69-.321-11.511-.78 2.631-2.433 15.296-4.773 15.109-1.019ZM217.579 78.958c1.944 3.889.478 8.64 1.039 12.79-6.935-8.693-2.859-16.523-1.039-12.79Z" fill="#FC95BF"/><path d="m316.819 220.186-.946 5.064a2.577 2.577 0 0 1-3.005 2.08l-7.601-1.425a2.577 2.577 0 0 1-2.08-3.005l.947-5.064" fill="#DCECFF"/><path d="M304.144 217.826a8.876 8.876 0 0 0-1.82-6.853 14.126 14.126 0 0 1-.772-15.94 14.127 14.127 0 0 1 14.584-6.48 14.123 14.123 0 0 1 10.372 19.557 14.124 14.124 0 0 1-5.467 6.316 8.991 8.991 0 0 0-2.7 2.445 8.984 8.984 0 0 0-1.511 3.315l-12.686-2.36Z" fill="#fff"/><path d="M313.024 207.583a2.579 2.579 0 1 0 0-5.157 2.579 2.579 0 0 0 0 5.157Z" fill="#DCECFF"/><path d="M272.585 86.35v-2.88a2.38 2.38 0 0 0-1.965-2.318l-2.215-.385a2.391 2.391 0 0 1-1.799-1.477 2.43 2.43 0 0 1 .229-2.329l1.289-1.84a2.369 2.369 0 0 0-.27-3.036l-2.08-2.08a2.368 2.368 0 0 0-3.036-.26l-1.851 1.29a2.393 2.393 0 0 1-2.319.228 2.415 2.415 0 0 1-1.466-1.799l-.395-2.215a2.377 2.377 0 0 0-2.339-1.965h-2.87a2.381 2.381 0 0 0-2.34 1.965l-.385 2.215a2.42 2.42 0 0 1-1.476 1.799 2.423 2.423 0 0 1-2.329-.229l-1.851-1.32a2.373 2.373 0 0 0-3.037.26l-2.079 2.08a2.37 2.37 0 0 0-.26 3.036l1.289 1.84a2.42 2.42 0 0 1 .229 2.33 2.42 2.42 0 0 1-1.799 1.476l-2.215.385a2.38 2.38 0 0 0-1.965 2.34v2.89a2.382 2.382 0 0 0 1.965 2.34l2.215.394a2.408 2.408 0 0 1 1.83 1.425 2.389 2.389 0 0 1-.229 2.319l-1.289 1.84a2.385 2.385 0 0 0 .26 3.047l2.08 2.08a2.369 2.369 0 0 0 3.036.27l1.809-1.237a2.422 2.422 0 0 1 2.329-.23 2.389 2.389 0 0 1 1.477 1.8l.385 2.215a2.38 2.38 0 0 0 2.339 1.965h2.87a2.383 2.383 0 0 0 2.34-1.965l.395-2.215a2.38 2.38 0 0 1 1.466-1.8 2.392 2.392 0 0 1 2.319.23l1.851 1.289a2.374 2.374 0 0 0 3.036-.27l2.08-2.08a2.383 2.383 0 0 0 .27-3.047l-1.289-1.84a2.388 2.388 0 0 1-.229-2.319 2.382 2.382 0 0 1 1.799-1.466l2.215-.395a2.384 2.384 0 0 0 1.975-2.35Zm-19.642 5.294a6.73 6.73 0 0 1-6.598-8.04 6.722 6.722 0 0 1 5.285-5.287 6.73 6.73 0 0 1 8.041 6.599 6.727 6.727 0 0 1-6.728 6.717v.01Z" fill="#ECF4FF"/><path d="M194.276 294.98a5.194 5.194 0 0 0 1.13-5.673 5.199 5.199 0 0 0-1.13-1.689l-3.047-3.046a5.197 5.197 0 0 0-7.362 0l-21.836 21.836-2.61 13.029 13.039-2.631 21.816-21.826Z" fill="#DCECFF"/><path d="m190.77 298.371-10.308-10.309-18.455 18.455 10.308 10.309 18.455-18.455Z" fill="#92C4FF"/><path d="M41.65 220.737a12.294 12.294 0 0 0 15.296 8.246l2.08 7.06 4.94-9.181 4.71-1.414a12.293 12.293 0 0 0 8.245-15.296 12.294 12.294 0 0 0-15.296-8.246l-11.78 3.535a12.28 12.28 0 0 0-8.194 15.296ZM90.423 73.11l-6.569 26.985 28.916 7.038 6.568-26.986-28.915-7.038Z" fill="#DCECFF"/><path d="M148.077 29.265c.145 9.951 1.466 19.913 1.611 29.864 44.463 2.714 53.364.26 53.364.26-.988-3.058-1.04-33.192-1.04-33.192-11.781-6.311-33.607 14.963-53.935 3.068Z" fill="#92C4FF"/><path d="M334.642 154.241c-22.19 10.398-42.03 19.33-64.22 29.697-3.473 1.622-7.081 3.348-9.431 6.384-2.35 3.037-3.067 6.842-4.107 10.471-4.898 17.189-19.414 10.492-16.325 3.317 1.206-2.817 3.816-10.471-1.363-8.796-6.779 2.204-27.94 11.157-34.865 12.821-11.105 2.661-14.557-4.742-10.804-10.399 1.799-2.672 12.405-5.75 18.53-8.776a1.978 1.978 0 0 0 1.037-2.304 1.98 1.98 0 0 0-2.077-1.439c-9.535.489-24.716 5.199-26.921.073-3.92-9.078 11.927-12.01 21.722-14.755a1.093 1.093 0 0 0-.333-2.153c-8.214.26-19.964 1.196-22.169-1.341-3.119-3.577-.842-7.924 3.504-9.764 10.118-4.305 8.413 1.632 55.953-20.401 22.741-10.534 45.472-20.797 68.203-31.372 14.484 9.026-.26 38.224 23.666 48.737Z" fill="#66A4FF"/><path d="m250.562 133.548 23.916 48.29 24.956-11.189-21.047-49.911-27.825 12.81Z" fill="#92C4FF"/><path d="M273.823 171.231c10.618 0 19.226-8.608 19.226-19.226 0-10.618-8.608-19.226-19.226-19.226-10.619 0-19.227 8.608-19.227 19.226 0 10.618 8.608 19.226 19.227 19.226Z" fill="#DCECFF"/><path d="M214.719 267.55c-2.839-2.579-5.823-5.199-9.525-6.239s-7.497-.198-11.251.25c-3.753.447-7.84.468-10.918-1.716a7.193 7.193 0 0 1-.988-.874c-3.369-3.639-.416-9.524 4.544-9.472 3.12 0 6.905-.645 3.359-4.773-4.648-5.397-16.845-21.337-21.056-27.098-6.739-9.213-2.35-13.299 4.315-11.989 3.119.624 11.188 7.279 16.335 11.719a1.98 1.98 0 0 0 2.569.163 1.978 1.978 0 0 0 .551-2.513c-4.159-8.62-14.318-20.797-10.461-24.81 6.863-7.123 15.681 6.363 21.993 14.339a1.1 1.1 0 0 0 1.892-.368 1.11 1.11 0 0 0-.031-.766c-3.411-7.476-8.807-17.957-7.279-20.973 2.08-4.232 6.988-3.826 10.398-.53 7.861 7.663 1.737 8.391 40.408 43.745 5.397 4.929 5.449 4.087 10.845 9.015L224.4 275.39a104.644 104.644 0 0 1-9.681-7.84Z" fill="#92C4FF"/><path d="m94.234 317.014 50.713-55.474c35.354-38.671 36.071-32.547 43.745-40.408 3.296-3.389 3.692-8.318-.541-10.398-3.005-1.487-13.517 3.91-20.962 7.279a1.103 1.103 0 0 1-1.134-1.861c7.976-6.312 21.462-15.13 14.329-21.993-4.003-3.857-16.19 6.323-24.8 10.451-.416.23-.901.303-1.367.205a1.98 1.98 0 0 1-1.562-2.065c.032-.475.234-.922.569-1.26 4.481-5.147 11.095-13.185 11.719-16.335 1.32-6.666-2.777-11.054-11.99-4.316-5.75 4.16-21.69 16.409-27.097 21.057-4.16 3.545-4.794-.291-4.763-3.359 0-4.96-5.833-7.913-9.473-4.544a6.034 6.034 0 0 0-.873 1.04c-2.194 3.119-2.163 7.175-1.716 10.918.447 3.743 1.217 7.601.239 11.24-.977 3.64-3.649 6.697-6.239 9.536l-49.402 54.476a16.106 16.106 0 0 0 6.01 10.45c4.305 3.047 29.012 8.474 34.595 25.361Z" fill="#DCECFF"/><path d="m79.198 255.436 40.356 34.73 17.927-19.996-40.085-36.289-18.198 21.555Z" fill="#66A4FF"/><path d="M129.017 264.732c-6.905 7.559-16.346 23.999-23.74 17.355-7.965-5.376-23.999-16.346-17.365-23.739 4.44-6.666 16.346-24 23.75-17.365 7.04 6.54 24.03 16.345 17.355 23.749Z" fill="#3884FF"/><path d="M73.802 183.699c24.332 6.01-3.4-.343 20.921 5.667 50.868 12.571 45.825 16.138 56.4 19.112 4.555 1.279 9.026-.697 8.849-5.418-.125-3.358-9.878-9.982-16.45-14.921a1.101 1.101 0 0 1 .318-1.931c.257-.084.537-.07.784.038 9.359 3.993 23.542 11.626 26.162 2.08 1.477-5.365-13.289-11.209-21.035-16.793a1.98 1.98 0 0 1-.65-2.399 1.976 1.976 0 0 1 2.209-1.136c6.676 1.466 16.887 3.441 19.955 2.485 6.488-2.08 8.391-7.726-1.934-12.592-6.447-3.047-24.779-11.22-31.445-13.747-5.084-1.924-2.079-4.346.666-5.792 4.388-2.329 4.159-8.901-.531-10.492a6.25 6.25 0 0 0-1.289-.291c-3.743-.457-7.279 1.529-10.398 3.712-3.12 2.184-6.094 4.7-9.764 5.584-3.671.884-7.622 0-11.345-.915-23.801-5.802 11.168 2.621-12.633-3.182" fill="#92C4FF"/><path d="M202.324 168.497c-4.232.176-8.89.384-12.582.176a12.568 12.568 0 0 0 1.321 3.806c.457.686.984 1.324 1.57 1.903 2.766-1.04 5.854-1.872 8.766-2.652a18.91 18.91 0 0 0 .925-3.233ZM187.798 152.66c.083 1.279.197 2.672.322 4.159 4.96-1.871 7.279-1.258 16.482-4.159.987-7.539 1.965-15.597 2.266-19.611.406-5.428 3.588-3.192 5.74-1.04 3.473 3.536 9.723 1.466 9.92-3.483a7.039 7.039 0 0 0-.083-1.321c-.634-3.722-3.546-6.603-6.509-8.932-2.964-2.329-6.239-4.513-8.132-7.778-1.892-3.265-2.142-7.278-2.329-11.146-1.154-24.436-1.248-15.494-2.423-39.96l-53.53-.271c1.123 25.028.634 20.287 1.757 45.315 2.35 52.345-2.495 48.518-2.36 59.509.062 4.721 3.234 8.454 7.705 6.946 3.192-1.04 6.78-12.301 9.65-19.996a1.101 1.101 0 0 1 2.131.51c-1.185 10.107-4.481 25.881 5.407 25.694 5.563-.104 6.978-15.93 10.149-24.956a1.975 1.975 0 0 1 3.837.52Z" fill="#DCECFF"/><path d="M246.538 212.897a7.797 7.797 0 0 1-6.052-2.745 5.906 5.906 0 0 1-.884-6.239c1.466-3.411 2.08-6.676 1.373-7.435-.271-.301-1.113-.073-1.456 0-2.652.863-7.664 2.818-12.977 4.898l-1.102.426a1.043 1.043 0 0 1-1.39-.571 1.043 1.043 0 0 1 .63-1.363l1.113-.437c5.334-2.079 10.398-4.055 13.081-4.928 2.007-.656 3.12-.073 3.639.54 1.935 2.08-.062 7.445-1.039 9.65a3.834 3.834 0 0 0 .582 4.086 5.894 5.894 0 0 0 5.719 1.851c2.08-.426 5.885-2.298 8.069-9.951l.468-1.684c.853-3.12 1.747-6.447 3.816-9.13 2.548-3.307 6.405-5.106 9.816-6.697 11.105-5.199 21.628-10.096 32.151-14.994 10.524-4.897 20.984-9.764 32.069-14.942a1.039 1.039 0 0 1 .884 1.882l-32.069 14.953-32.109 15.067c-3.182 1.487-6.801 3.182-9.037 6.083-1.83 2.36-2.662 5.428-3.462 8.401-.156.572-.312 1.144-.478 1.716-2.475 8.714-7.113 10.887-9.65 11.438a8.473 8.473 0 0 1-1.705.125ZM197.905 196.177a1.04 1.04 0 0 1-.437-1.986 95.79 95.79 0 0 1 3.494-1.498 1.046 1.046 0 0 1 1.357.577 1.046 1.046 0 0 1-.577 1.357 94.133 94.133 0 0 0-3.4 1.446.947.947 0 0 1-.437.104ZM190.366 188.939c-3.525 0-6.239-.727-7.185-2.984a6.782 6.782 0 0 1-.693-2.92 6.786 6.786 0 0 1 .631-2.934c2.433-5.002 11.261-7.341 19.039-9.358 1.196-.312 2.34-.624 3.421-.926a.06.06 0 0 0 .02-.025.072.072 0 0 0 .008-.032.072.072 0 0 0-.008-.032.06.06 0 0 0-.02-.025l-3.816.145c-10.274.427-17.157.531-19.206-1.85a6.247 6.247 0 0 1-1.528-5.605 8.821 8.821 0 0 1 5.407-5.792 32.888 32.888 0 0 1 7.767-2.204c5.969-1.113 14.984-2.797 48.155-18.176l68.202-31.611a1.037 1.037 0 0 1 .797-.032 1.054 1.054 0 0 1 .681.937 1.04 1.04 0 0 1-.605.988l-68.202 31.6c-33.41 15.493-42.581 17.209-48.643 18.342a30.176 30.176 0 0 0-7.279 2.08 6.82 6.82 0 0 0-4.211 4.346 4.16 4.16 0 0 0 1.04 3.775c1.549 1.799 11.178 1.393 17.542 1.133l3.805-.145a2.145 2.145 0 0 1 1.768 3.238 2.147 2.147 0 0 1-1.123.921c-1.092.301-2.246.613-3.452.925-6.988 1.851-15.681 4.16-17.677 8.319a4.754 4.754 0 0 0 .104 4.159c1.196 2.766 9.358 1.539 13.788.884a1.048 1.048 0 0 1 1.19.889 1.052 1.052 0 0 1-.889 1.191c-2.92.469-5.87.73-8.828.779ZM269.591 318.012c-.258 0-.506-.097-.697-.27-2.901-2.641-12.894-11.844-22.554-20.796-9.66-8.953-19.757-18.197-22.637-20.797a1.035 1.035 0 0 1-.028-1.426 1.04 1.04 0 0 1 1.421-.113c2.912 2.641 12.946 11.896 22.648 20.797 9.701 8.901 19.653 18.113 22.543 20.744a1.04 1.04 0 0 1 .073 1.466 1.024 1.024 0 0 1-.769.395Z" fill="#1351AA"/><path d="M224.4 276.43a1.044 1.044 0 0 1-.697-.27c-6.717-6.104-15.306-13.029-18.311-13.83-3.005-.801-6.042-.354-9.088 0l-1.758.218c-3.587.427-8.141.603-11.656-1.902a6.928 6.928 0 0 1-1.144-1.04 6.402 6.402 0 0 1-1.133-7.05 7.048 7.048 0 0 1 6.447-4.16c2.63 0 3.556-.499 3.701-.811.146-.312-.093-1.039-1.143-2.235-.739-.863-1.674-1.893-2.735-3.068-2.714-3.015-6.104-6.759-9.359-11.032a1.044 1.044 0 0 1 .963-1.668c.274.037.523.18.691.399 3.234 4.211 6.592 7.924 9.285 10.908 1.04 1.185 2.018 2.236 2.766 3.119.562.666 2.288 2.662 1.446 4.472-.645 1.383-2.496 2.079-5.595 2.017a4.972 4.972 0 0 0-4.533 2.932 4.29 4.29 0 0 0 .759 4.794c.246.272.521.516.821.728 2.933 2.079 6.988 1.923 10.201 1.539l1.726-.229c3.255-.427 6.624-.874 9.91 0 4.72 1.268 17.677 12.977 19.164 14.308a1.043 1.043 0 0 1 .072 1.466 1.045 1.045 0 0 1-.8.395ZM169.362 218.678a1.039 1.039 0 0 1-.842-.426 27.251 27.251 0 0 1-1.186-1.736 1.041 1.041 0 1 1 1.768-1.103c.322.52.697 1.04 1.092 1.612a1.037 1.037 0 0 1-.832 1.653ZM183.119 212.668a1.036 1.036 0 0 1-.645-.218c-1.944-1.539-3.639-2.787-5.064-3.733a1.043 1.043 0 0 1-.291-1.435c.075-.114.173-.213.287-.289a1.026 1.026 0 0 1 .782-.158c.135.027.262.08.376.156 1.466.967 3.213 2.256 5.199 3.826a1.042 1.042 0 0 1 .167 1.456 1.032 1.032 0 0 1-.811.395ZM260.347 235.711a1.041 1.041 0 0 1-.708-.271l-16.21-14.817c-27.036-24.706-29.521-29.874-31.195-33.274a13.71 13.71 0 0 0-3.463-4.68 6.829 6.829 0 0 0-5.636-2.194 4.16 4.16 0 0 0-3.067 2.454c-1.04 2.08 3.036 10.846 5.729 16.637a360.777 360.777 0 0 1 1.602 3.453 2.132 2.132 0 0 1-3.619 2.214c-.707-.883-1.435-1.84-2.184-2.817-4.408-5.74-9.878-12.873-14.484-13.133a4.757 4.757 0 0 0-3.765 1.684c-2.142 2.236 2.08 9.099 5.792 15.161 1.768 2.88 3.598 5.854 4.856 8.474a3.011 3.011 0 0 1 0 2.704 3.115 3.115 0 0 1-2.246 1.612 1.042 1.042 0 0 1-1.185-.864 1.037 1.037 0 0 1 .863-1.185 1.04 1.04 0 0 0 .717-.53.9.9 0 0 0 0-.832c-1.216-2.527-3.015-5.459-4.752-8.319-4.512-7.351-8.786-14.308-5.521-17.677a6.76 6.76 0 0 1 5.376-2.318c5.563.301 11.116 7.549 16.013 13.933.749.978 1.477 1.924 2.163 2.797a.09.09 0 0 0 .062.024.092.092 0 0 0 .063-.024c-.51-1.133-1.04-2.287-1.612-3.473-4.357-9.306-7.102-15.597-5.709-18.425a6.244 6.244 0 0 1 4.586-3.577 8.838 8.838 0 0 1 7.435 2.755 15.743 15.743 0 0 1 3.878 5.262c1.581 3.275 3.972 8.225 30.706 32.66l16.211 14.818c.102.092.184.204.242.329a1.031 1.031 0 0 1-.179 1.147 1.05 1.05 0 0 1-.759.292Z" fill="#1351AA"/><path d="M305.413 277.407a1.036 1.036 0 0 1-.707-.27c-2.694-2.464-12.78-11.812-22.533-20.859-9.754-9.046-19.84-18.373-22.534-20.796a1.043 1.043 0 0 1 .655-1.81c.276-.013.545.085.749.271 2.693 2.464 12.79 11.812 22.544 20.859 9.753 9.046 19.829 18.384 22.522 20.796a1.033 1.033 0 0 1 .284 1.127 1.028 1.028 0 0 1-.98.682ZM53.63 283.085a1.039 1.039 0 0 1-1.037-.989 1.041 1.041 0 0 1 .267-.748l49.412-54.393c2.371-2.61 5.054-5.563 6-9.108.77-2.881.354-6.031 0-9.089-.083-.582-.156-1.175-.229-1.757-.572-4.783-.332-11.032 4.035-13.632a1.042 1.042 0 0 1 1.446 1.162 1.047 1.047 0 0 1-.406.627c-3.577 2.131-3.432 8.183-3.026 11.594l.218 1.736c.437 3.255.874 6.613 0 9.899-1.04 4.024-3.941 7.185-6.468 9.962l-49.443 54.403a1.032 1.032 0 0 1-.77.333ZM123.11 205.327a2.513 2.513 0 0 1-1.039-.218c-1.383-.645-2.08-2.475-2.007-5.605a4.79 4.79 0 0 0-.645-2.485 1.042 1.042 0 0 1 .374-1.414 1.033 1.033 0 0 1 .79-.109 1.047 1.047 0 0 1 .635.483 6.966 6.966 0 0 1 .925 3.546c0 2.61.499 3.546.811 3.691.312.146 1.04-.093 2.236-1.133.967-.832 2.308-1.945 4.003-3.307a1.042 1.042 0 1 1 1.311 1.622 146.374 146.374 0 0 0-3.962 3.255 5.914 5.914 0 0 1-3.432 1.674ZM144.656 189.096a1.04 1.04 0 0 1-.832-.416 1.057 1.057 0 0 1-.184-.365 1.051 1.051 0 0 1 .371-1.102l1.362-1.039a1.045 1.045 0 0 1 1.493.169 1.028 1.028 0 0 1 .2.792 1.033 1.033 0 0 1-.435.692l-1.362 1.04c-.175.14-.39.22-.613.229ZM164.007 180.902a1.036 1.036 0 0 1-.801-.385 2.78 2.78 0 0 0-1.57-.936 1.035 1.035 0 0 1-.802-.84 1.038 1.038 0 0 1 1.249-1.188c1.07.22 2.031.8 2.724 1.643a1.036 1.036 0 0 1-.242 1.544 1.042 1.042 0 0 1-.558.162ZM157.102 198.932a1.041 1.041 0 0 1-1.033-1.172c.025-.196.106-.381.233-.533a132.52 132.52 0 0 0 4.013-5.126 1.048 1.048 0 0 1 .685-.461 1.043 1.043 0 0 1 1.188 1.316c-.04.136-.108.263-.199.372-1.123 1.539-2.505 3.296-4.086 5.199a1.044 1.044 0 0 1-.801.405ZM94.224 318.907a1.039 1.039 0 0 1-.697-.271 1.038 1.038 0 0 1-.062-1.466l50.712-55.485c24.852-27.181 32.64-32.297 37.798-35.686a30.627 30.627 0 0 0 5.968-4.742 6.827 6.827 0 0 0 2.205-5.636 4.16 4.16 0 0 0-2.454-3.067c-2.08-1.04-10.845 3.026-16.637 5.729l-3.442 1.602a2.144 2.144 0 0 1-2.215-3.629 287.99 287.99 0 0 1 2.818-2.184c5.729-4.399 12.873-9.878 13.123-14.485a4.709 4.709 0 0 0-1.685-3.764c-2.225-2.142-9.098 2.08-15.161 5.802-1.039.645-2.079 1.29-3.119 1.903a1.038 1.038 0 0 1-1.366-1.516 1.03 1.03 0 0 1 .305-.272l3.12-1.882c7.362-4.524 14.308-8.787 17.677-5.532a6.77 6.77 0 0 1 2.319 5.386c-.312 5.553-7.55 11.105-13.944 16.013-.967.749-1.914 1.466-2.787 2.163a.083.083 0 0 0-.021.028.083.083 0 0 0-.007.034c0 .012.002.024.007.035.005.01.012.02.021.028l3.473-1.612c9.306-4.357 15.597-7.112 18.426-5.709a6.24 6.24 0 0 1 3.577 4.576 8.843 8.843 0 0 1-2.766 7.434 32.09 32.09 0 0 1-6.312 5.033c-5.074 3.328-12.738 8.371-37.434 35.354l-50.67 55.485a1.034 1.034 0 0 1-.77.333ZM150.915 150.466a1.044 1.044 0 0 1-.416-.083c-4.003-1.747-9.431-4.076-12.55-5.262-.811-.301-3.286-1.237-3.411-3.233-.104-1.518 1.196-2.974 3.951-4.44a4.913 4.913 0 0 0 2.579-4.752 4.27 4.27 0 0 0-2.953-3.837 5.086 5.086 0 0 0-1.04-.25c-3.556-.437-7.05 1.664-9.681 3.525l-1.424 1.04c-2.652 1.934-5.386 3.93-8.693 4.731-4.055.978-8.194 0-11.833-.925l-71.447-17.417a1.047 1.047 0 0 1-.689-.455 1.043 1.043 0 0 1 .357-1.473 1.037 1.037 0 0 1 .821-.09l71.405 17.407c3.421.832 7.279 1.778 10.856.915 2.901-.697 5.469-2.579 7.965-4.388l1.435-1.04c2.942-2.079 6.852-4.409 11.136-3.899a7.719 7.719 0 0 1 1.529.364 6.425 6.425 0 0 1 4.367 5.646 7.007 7.007 0 0 1-3.681 6.759c-2.298 1.216-2.88 2.08-2.859 2.475.02.395.582.852 2.079 1.414 3.12 1.206 8.62 3.546 12.644 5.303a1.037 1.037 0 0 1 .587 1.159 1.04 1.04 0 0 1-1.002.827l-.032-.021ZM167.48 157.88a1.096 1.096 0 0 1-.437-.094l-2.08-.935a1.044 1.044 0 0 1-.407-1.337 1.04 1.04 0 0 1 1.291-.535l2.08.936a1.036 1.036 0 0 1 .584 1.169 1.035 1.035 0 0 1-1.021.817l-.01-.021ZM167.189 171.689h-.084c-2.079-.156-4.658-.52-7.767-1.04a1.046 1.046 0 0 1-.681-.437 1.058 1.058 0 0 1 .643-1.635c.136-.03.276-.032.412-.008 3.037.552 5.574.905 7.56 1.04a1.039 1.039 0 0 1 .998 1.082 1.04 1.04 0 0 1-1.081.998Z" fill="#1351AA"/><path d="M154.232 209.902a11.035 11.035 0 0 1-2.963-.416 32.32 32.32 0 0 1-7.424-3.119c-5.356-2.86-13.445-7.185-48.945-15.961l-72.965-18.062a1.038 1.038 0 0 1 .5-2.017l72.964 18.03c35.76 8.839 43.985 13.237 49.423 16.149a30.539 30.539 0 0 0 7.019 2.973 6.767 6.767 0 0 0 6-.759 4.159 4.159 0 0 0 1.518-3.618c-.083-2.371-7.841-8.09-12.977-11.865-1.04-.779-2.08-1.538-3.057-2.266a2.14 2.14 0 0 1-.524-2.724 2.138 2.138 0 0 1 2.603-.957l3.265 1.435c6.603 2.932 14.828 6.582 18.998 4.616a4.75 4.75 0 0 0 2.495-3.285c.822-2.974-6.166-6.998-12.332-10.544-2.932-1.685-5.948-3.421-8.318-5.126a3.002 3.002 0 0 1-1.248-2.08 3.122 3.122 0 0 1 .769-2.392 1.046 1.046 0 0 1 1.472-.088c.206.183.332.441.349.717.016.276-.078.547-.261.754a1.034 1.034 0 0 0-.26.78.93.93 0 0 0 .395.645c2.277 1.643 5.262 3.348 8.132 5.012 7.486 4.294 14.557 8.318 13.309 12.894a6.724 6.724 0 0 1-3.618 4.606c-5.033 2.392-13.372-1.321-20.724-4.586l-3.192-1.435s-.094 0-.094.084l3.12 2.277c8.266 6.093 13.705 10.325 13.819 13.455a6.236 6.236 0 0 1-2.319 5.334 7.834 7.834 0 0 1-4.929 1.539ZM205.163 153.045h-.135a1.038 1.038 0 0 1-.894-1.165c1.102-8.464 1.871-15.212 2.079-18.54.073-.863.271-3.493 2.142-4.159 1.435-.52 3.193.302 5.387 2.537a4.917 4.917 0 0 0 5.282 1.123 4.307 4.307 0 0 0 2.849-3.92 5.496 5.496 0 0 0-.073-1.102c-.593-3.546-3.587-6.301-6.124-8.319l-1.383-1.04c-2.6-2.006-5.293-4.065-6.998-7.008-2.08-3.608-2.288-7.861-2.475-11.615l-3.525-73.411a1.04 1.04 0 1 1 2.08 0l3.525 73.411c.166 3.515.363 7.497 2.194 10.669 1.497 2.579 4.024 4.523 6.467 6.395l1.404 1.04c2.828 2.225 6.177 5.334 6.894 9.587.084.505.115 1.017.094 1.528a6.42 6.42 0 0 1-4.16 5.782 7.005 7.005 0 0 1-7.518-1.612c-1.83-1.861-2.87-2.163-3.181-2.08-.312.083-.666.791-.78 2.381-.25 3.359-1.04 10.16-2.132 18.655a1.037 1.037 0 0 1-1.019.863ZM201.94 172.573a.887.887 0 0 1-.396-.083 1.046 1.046 0 0 1-.561-1.363c.319-.776.566-1.58.738-2.402a1.05 1.05 0 0 1 .452-.673 1.05 1.05 0 0 1 .798-.144 1.032 1.032 0 0 1 .778 1.275 16.32 16.32 0 0 1-.842 2.755 1.038 1.038 0 0 1-.967.635ZM192.716 175.484a1.039 1.039 0 0 1-.759-.333 13.755 13.755 0 0 1-1.331-1.684 13.22 13.22 0 0 1-1.497-4.294 1.066 1.066 0 0 1 .816-1.264 1.066 1.066 0 0 1 1.264.816c.196 1.251.6 2.46 1.195 3.577.339.505.715.985 1.123 1.435a1.04 1.04 0 0 1 0 1.466 1.026 1.026 0 0 1-.811.281Z" fill="#1351AA"/><path d="M174.072 178.52a6.71 6.71 0 0 1-5.199-2.162c-3.712-4.16-2.516-13.196-1.466-21.181.156-1.217.312-2.402.437-3.505a.075.075 0 0 0-.028-.06.077.077 0 0 0-.032-.014.066.066 0 0 0-.034.002c-.437 1.164-.873 2.36-1.32 3.587-3.494 9.66-6.011 16.076-8.995 17.074a6.24 6.24 0 0 1-5.761-.718 8.803 8.803 0 0 1-3.306-7.206c-.03-2.699.274-5.392.904-8.017 1.238-5.947 3.12-14.921 1.456-51.45l-3.421-75.096a1.04 1.04 0 0 1 2.08 0l3.369 75.096c1.653 36.789-.239 45.918-1.487 51.991a30.383 30.383 0 0 0-.863 7.58 6.783 6.783 0 0 0 2.423 5.532 4.151 4.151 0 0 0 3.909.437c2.246-.749 5.522-9.816 7.695-15.805.458-1.238.884-2.444 1.31-3.567a2.142 2.142 0 0 1 3.918-.583c.293.488.379 1.071.242 1.623a147.957 147.957 0 0 1-.448 3.535c-.946 7.165-2.079 16.086.957 19.528a4.717 4.717 0 0 0 3.858 1.466c3.119-.062 4.96-7.902 6.613-14.817.79-3.286 1.601-6.676 2.568-9.421a3.02 3.02 0 0 1 5.039-1.078 3.02 3.02 0 0 1 .816 1.847c.062.968.145 2.007.239 3.12a1.044 1.044 0 1 1-2.08.166c-.083-1.04-.166-2.079-.239-3.119a.893.893 0 0 0-.801-.863.912.912 0 0 0-1.039.634c-.926 2.652-1.727 5.989-2.496 9.213-2.007 8.402-3.91 16.325-8.61 16.419l-.208-.188ZM109.01 284.676a6.5 6.5 0 0 1-4.377-1.768c-6.447-4.357-18.374-12.426-19.279-19.757a6.694 6.694 0 0 1 1.737-5.438c3.047-4.575 12.145-18.207 19.902-19.184a6.485 6.485 0 0 1 5.366 1.715c1.497 1.373 3.452 2.922 5.542 4.555 6.176 4.856 13.185 10.398 13.642 15.711a6.375 6.375 0 0 1-1.747 4.95c-1.466 1.612-3.057 3.639-4.741 5.781-4.794 6.083-10.211 12.988-15.473 13.445l-.572-.01Zm-1.039-44.141a4.787 4.787 0 0 0-.656 0c-4.544.583-10.762 6.749-18.488 18.343a.448.448 0 0 1-.083.114 4.682 4.682 0 0 0-1.268 3.858c.79 6.416 12.706 14.464 18.436 18.332l.104.094a4.418 4.418 0 0 0 3.431 1.258c4.357-.375 9.483-6.894 14.007-12.655 1.715-2.173 3.327-4.222 4.845-5.885a4.313 4.313 0 0 0 1.227-3.369c-.385-4.461-7.279-9.899-12.863-14.267-2.079-1.663-4.159-3.223-5.656-4.648a4.412 4.412 0 0 0-3.088-1.175h.052Z" fill="#1351AA"/><path d="M119.554 291.195c-.258 0-.506-.097-.697-.27l-7.933-7.123a1.04 1.04 0 0 1 1.383-1.549l7.944 7.133a1.038 1.038 0 0 1-.697 1.809ZM137.481 271.21a1.044 1.044 0 0 1-.697-.27l-7.279-6.624a1.04 1.04 0 0 1 1.394-1.539l7.278 6.624a1.033 1.033 0 0 1 .345.723 1.042 1.042 0 0 1-.621 1.001 1.048 1.048 0 0 1-.42.085ZM85.78 262.382a1.043 1.043 0 0 1-.696-.27l-6.582-5.896a1.043 1.043 0 0 1 .642-1.815 1.04 1.04 0 0 1 .751.266l6.572 5.895a1.038 1.038 0 0 1 .292 1.126 1.046 1.046 0 0 1-.557.604c-.133.059-.276.09-.421.09ZM105.236 241.086a1.036 1.036 0 0 1-.645-.228l-7.84-6.166a1.042 1.042 0 0 1 .537-1.796c.259-.041.524.017.742.163l7.851 6.145a1.036 1.036 0 0 1 .388.699 1.051 1.051 0 0 1-.222.768 1.041 1.041 0 0 1-.811.415ZM224.753 276.139a1.043 1.043 0 0 1-.572-.177 1.049 1.049 0 0 1-.446-.662 1.033 1.033 0 0 1 .155-.783c3.12-4.679 9.359-11.251 15.993-18.218 7.279-7.632 14.776-15.524 19.122-21.888a1.043 1.043 0 1 1 1.726 1.175c-4.45 6.499-12.02 14.453-19.341 22.148-6.55 6.894-12.748 13.403-15.774 17.937a1.034 1.034 0 0 1-.863.468ZM246.486 295.292a1.034 1.034 0 0 1-.972-.673 1.04 1.04 0 0 1 .285-1.146 403.966 403.966 0 0 0 37.632-37.247 1.037 1.037 0 0 1 1.503-.125 1.051 1.051 0 0 1 .347.744 1.037 1.037 0 0 1-.301.764 405.402 405.402 0 0 1-37.818 37.434 1.043 1.043 0 0 1-.676.249ZM45.227 177.117c-.11.016-.222.016-.332 0a1.048 1.048 0 0 1-.602-.524 1.044 1.044 0 0 1-.053-.797c5.823-17.24 14.266-45.492 15.056-50.379a1.054 1.054 0 1 1 2.08.333c-.822 5.064-9.171 33.035-15.14 50.712a1.043 1.043 0 0 1-1.008.655ZM73.802 184.728h-.26a1.04 1.04 0 0 1-.749-1.237c.187-.759 5.355-14.703 12.624-34.314a8477.676 8477.676 0 0 0 6.166-16.637 1.04 1.04 0 0 1 1.31-.666 1.04 1.04 0 0 1 .676 1.3c-.146.457-2.34 6.374-6.239 16.783-5.2 13.964-12.28 33.108-12.561 34.085a1.037 1.037 0 0 1-.967.686ZM178.637 61.198c-9.494 0-18.987-.343-28.387-1.04a1.044 1.044 0 0 1-.967-1.113 1.034 1.034 0 0 1 .356-.714 1.037 1.037 0 0 1 .756-.253 389.17 389.17 0 0 0 52.584.26 1.04 1.04 0 0 1 .851 1.727c-.182.208-.44.335-.715.353-8.132.52-16.291.78-24.478.78ZM273.823 172.271a20.277 20.277 0 1 1 20.266-20.266 20.296 20.296 0 0 1-20.266 20.266Zm0-38.473a18.2 18.2 0 0 0-16.82 11.226 18.202 18.202 0 0 0 3.938 19.834 18.2 18.2 0 0 0 28.001-2.753c2-2.992 3.067-6.511 3.067-10.11a18.217 18.217 0 0 0-18.186-18.187v-.01Z" fill="#1351AA"/><path d="M274.478 182.877a1.035 1.035 0 0 1-.988-.707 106.281 106.281 0 0 0-4.097-10.398 1.039 1.039 0 1 1 1.892-.863 107.387 107.387 0 0 1 4.16 10.648 1.038 1.038 0 0 1-.655 1.31.909.909 0 0 1-.312.01ZM299.434 171.689a1.043 1.043 0 0 1-.957-.634c0-.115-4.534-10.731-6.728-14.641a1.044 1.044 0 1 1 1.81-1.04c2.256 4.014 6.654 14.402 6.831 14.849a1.039 1.039 0 0 1-.551 1.362 1.138 1.138 0 0 1-.405.104ZM255.335 147.752a1.04 1.04 0 0 1-1.04-.769 66.223 66.223 0 0 0-2.35-6.468 69.91 69.91 0 0 1-2.423-6.707 1.04 1.04 0 0 1 2.007-.53 68.781 68.781 0 0 0 2.35 6.468 70.329 70.329 0 0 1 2.433 6.706 1.05 1.05 0 0 1-.111.79 1.048 1.048 0 0 1-.638.479 1.098 1.098 0 0 1-.228.031ZM285.552 137.583a1.05 1.05 0 0 1-.52-.135 6.325 6.325 0 0 1-2.402-3.359l-5.199-12.956a1.036 1.036 0 0 1-.032-.825 1.033 1.033 0 0 1 .579-.588c.132-.053.273-.079.415-.076a1.03 1.03 0 0 1 .962.709l5.199 12.956c.247.92.779 1.739 1.518 2.34a1.037 1.037 0 0 1 .106 1.716 1.043 1.043 0 0 1-.626.218ZM254.378 105.587h-2.87a3.41 3.41 0 0 1-3.359-2.828l-.395-2.215a1.37 1.37 0 0 0-.842-1.04 1.404 1.404 0 0 0-1.352.105l-1.84 1.299a3.426 3.426 0 0 1-4.378-.384l-2.08-2.08a3.412 3.412 0 0 1-.384-4.378l1.289-1.84a1.459 1.459 0 0 0 .11-1.338 1.462 1.462 0 0 0-1.025-.867l-2.215-.384a3.41 3.41 0 0 1-2.766-3.286v-2.88a3.413 3.413 0 0 1 2.818-3.36l2.215-.394a1.347 1.347 0 0 0 1.04-.843 1.396 1.396 0 0 0-.104-1.362l-1.29-1.84a3.405 3.405 0 0 1 .385-4.367l2.08-2.08a3.398 3.398 0 0 1 4.367-.385l1.851 1.29a1.452 1.452 0 0 0 1.889-.298c.149-.178.254-.39.305-.617l.395-2.215a3.41 3.41 0 0 1 3.359-2.818h2.87A3.41 3.41 0 0 1 257.82 67l.384 2.215a1.358 1.358 0 0 0 .853 1.04 1.384 1.384 0 0 0 1.352-.105l1.84-1.289a3.41 3.41 0 0 1 4.378.385l2.08 2.08a3.41 3.41 0 0 1 .384 4.367l-1.289 1.85a1.348 1.348 0 0 0-.125 1.321 1.37 1.37 0 0 0 1.04.874l2.215.395a3.422 3.422 0 0 1 2.828 3.358v2.86a3.417 3.417 0 0 1-2.828 3.369l-2.215.385a1.45 1.45 0 0 0-1.025.867 1.452 1.452 0 0 0 .12 1.337l1.29 1.84a3.418 3.418 0 0 1-.385 4.378l-2.08 2.08a3.417 3.417 0 0 1-4.377.384l-1.841-1.3a1.467 1.467 0 0 0-2.204.916l-.385 2.215a3.409 3.409 0 0 1-3.452 2.765Zm-8.069-8.318c.471.002.938.097 1.372.28a3.437 3.437 0 0 1 2.08 2.59l.395 2.215a1.34 1.34 0 0 0 1.31 1.102h2.87a1.342 1.342 0 0 0 1.321-1.102l.385-2.215a3.545 3.545 0 0 1 5.469-2.205l1.841 1.29a1.308 1.308 0 0 0 1.705-.156l2.08-2.08a1.335 1.335 0 0 0 .145-1.705l-1.289-1.84a3.545 3.545 0 0 1 2.256-5.45l2.215-.384a1.341 1.341 0 0 0 1.081-1.258v-2.88a1.342 1.342 0 0 0-1.102-1.28l-2.215-.395a3.539 3.539 0 0 1-2.838-3.817c.058-.58.257-1.137.582-1.62l1.289-1.841a1.339 1.339 0 0 0-.145-1.716l-2.08-2.028a1.33 1.33 0 0 0-1.705-.145l-1.82 1.258a3.546 3.546 0 0 1-5.449-2.257l-.384-2.214a1.339 1.339 0 0 0-1.321-1.102h-2.87a1.344 1.344 0 0 0-1.31 1.102l-.395 2.215a3.534 3.534 0 0 1-5.438 2.256l-1.841-1.29a1.34 1.34 0 0 0-1.716.146l-2.079 2.028a1.342 1.342 0 0 0-.146 1.716l1.29 1.84a3.536 3.536 0 0 1-2.257 5.438l-2.215.395a1.342 1.342 0 0 0-1.102 1.31v2.88a1.34 1.34 0 0 0 1.102 1.321l2.215.385a3.546 3.546 0 0 1 2.257 5.449l-1.217 1.83a1.334 1.334 0 0 0 .146 1.705l2.079 2.08a1.33 1.33 0 0 0 1.716.156l1.84-1.29a3.371 3.371 0 0 1 1.893-.665v-.052Zm6.634-4.648a7.766 7.766 0 0 1-5.492-13.26 7.765 7.765 0 0 1 11.95 1.177 7.764 7.764 0 0 1 1.309 4.316 7.764 7.764 0 0 1-2.259 5.522 7.784 7.784 0 0 1-5.508 2.297v-.052Zm0-13.445a5.688 5.688 0 1 0 5.688 5.677 5.69 5.69 0 0 0-5.688-5.625v-.052ZM316.819 221.226h-.197l-12.665-2.36a1.038 1.038 0 0 1-.828-.81 1.033 1.033 0 0 1-.004-.407 7.796 7.796 0 0 0-1.633-6.021 15.169 15.169 0 0 1-.882-17.13 15.167 15.167 0 0 1 23.619-2.853 15.165 15.165 0 0 1 3.221 16.848 15.174 15.174 0 0 1-5.868 6.796 7.974 7.974 0 0 0-3.743 5.063c-.04.243-.164.464-.35.624a1.048 1.048 0 0 1-.67.25Zm-11.521-4.243 10.752 1.997a10.395 10.395 0 0 1 4.44-5.438 12.863 12.863 0 0 0 5.937-8.662 12.993 12.993 0 0 0-2.911-10.887 13.29 13.29 0 0 0-10.398-4.606 13.057 13.057 0 0 0-12.605 14.381 13.06 13.06 0 0 0 2.591 6.571 10.223 10.223 0 0 1 2.194 6.644Z" fill="#1351AA"/><path d="M313.346 228.401a3.827 3.827 0 0 1-.675-.063l-7.602-1.414a3.641 3.641 0 0 1-2.89-4.222l.946-5.074a1.043 1.043 0 0 1 .81-.828 1.052 1.052 0 0 1 .784.147 1.04 1.04 0 0 1 .454 1.066l-.946 5.064a1.539 1.539 0 0 0 1.227 1.799l7.601 1.414a1.552 1.552 0 0 0 1.799-1.227l.936-5.064a1.055 1.055 0 0 1 1.227-.853 1.06 1.06 0 0 1 .853 1.227l-.947 5.075a3.575 3.575 0 0 1-1.507 2.318 3.63 3.63 0 0 1-2.07.635Z" fill="#1351AA"/><path d="M310.612 219.333h-.188a1.038 1.038 0 0 1-.831-1.206l2.007-10.751c.025-.137.077-.267.152-.384a1.064 1.064 0 0 1 1.08-.464 1.052 1.052 0 0 1 .679.441 1.067 1.067 0 0 1 .168.791l-1.996 10.742a1.04 1.04 0 0 1-1.071.831Z" fill="#1351AA"/><path d="M313.024 208.623a3.619 3.619 0 1 1 3.556-2.963 3.62 3.62 0 0 1-3.556 2.963Zm0-5.199a1.534 1.534 0 0 0-1.39.889 1.54 1.54 0 0 0 2.522 1.698 1.536 1.536 0 0 0 .138-1.922 1.549 1.549 0 0 0-.989-.644l-.281-.021ZM159.4 320.487a1.03 1.03 0 0 1-.738-.312 1.034 1.034 0 0 1-.281-.936l2.61-13.029a1.05 1.05 0 0 1 .291-.53l21.837-21.836a6.229 6.229 0 0 1 4.419-1.835 6.242 6.242 0 0 1 4.419 1.835l3.047 3.047a6.229 6.229 0 0 1 1.835 4.419 6.233 6.233 0 0 1-1.835 4.419l-21.836 21.836c-.146.144-.33.242-.531.281l-13.029 2.62-.208.021Zm3.577-13.517-2.246 11.188 11.199-2.256 21.608-21.618a4.165 4.165 0 0 0 0-5.886l-3.047-3.057a4.153 4.153 0 0 0-2.948-1.225 4.164 4.164 0 0 0-2.948 1.225l-21.618 21.629Z" fill="#1351AA"/><path d="m160.284 315.07-.884 4.377 4.378-.883-3.494-3.494Z" fill="#1351AA"/><path d="M159.4 320.487a1.03 1.03 0 0 1-.738-.312 1.034 1.034 0 0 1-.281-.936l.884-4.377a1.04 1.04 0 0 1 1.747-.531l3.504 3.494a1.036 1.036 0 0 1 .263 1.038 1.042 1.042 0 0 1-.793.72l-4.378.883-.208.021Zm1.518-3.317-.187.946.947-.187-.76-.759ZM172.44 317.856a1.036 1.036 0 0 1-.739-.301l-10.398-10.398a1.056 1.056 0 0 1-.26-.337 1.051 1.051 0 0 1 .201-1.188 1.037 1.037 0 0 1 1.525.059l10.399 10.398a1.037 1.037 0 0 1 .227 1.138c-.053.127-.13.242-.227.338a1.037 1.037 0 0 1-.728.291ZM190.803 299.41a1.03 1.03 0 0 1-.738-.302l-9.816-9.805a1.043 1.043 0 0 1-.23-1.133 1.037 1.037 0 0 1 .561-.565 1.048 1.048 0 0 1 .797-.003c.126.052.241.128.338.224l9.816 9.806c.097.097.175.212.228.338.052.127.08.263.08.4s-.028.273-.08.4a1.04 1.04 0 0 1-.956.64ZM59.068 237.125h-.104a1.044 1.044 0 0 1-.894-.739l-1.83-6.103a13.333 13.333 0 0 1-15.598-9.192 13.333 13.333 0 0 1 8.932-16.637l11.781-3.536a13.33 13.33 0 0 1 7.653 25.538l-4.294 1.31-4.731 8.797a1.04 1.04 0 0 1-.915.562Zm-2.08-9.14c.17.001.336.04.489.114a1.045 1.045 0 0 1 .51.624l1.392 4.658 3.754-6.977c.131-.24.351-.42.614-.499l4.72-1.414A11.252 11.252 0 1 0 62 202.946l-11.771 3.535a11.238 11.238 0 0 0-8.004 9.628 11.242 11.242 0 0 0 .413 4.379 11.272 11.272 0 0 0 14.028 7.497c.09-.027.185-.041.28-.042l.042.042Z" fill="#1351AA"/><path d="M51.206 216.328a1.05 1.05 0 1 1-.301-2.079l15.816-4.742a1.042 1.042 0 0 1 .592 1.997l-15.847 4.824a.943.943 0 0 1-.26 0ZM52.818 221.725a1.05 1.05 0 1 1-.301-2.08l10.044-3.005c.131-.04.27-.053.406-.04a1.046 1.046 0 0 1 .703.377 1.039 1.039 0 0 1-.506 1.649l-10.044 3.016a1.02 1.02 0 0 1-.302.083ZM112.816 108.187c-.083.01-.167.01-.249 0l-28.96-7.081a1.042 1.042 0 0 1-.759-1.248l6.572-27.025a1.04 1.04 0 0 1 1.248-.759l28.917 7.04a1.04 1.04 0 0 1 .77 1.248l-6.572 27.035a1.034 1.034 0 0 1-.468.644 1.095 1.095 0 0 1-.499.146Zm-27.66-8.838 26.891 6.54 6.083-24.956-26.942-6.56-6.031 24.976Z" fill="#1351AA"/><path d="M99.007 83.658a3.681 3.681 0 0 1-.946-.115 3.972 3.972 0 0 1-3.005-4.367 1.858 1.858 0 0 1 0-.229v-.208a1.069 1.069 0 0 1 2.08.489 1.903 1.903 0 0 0 3.389 1.57c.152-.205.262-.438.323-.686l1.04-4.315a1.903 1.903 0 1 0-3.63-.884 1.04 1.04 0 0 1-1.258.78 1.04 1.04 0 0 1-.821-1.227 3.983 3.983 0 1 1 7.736 1.871l-1.04 4.316a3.991 3.991 0 0 1-3.857 3.036l-.01-.031ZM103.458 96.978a1.045 1.045 0 0 1-.843-.426l-4.159-5.73-7.383 4.627a1.04 1.04 0 0 1-1.435-.322 1.04 1.04 0 0 1 .302-1.435l8.194-5.2a1.04 1.04 0 0 1 1.393.26l4.159 5.72 7.383-4.846a1.04 1.04 0 1 1 1.144 1.737l-8.215 5.396a1.036 1.036 0 0 1-.54.219Z" fill="#1351AA"/><g opacity=".3" fill="#1351AA"><path opacity=".3" d="M101.836 258.254a1.042 1.042 0 0 1-.736-1.775c.195-.195.46-.305.736-.305l19.559-.333a1.041 1.041 0 0 1 0 2.08l-19.57.333h.011ZM107.045 267.903a97.247 97.247 0 0 1-12.478-.665 1.052 1.052 0 0 1-.863-1.217 1.056 1.056 0 0 1 1.217-.863c4.318.486 8.663.702 13.008.645a1.04 1.04 0 0 1 0 2.08l-.884.02ZM273.823 166.646a14.642 14.642 0 0 1-14.36-17.497 14.643 14.643 0 0 1 26.533-5.278 14.638 14.638 0 0 1 2.467 8.134 14.66 14.66 0 0 1-14.64 14.641Zm0-27.202a12.564 12.564 0 0 0-12.32 15.012 12.564 12.564 0 0 0 17.127 9.154 12.566 12.566 0 0 0 7.754-11.605 12.574 12.574 0 0 0-12.561-12.561Z"/><path opacity=".3" d="M271.722 161.977a.956.956 0 0 1-.239 0 1.041 1.041 0 0 1-.769-1.248l2.079-8.932a1.037 1.037 0 0 1 1.04-.801h6.031a1.04 1.04 0 0 1 0 2.08h-5.199l-1.934 8.142a1.045 1.045 0 0 1-1.009.759ZM230.94 280.797a1.04 1.04 0 0 1-.728-.312 1.042 1.042 0 0 1 0-1.466c8.475-8.412 17.521-16.481 26.277-24.29a1.04 1.04 0 1 1 1.383 1.549c-8.735 7.788-17.76 15.847-26.193 24.218a1.058 1.058 0 0 1-.739.301ZM249.376 276.513a1.033 1.033 0 0 1-.972-.654 1.035 1.035 0 0 1 .255-1.145c.229-.208 22.356-21.098 25.819-25.07a1.04 1.04 0 0 1 1.718.218 1.044 1.044 0 0 1 .056.8 1.041 1.041 0 0 1-.204.355c-3.536 4.034-25.05 24.342-25.996 25.205-.182.176-.422.28-.676.291ZM53.328 179.602a1.032 1.032 0 0 1-.935-.576 1.04 1.04 0 0 1-.053-.797c2.849-8.526 5.677-17.049 8.485-25.569a6479.26 6479.26 0 0 1 8.454-25.475 1.042 1.042 0 0 1 1.918-.14c.123.247.144.533.057.795a5217.018 5217.018 0 0 0-8.454 25.475 4779.908 4779.908 0 0 1-8.495 25.58 1.042 1.042 0 0 1-.977.707ZM65.618 182.565a1.032 1.032 0 0 1-.935-.576 1.036 1.036 0 0 1-.052-.796 6005.615 6005.615 0 0 0 8.38-25.268 8134.392 8134.392 0 0 1 8.382-25.247 1.043 1.043 0 0 1 1.975.666 6503.556 6503.556 0 0 0-8.38 25.236 9118.758 9118.758 0 0 1-8.382 25.268 1.043 1.043 0 0 1-.987.717ZM162.353 77.71h-.166a1.045 1.045 0 0 1-.68-.418 1.036 1.036 0 0 1-.183-.778c.447-2.679.614-5.397.499-8.11a1.04 1.04 0 0 1 1.742-.816c.204.187.325.446.338.722a42.76 42.76 0 0 1-.52 8.547 1.037 1.037 0 0 1-1.03.853ZM175.029 89.106h-.166a1.041 1.041 0 0 1-.864-1.185c.458-2.806.521-5.662.188-8.485a1.037 1.037 0 0 1 .22-.77 1.04 1.04 0 0 1 1.107-.356 1.048 1.048 0 0 1 .752.887c.345 3.01.279 6.054-.197 9.046a1.038 1.038 0 0 1-1.04.863ZM164.152 104.028h-.104a1.043 1.043 0 0 1-.936-1.134l.541-5.698a1.05 1.05 0 0 1 .733-.9 1.047 1.047 0 0 1 1.306.692c.04.131.054.27.041.406l-.541 5.698a1.043 1.043 0 0 1-1.04.936ZM189.638 109.32a1.04 1.04 0 0 1-1.039-1.039v-9.213a1.04 1.04 0 1 1 2.079 0v9.213a1.04 1.04 0 0 1-1.04 1.039ZM191.396 76.4h-.094a1.03 1.03 0 0 1-.709-.37 1.044 1.044 0 0 1-.237-.764l.53-5.698a1.043 1.043 0 1 1 2.08.187l-.53 5.699a1.04 1.04 0 0 1-1.04.946Z"/></g><path d="M134.455 83.678a1.04 1.04 0 0 1-1.04-.727 120.328 120.328 0 0 0-15.597-32.474l-.146-.208c-1.372-2.017-2.787-4.097-3.119-6.634a6.528 6.528 0 0 1 1.362-4.731 4.542 4.542 0 0 1 3.119-1.758 6.528 6.528 0 0 1 4.627 1.695c2.912 2.246 5.335 5.46 7.612 10.128 4.544 9.286 4.742 23.469 4.159 33.742a1.039 1.039 0 0 1-.915.968h-.062Zm-14.849-44.473h-.249a2.536 2.536 0 0 0-1.695 1.04 4.448 4.448 0 0 0-.905 3.203c.218 2.017 1.487 3.878 2.714 5.677l.146.208a121.887 121.887 0 0 1 13.996 27.587c.187-9.12-.562-19.757-4.16-27.036-2.079-4.367-4.357-7.351-7.008-9.358a5.055 5.055 0 0 0-2.839-1.32ZM54.763 112.544a11.64 11.64 0 0 1-3.473-.499 8.64 8.64 0 0 1-5.127-4.326 5.997 5.997 0 0 1-.332-4.783c1.143-3.026 4.564-4.399 7.445-4.43h.083c6.488 0 14.953 6.125 19.08 10.253a1.038 1.038 0 0 1-.356 1.718c-.22.083-.46.089-.683.018-3.068-.863-6.489 0-9.515.832a28.427 28.427 0 0 1-7.122 1.217Zm-1.404-11.958h-.063c-2.173 0-4.73.977-5.521 3.119a3.946 3.946 0 0 0 .26 3.12 6.629 6.629 0 0 0 3.858 3.255c2.87.873 5.99.176 9.483-.739a29.252 29.252 0 0 1 7.206-1.258c-4.16-3.515-10.45-7.497-15.223-7.497ZM137.117 311.243a5.563 5.563 0 0 1-3.785-1.58 5.264 5.264 0 0 1-.562-7.279 58.97 58.97 0 0 1 5.823-5.761 65.993 65.993 0 0 0 9.442-9.92 1.042 1.042 0 0 1 1.872.401c.051.269-.005.547-.156.774a32.554 32.554 0 0 0-2.08 6.167c-1.601 5.656-3.587 12.685-7.206 15.898a4.957 4.957 0 0 1-3.348 1.3Zm8.838-18.831c-1.965 2.08-4.034 3.962-5.968 5.719a57.949 57.949 0 0 0-5.605 5.542 3.203 3.203 0 0 0 .395 4.492 3.022 3.022 0 0 0 3.28.815 3.023 3.023 0 0 0 1.015-.617c3.119-2.818 5.199-9.806 6.582-14.911.104-.354.197-.707.301-1.04ZM26.303 196.572a30.993 30.993 0 0 1-7.28-.77c-3.784-.915-5.073-3.119-5.021-4.804.072-2.318 2.256-4.159 5.573-4.783 9.629-1.695 27.982 5.324 34.231 8.163a1.036 1.036 0 0 1 .54 1.32 1.04 1.04 0 0 1-1.278.624c-5.49-1.736-11.23-1.112-17.313-.436a87.623 87.623 0 0 1-9.452.686Zm-3.4-8.537a16.943 16.943 0 0 0-2.933.229c-2.61.488-3.858 1.799-3.858 2.818 0 1.019 1.28 2.194 3.432 2.713 5.136 1.238 10.668.624 16.013 0a83.163 83.163 0 0 1 9.67-.655c-7.278-2.641-16.158-5.084-22.325-5.084v-.021ZM219.284 300.086h-.146c-3.244-.114-4.523-2.756-8.318-10.585a533.798 533.798 0 0 0-2.361-4.867 1.04 1.04 0 0 1 .747-1.489c.212-.037.431-.007.626.085l1.04.479c4.159 1.913 12.03 5.48 12.852 10.398a5.473 5.473 0 0 1-1.3 4.419 4.153 4.153 0 0 1-3.14 1.56Zm-7.684-13.747c.395.791.748 1.55 1.091 2.257 3.567 7.403 4.576 9.358 6.489 9.41a2.132 2.132 0 0 0 1.684-.811 3.394 3.394 0 0 0 .811-2.703c-.519-3.297-6.332-6.416-10.075-8.153ZM275.029 108.187a1.036 1.036 0 0 1-1.012-.771 1.044 1.044 0 0 1 .492-1.173 97.387 97.387 0 0 0 22.72-18.301l.135-.146a12.485 12.485 0 0 1 4.752-3.712 5.482 5.482 0 0 1 4.16.208 3.888 3.888 0 0 1 2.079 2.236 5.542 5.542 0 0 1-.488 4.159 22.348 22.348 0 0 1-6.645 7.965c-6.53 5.345-17.739 8.152-25.996 9.556l-.197-.021Zm28.907-22.325a3.348 3.348 0 0 0-1.123.187 10.567 10.567 0 0 0-3.91 3.12l-.145.156a99.374 99.374 0 0 1-18.364 15.67c6.957-1.56 14.652-4.066 19.487-8.028a20.448 20.448 0 0 0 6.062-7.216 3.609 3.609 0 0 0 .416-2.579 1.922 1.922 0 0 0-1.04-1.04 3.433 3.433 0 0 0-1.362-.312l-.021.042ZM307.846 258.254a5.518 5.518 0 0 1-2.34-.52 12.407 12.407 0 0 1-4.357-4.159l-.125-.167a97.47 97.47 0 0 0-20.796-20.443 1.042 1.042 0 0 1 .884-1.85c8.069 2.225 18.945 6.124 24.956 12.082a22.564 22.564 0 0 1 5.823 8.589 5.46 5.46 0 0 1 .072 4.16 3.848 3.848 0 0 1-.952 1.223c-.396.34-.858.596-1.356.752a5.296 5.296 0 0 1-1.809.333Zm-21.837-23.51a99.697 99.697 0 0 1 16.721 17.417l.125.166a10.69 10.69 0 0 0 3.577 3.525 3.493 3.493 0 0 0 2.547.135 1.858 1.858 0 0 0 1.102-.936 3.592 3.592 0 0 0-.156-2.599 20.558 20.558 0 0 0-5.324-7.789c-4.46-4.419-11.895-7.673-18.633-9.919h.041ZM53.816 261.103a3.229 3.229 0 0 1-.8-.104 3.117 3.117 0 0 1-2.433-2.984c.124-2.693 6.384-8.371 10.543-10.19a1.041 1.041 0 0 1 1.165.228 1.04 1.04 0 0 1 .187 1.175l-3.608 7.477c-1.788 3.701-3.795 4.398-5.054 4.398Zm5.324-9.733c-3.337 2.33-6.436 5.771-6.478 6.738a1.135 1.135 0 0 0 .884.853c1.04.27 2.36-.915 3.463-3.182l2.131-4.409ZM332.219 178.999h-.468c-1.039-.063-2.194-.094-3.296-.135a67.71 67.71 0 0 1-8.318-.645 1.044 1.044 0 0 1-.822-.718 1.036 1.036 0 0 1 .27-1.039c2.361-2.288 11.667-4.274 15.161-2.725a2.549 2.549 0 0 1 1.487 3.464 2.47 2.47 0 0 1-.593.8 5.198 5.198 0 0 1-3.421.998Zm-8.453-2.475c1.58.125 3.181.187 4.762.239 1.123 0 2.246.083 3.348.146a3.656 3.656 0 0 0 2.35-.489.364.364 0 0 0 .146-.301c0-.104 0-.302-.489-.52-1.965-.863-6.863-.188-10.149.925h.032ZM218.618 92.787a1.04 1.04 0 0 1-.811-.384c-4.325-5.418-4.835-10.94-3.494-13.768.687-1.445 1.633-1.663 2.08-1.663a2.274 2.274 0 0 1 2.08 1.528c1.341 2.683 1.216 5.636 1.092 8.496a26.078 26.078 0 0 0 .052 4.616 1.046 1.046 0 0 1-.624 1.04.95.95 0 0 1-.375.135Zm-2.162-13.715a2.793 2.793 0 0 0-.552 1.31 11.77 11.77 0 0 0 1.56 7.716c0-.416 0-.832.052-1.238.115-2.714.229-5.272-.863-7.476a2.514 2.514 0 0 0-.197-.312ZM165.847 288.939a1.04 1.04 0 0 1-.582-1.892l9.681-6.562a1.04 1.04 0 0 1 1.45.276 1.041 1.041 0 0 1-.275 1.45l-9.691 6.551a1.044 1.044 0 0 1-.583.177ZM175.518 325h-8.517a1.041 1.041 0 0 1 0-2.08h8.517a1.041 1.041 0 0 1 0 2.08ZM324.244 228.598a1.036 1.036 0 0 1-1.04-.811c-.728-3.234 1.653-4.949 3.962-6.613 2.651-1.913 5.396-3.889 4.689-8.485a1.053 1.053 0 0 1 2.08-.322c.915 5.854-2.652 8.422-5.521 10.491-2.288 1.643-3.557 2.673-3.12 4.472a1.04 1.04 0 0 1-.79 1.237.846.846 0 0 1-.26.031ZM238.24 109.227a7.647 7.647 0 0 1-7.217-5.532 1.045 1.045 0 0 1 .754-1.209 1.038 1.038 0 0 1 1.253.679 5.56 5.56 0 0 0 5.491 3.982 1.044 1.044 0 0 1 .999.584 1.037 1.037 0 0 1 .047.799 1.029 1.029 0 0 1-.535.597c-.125.059-.26.093-.397.1h-.395ZM270.526 68.84h-.114a1.042 1.042 0 0 1-.915-1.154 7.52 7.52 0 0 0-6.624-7.986 1.042 1.042 0 0 1-.967-1.102 1.055 1.055 0 0 1 .356-.715 1.033 1.033 0 0 1 .757-.252 9.576 9.576 0 0 1 8.537 10.294 1.041 1.041 0 0 1-1.03.915ZM238.229 131.271a1.05 1.05 0 0 1-1.001-1.665c.166-.224.414-.373.69-.415l8.88-2.765a1.037 1.037 0 0 1 1.11.324 1.054 1.054 0 0 1 .238.76 1.04 1.04 0 0 1-.724.902l-8.881 2.766a1.051 1.051 0 0 1-.312.093ZM267.22 220.488a1.185 1.185 0 0 1-.489-.115l-6.582-3.473a1.038 1.038 0 0 1-.415-1.392 1.037 1.037 0 0 1 1.382-.448l6.582 3.473a1.037 1.037 0 0 1 .154 1.728c-.18.144-.402.223-.632.227ZM270.61 197.029a1.047 1.047 0 0 1-1.196-.884 1.048 1.048 0 0 1 .884-1.195 252.598 252.598 0 0 0 15.223-5.199 1.028 1.028 0 0 1 .795.023 1.034 1.034 0 0 1 .546.58 1.036 1.036 0 0 1-.603 1.341 243.488 243.488 0 0 1-15.348 5.262 1.042 1.042 0 0 1-.301.072ZM131.377 112.211a1.037 1.037 0 0 1-.915-.541 29.31 29.31 0 0 1-3.587-12.841 1.04 1.04 0 1 1 2.079 0 27.16 27.16 0 0 0 3.328 11.937 1.044 1.044 0 0 1-.406 1.414 1.042 1.042 0 0 1-.499.031ZM97.697 121.185a.903.903 0 0 1-.333-.063 38.379 38.379 0 0 1-7.133-3.254 1.041 1.041 0 0 1 .268-1.876 1.04 1.04 0 0 1 .772.077 35.877 35.877 0 0 0 6.738 3.119 1.05 1.05 0 0 1 .873 1.207 1.054 1.054 0 0 1-1.206.873l.021-.083ZM84.606 213.562h-.084a1.04 1.04 0 0 1-.956-1.112 14.556 14.556 0 0 0-6.24-12.863 1.044 1.044 0 1 1 1.176-1.726 16.45 16.45 0 0 1 7.123 14.745 1.041 1.041 0 0 1-1.02.956ZM47.089 238.227c-.08.01-.16.01-.24 0a11.998 11.998 0 0 1-6.103-3.577 1.042 1.042 0 0 1 1.539-1.404 9.842 9.842 0 0 0 5.022 2.922 1.043 1.043 0 0 1 .926 1.154 1.045 1.045 0 0 1-1.155.926l.01-.021ZM86.82 232.404a1.037 1.037 0 0 1-1.004-.742 1.04 1.04 0 0 1 .433-1.171 30.868 30.868 0 0 0 7.736-7.279 1.041 1.041 0 0 1 1.865.486c.038.274-.035.552-.201.772a33.121 33.121 0 0 1-8.257 7.716 1.045 1.045 0 0 1-.572.218ZM96.064 65.762a.813.813 0 0 1-.27 0c-.8-.208-7.82-2.08-9.098-2.64a1.04 1.04 0 0 1 .863-1.893c.842.374 5.708 1.715 8.766 2.526a1.049 1.049 0 0 1-.26 2.08v-.073Z" fill="#E44F89"/></svg>
