<svg width="350" height="350" viewBox="0 0 350 350" fill="none" xmlns="http://www.w3.org/2000/svg"><path d="M285.832 100.273c-8.077-4.544-17.087 15.786-17.087 15.786 1.816-.301 24.33-11.728 17.087-15.786ZM320.764 259.107c3.67-8.514-17.475-15.34-17.475-15.34.475 1.767 14.194 22.981 17.475 15.34ZM159.134 67.36c-3.719-4.941-7.602-10.378-7.583-16.563.097-14.145 15.631-18.252 9.622 3.418-1.175 4.242-2.039 13.145-2.039 13.145M98.64 130.729c-5.758-5.32-14.34-12.116-21.981-13.893a20.818 20.818 0 0 0-9.466-.388 4.445 4.445 0 0 0-2.806 1.611c-.971 1.544-.068 3.748 1.485 4.748 1.554 1 3.486 1.136 5.33 1.301a94.497 94.497 0 0 1 27.437 6.621M232.765 96.137c-2.185-9.155-4.263-22.145-1.641-31.194a25.171 25.171 0 0 1 5.155-10.146 5.34 5.34 0 0 1 3.34-1.99c2.214-.155 3.971 2.136 4.107 4.35.136 2.213-.816 4.32-1.787 6.34a113.8 113.8 0 0 0-9.184 32.64M56.397 246.952c-5.398 3.417-12.185 4.922-16.059 7.029-3.611 1.942-1.145 7.767 2.729 6.388 5.271-1.854 10.893-11.718 13.33-13.417Z" fill="#FC95BF"/><path d="m68.348 110.166-1.165-5.67 12.029-2.602a4.488 4.488 0 0 1 3.386.622 4.488 4.488 0 0 1 1.954 2.835 4.5 4.5 0 0 1 1.854-4.639 4.509 4.509 0 0 1 1.612-.692l12.087-2.553 1.107 5.204-32.864 7.495ZM257.267 83.981l11.413 2.343-1.05 5.117a2.194 2.194 0 0 1-2.591 1.708l-7.085-1.454a2.191 2.191 0 0 1-1.709-2.591l1.051-5.117-.029-.006ZM265.056 74.895a2.534 2.534 0 1 0 0-5.07 2.534 2.534 0 0 0 0 5.07ZM76.892 46.496a8.941 8.941 0 0 0-3.884-1.602 9.155 9.155 0 1 0 6.893 5.03l5.622-4.214 2.02 2.69 5.436-4.069-2.02-2.689 1.806-1.35-2.747-3.64-13.126 9.844ZM74.95 54.41a3.368 3.368 0 1 1-2.855-3.816 3.36 3.36 0 0 1 2.903 3.816h-.048ZM214.074 37.416l-22.043-6.391-7.53 25.969 22.043 6.391 7.53-25.969ZM212.26 274.01a5.393 5.393 0 0 0-1.243 2.272c-.281 1.398-14.408 18.087-13.689 19.33 3.641 6.291 22.068 3.262 35.495 4.796 52.621 6 79.417 20.252 78.475 17.699-1.058-2.913.146-6.136-.126-9.204-1.146-13.019-6.495-25.243-11.767-37.204a27.319 27.319 0 0 0-12.116-12.864c-8.146-4.553-54.631-10.602-75.029 15.175Z" fill="#DCECFF"/><path d="M122.775 253.466c1.301-5.689 7.854-14.126 9.806-16.592 13.436-17.019 25.155-19.505 39.563-19.165 28.562.66 31.572 1.534 42.087 12.165 8.738 8.806 17.427 18.029 22.466 29.35 0 0-35.68 14.737-38.146 38.203h-46.029s-9.378-28.155-32.873-38.291l3.126-5.67Z" fill="#92C4FF"/><path d="M105.047 178.214c-7.64 15.816-18.301 16.884 42.825 29.126 54.796 11 110.873-16.504 100.863-33.359-12.233-20.582-7.631-47.912-18.349-69.359-9.291-18.572-16.505-16.378-20.835-12.495-2.806 2.486-6.592-1.747-12.184-4.621-90.922-46.786-88.31 82.446-92.32 90.708Z" fill="#3884FF"/><path d="M234.172 127.535c-7.32 1.942-11.932 10.796-9.359 17.912 2.359 6.544 9.155 32.379 39.709 18.583 15.038-6.796 17.388 4.582 24.728 8 7.592 3.543 21.582-7.359 16.961 25.495-1.35 9.65-6.058 18.446-8.651 27.873 11.602-1.699 17.796-10.912 20.33-22.33 5.039-22.728 16.923-15.592 12.554-27.951-5.34-15.126 0-11.65-.321-20.912-.66-17.292-26.339-15.719-32.281-16.214-9.262-.777-8.738-5.641-13.971-8.213-5.427-2.661-14.243-.331-19.971-1.486-8.369-1.728-21.776-2.864-29.728-.757Z" fill="#0967D8"/><path d="M238.677 203.816a48.555 48.555 0 0 0 3.33 11.835 74.448 74.448 0 0 0 14.204 22.388 11.398 11.398 0 0 1 2.146 2.816c1.854 3.961-1.486 8.281-2.379 12.573a3.793 3.793 0 0 0 .194 2.601 4.174 4.174 0 0 0 1.728 1.466 31.212 31.212 0 0 0 21.185 3.243 3.643 3.643 0 0 0 2.708-1.563c.3-.841.3-1.76 0-2.602a61.34 61.34 0 0 1-1.407-17.757 3.37 3.37 0 0 1 .466-1.796 3.325 3.325 0 0 1 1.941-1.107c15.311-3.806 18.593-13.029 20.476-23.874 19.67 7.437 21.505-12.038 16.146-14.98a4.383 4.383 0 0 0-2.156-.389 42.89 42.89 0 0 0-9.903 1.146c.253-8.359 1.835-23.903-5.825-27.184-3.825-1.641-8.32 1.077-12.34 0-2.757-.738-4.728-3.117-7.155-4.641-7.582-4.757-17.806-.476-26.32-1.427-8.515-.952-7.612-6.058-14.641 17.602-2.048 6.961-3.378 14.32-2.398 21.65Z" fill="#66A4FF"/><path d="M276.046 204.612c8.359 8.787 28.097 1.126 28.33-10.796.155-8.349-10.311-20.029-20.282-16.815-9.145 2.932-18.184 16.932-8.048 27.611Z" fill="#92C4FF"/><path d="M305.774 198.243a3.485 3.485 0 0 1-2.908-1.195 3.49 3.49 0 0 1-.772-3.047c4.272-19.806-10.475-14.107-15.97-16.563-6.903-3.078-2.865-6.981-20.661-4.806-7.767.971-13.932-.243-21.291-3l3.573-6.796 30.544.563 9.708 7.359 16.641-.078 5.048 9.175-3.883 18.359-.029.029Z" fill="#3884FF"/><path d="M238.114 197.544a16.06 16.06 0 0 0 21.748 1.816s5.543-14.359 5.631-18.767c.165-8.903-8.156-15.922-18.787-12.495-9.796 3.155-19.398 18.068-8.592 29.446Z" fill="#92C4FF"/><path d="M161.415 209.302c-.563 2.456-2.456 6.213-1.611 8.359 2.679 6.796 37.485 10.291 35.873.194-1.883-11.796-7.669-20.786-1.184-25.301 42.427-29.524 18.796-93.543 7.427-81.252-4.66 5.039-6.32 13.243-12.709 15.777-6.388 2.534-13.339-2.35-20.223-2.253-14.971.175-20.252 19.777-34.301 23.476-7.621 1.942-9.708-2.845-4.262 10.252 17.049 40.796 38.369 18.66 30.99 50.748Z" fill="#DCECFF"/><path d="M190.6 200.321c.728-1.058.582-5.252.495-6.524-.087-1.272-.495-1.573-1.612-1.573-3.825 0-7.767 2.631-11.65 2.786-3.884.156-11.35-4.524-13.097.243-1.864 5.078 8.592 6.922 13.31 7.214 2.835.203 11.204-.195 12.554-2.146ZM131.153 154.564a121.662 121.662 0 0 0 25.991-19.33c19.864-19.631 32.747 20.67 51.009-23.767l-4.388-3.738s-7.282 21.243-21.049 19.214l-13.747-2.078s-4.631-3.699-22.689 14.107c0 0-10.476 8.116-18.243 10.679l3.116 4.913Z" fill="#92C4FF"/><path d="M96.697 145.176c-11.903-3.437-26.728-7.631-38.757-4.69-.174-26.165-49.747-12.708-36.106 9.758 2.136 3.524 5.98 5.592 9.65 7.456-3.447 6.349-6.874 12.786-8.796 19.728-7.932 28.66 25.078 50.417 28.262 50.262-8.262-20.67-20.388-60.019 2.32-57.806 10.282.971 21.243 2.272 31.495 1.078 5.36-.621 10.505-2.369 15.622-4.029a3.102 3.102 0 0 1 1.67-.223c.514.169.968.482 1.31.902a18.673 18.673 0 0 1 5.136 12.554c.359 30.038 23.854-24.689-11.806-34.99Z" fill="#0967D8"/><path d="M72.163 254.379s-39.116 8.67-40.776 65.873c-.078 2.709 25.815-8.873 55.475-15.106 30.893-6.495 65.621-7.719 65.621-7.719l-8.097-16.446s-19.553-31.291-55.29-29.621l-16.933 3.019Z" fill="#DCECFF"/><path d="m69.028 231.272 1.35 28.301s14.98 4.379 24.27-4.932l-9.339-29.524-16.281 6.155Z" fill="#92C4FF"/><path d="M45.445 168.952c-9.476.845-7.699 20.961-6.378 27.534-23.466-8.738-10.932 18.204-1.525 14.786 2.913-1.058 4.224 2.913 5.573 5.729 5.379 11.087 21.825 28.388 49.699 16.737 0 0 27.835-10.097 16.107-53.397l-4.942-16.573s-14.563 12.621-49.078 6.32l-9.456-1.136Z" fill="#92C4FF"/><path d="M71.368 215.603c-.573-1.369.524-3.35 2.029-2.001 2.912 2.651 1.3.505 4.951 1.942a.734.734 0 0 1 .38.272c.358.602-1.224 1.894-2.632 2.097 1.291 7.137-8.836-.883-4.728-2.33" fill="#FC95BF"/><path d="M74.95 221.817c-2.058 0-4.854-2.311-5.379-4.234a2.183 2.183 0 0 1 .738-2.485 2.913 2.913 0 0 1 1.04-2.563 2.114 2.114 0 0 1 2.737.339c.444.466.95.868 1.505 1.195h.136c1.05-.068 2.1.147 3.04.621.354.122.655.362.854.68a1.445 1.445 0 0 1 0 1.388 4.485 4.485 0 0 1-2.418 1.942c.155 2.291-.971 2.913-1.719 3.107a2.576 2.576 0 0 1-.534.01Zm-2.485-7.69a1.087 1.087 0 0 0-.156 1.107.968.968 0 0 1-.572 1.281c-.389.136-.38.233-.301.525.398 1.349 2.747 3.029 3.611 2.825.214-.048.33-.68.136-1.757a.97.97 0 0 1 .175-.738.963.963 0 0 1 .64-.398 3.279 3.279 0 0 0 1.515-.699 3.369 3.369 0 0 0-1.602-.292c-.97.097-1.456-.165-3.116-1.66a.75.75 0 0 0-.379-.194h.049Z" fill="#FC95BF"/><path d="M88.329 240.777c.563-.912 1.242-1.835-.272-6.844-.175-.573-11.962 1.485-19.03 1.135-.922-.048-.097 4.059.486 6.36.864 3.437 17.69 1.165 18.816-.651ZM105.959 170.409l-1.941-6.641s-14.563 12.621-49.078 6.32l-9.456-1.136c-8.951.796-7.854 18.777-6.602 26.311a1.63 1.63 0 0 0 1.66.272c1.825-.699.971-4.855.971-6.36.078-3.718 1.37-7.592 4.272-9.912 3.621-2.913 8.738-2.757 13.379-2.272 7.766.816 15.436 2.165 23.203 2.039 12.971-.204 22.466-5.602 23.592-8.621Z" fill="#66A4FF"/><path d="M268.745 117.03a.974.974 0 0 1-.767-.379.961.961 0 0 1-.116-.97c.262-.583 6.417-14.33 13.456-16.67a5.93 5.93 0 0 1 4.99.427 3.202 3.202 0 0 1 1.874 3.485c-.971 5.767-17.932 13.894-19.282 14.107h-.155Zm14.641-16.446a4.627 4.627 0 0 0-1.457.242c-4.66 1.554-9.194 9.457-11.213 13.389 4.699-2.243 15.019-8.204 15.534-11.651.068-.408 0-.903-.913-1.417a3.985 3.985 0 0 0-1.951-.563ZM318.638 261.728h-.233c-5.825-.407-15.689-16.378-16.049-17.698a.97.97 0 0 1 1.233-1.175c.602.194 14.923 4.854 17.991 11.65a5.968 5.968 0 0 1 .087 5.02 3.213 3.213 0 0 1-3.029 2.203Zm-13.311-16.194c2.728 4.437 9.709 14.078 13.243 14.253.417 0 .893-.088 1.32-1.059a4.074 4.074 0 0 0-.077-3.446c-2.039-4.476-10.369-8.155-14.495-9.748h.009ZM159.134 68.331a.973.973 0 0 1-.777-.378c-3.291-4.389-7.767-10.389-7.767-17.165 0-6.476 3.146-10.855 6.049-12.194a4.251 4.251 0 0 1 4.679.466c1.534 1.3 3.67 5.038.796 15.417-1.135 4.107-1.99 12.893-2 12.98a.97.97 0 0 1-.708.845l-.272.03Zm-.418-28.281c-.444.013-.88.119-1.281.31-2.35 1.088-4.854 4.855-4.913 10.437 0 4.962 2.554 9.35 5.913 13.99a87.281 87.281 0 0 1 1.806-10.834c2.757-9.952.553-12.777-.185-13.408a1.94 1.94 0 0 0-1.34-.495ZM98.64 131.7a.966.966 0 0 1-.36-.078 93.678 93.678 0 0 0-27.184-6.553H70.9a11.798 11.798 0 0 1-5.572-1.437 5.282 5.282 0 0 1-2.263-3.243 3.706 3.706 0 0 1 .496-2.854 5.223 5.223 0 0 1 3.388-2.029 21.452 21.452 0 0 1 9.912.388c7.865 1.835 16.505 8.738 22.418 14.126a.972.972 0 0 1-.66 1.69l.02-.01Zm-27.923-14.67a14.46 14.46 0 0 0-3.31.359 3.456 3.456 0 0 0-2.166 1.204 1.789 1.789 0 0 0-.213 1.379 3.35 3.35 0 0 0 1.407 2.019 10.377 10.377 0 0 0 4.631 1.136h.195a95.606 95.606 0 0 1 22.737 4.854c-5.262-4.388-11.708-8.805-17.572-10.174a25.228 25.228 0 0 0-5.71-.777ZM232.765 97.108a.972.972 0 0 1-.971-.738c-2.233-9.34-4.321-22.417-1.631-31.69 1.349-4.66 3.058-8.009 5.369-10.543a6.132 6.132 0 0 1 3.99-2.3 4.26 4.26 0 0 1 3.126 1.116 6.094 6.094 0 0 1 2.019 4.145c.146 2.37-.825 4.515-1.757 6.583l-.097.213a112.206 112.206 0 0 0-9.116 32.37.97.97 0 0 1-.903.844h-.029Zm7.068-43.34h-.146a4.3 4.3 0 0 0-2.689 1.67c-2.107 2.301-3.68 5.408-4.942 9.767-2.117 7.291-1.107 17.184.534 25.534a114.178 114.178 0 0 1 8.476-27.65l.106-.224c.835-1.854 1.699-3.767 1.583-5.66a4.196 4.196 0 0 0-1.35-2.796 2.447 2.447 0 0 0-1.572-.64ZM39.028 230.399a8.587 8.587 0 0 1-7.709-4.855.973.973 0 0 1 .454-1.359.976.976 0 0 1 .783-.003.974.974 0 0 1 .53.576 6.532 6.532 0 0 0 7.37 3.534.978.978 0 0 1 .802.018.97.97 0 0 1-.288 1.836 7.579 7.579 0 0 1-1.942.253ZM41.94 261.554a4.333 4.333 0 0 1-3.883-2.67 4.39 4.39 0 0 1 1.815-5.728 49.655 49.655 0 0 1 6.059-2.515 52.51 52.51 0 0 0 9.941-4.476.967.967 0 0 1 .71-.11.968.968 0 0 1 .742 1.109.971.971 0 0 1-.374.613 25.886 25.886 0 0 0-3.379 3.884c-2.912 3.708-6.495 8.33-10.174 9.631-.468.166-.96.255-1.457.262Zm10.282-11.311c-1.942.845-3.825 1.544-5.622 2.204a47.508 47.508 0 0 0-5.825 2.408 2.425 2.425 0 0 0-.97 3.262 2.292 2.292 0 0 0 2.912 1.359c3.155-1.116 6.699-5.67 9.301-9l.204-.233ZM121.406 58.225a.97.97 0 0 1-.971-.709 16.702 16.702 0 0 0-4.272-7.408.973.973 0 0 1 .693-1.656c.258.001.504.104.686.287a18.7 18.7 0 0 1 4.796 8.302.966.966 0 0 1-.34 1.024.974.974 0 0 1-.339.17l-.253-.01ZM101.921 246.36a.965.965 0 0 1-.855-.515 14.85 14.85 0 0 1-1.68-5.621.974.974 0 0 1 1.835-.54.97.97 0 0 1 .108.365 13.1 13.1 0 0 0 1.456 4.855.966.966 0 0 1-.377 1.3.965.965 0 0 1-.477.127l-.01.029ZM324.298 135.409a1.013 1.013 0 0 1-.291 0 58.667 58.667 0 0 0-18.447-2.855.97.97 0 1 1 0-1.941 60.678 60.678 0 0 1 19.029 2.912.985.985 0 0 1 .821 1.121.985.985 0 0 1-1.122.821l.01-.058ZM221.114 73.846a.972.972 0 0 1-.971-.757 21.072 21.072 0 0 1-.388-7.059.976.976 0 1 1 1.942.214 19.259 19.259 0 0 0 .349 6.418.958.958 0 0 1-.126.736.962.962 0 0 1-.612.429l-.194.02ZM211.357 212.437a.965.965 0 0 1-.725-.191.993.993 0 0 1-.377-.648.984.984 0 0 1 .478-.978.968.968 0 0 1 .362-.124 31.86 31.86 0 0 0 13.155-7.282.972.972 0 1 1 1.32 1.427 33.845 33.845 0 0 1-13.961 7.767.795.795 0 0 1-.252.029ZM55.863 67.768a1.03 1.03 0 0 1-.408-.087 31.33 31.33 0 0 1-13.01-11.087.972.972 0 1 1 1.612-1.078A29.417 29.417 0 0 0 56.26 65.914a.97.97 0 0 1-.398 1.854ZM323.919 299.99a.966.966 0 0 1-.97-.873 35.08 35.08 0 0 0-4.583-13.923.955.955 0 0 1-.101-.737.958.958 0 0 1 .451-.593.968.968 0 0 1 1.33.35 37.197 37.197 0 0 1 4.854 14.689.967.967 0 0 1-.864 1.068l-.117.019ZM251.57 110.837a.977.977 0 0 1-.892-.597.977.977 0 0 1 .203-1.054 14.229 14.229 0 0 0 3.826-7.554.973.973 0 0 1 .397-.639.993.993 0 0 1 .734-.172.992.992 0 0 1 .798.748.993.993 0 0 1 .012.384 16.093 16.093 0 0 1-4.359 8.592.981.981 0 0 1-.719.292ZM191.017 78.545c-.08.01-.162.01-.242 0a.972.972 0 0 1-.7-1.184l1.69-6.505a.975.975 0 0 1 1.783-.244c.13.223.166.489.101.739l-1.69 6.495a.969.969 0 0 1-.942.7ZM25.805 120.225a.986.986 0 0 1-1.107-.835.98.98 0 0 1 .835-1.107 74.86 74.86 0 0 1 11.797-2.36.995.995 0 0 1 .38.031.99.99 0 0 1 .586.465.985.985 0 0 1 .085.744.983.983 0 0 1-.465.585.972.972 0 0 1-.363.117 73.264 73.264 0 0 0-11.486 2.282.83.83 0 0 1-.262.078ZM309.9 227.05a.968.968 0 0 1-.947-.742.971.971 0 0 1 .501-1.093c3.611-1.855 6.359-4.059 7.359-5.904a.996.996 0 0 1 .594-.462.984.984 0 0 1 1.115 1.433c-1.194 2.204-4.175 4.641-8.175 6.7a1.083 1.083 0 0 1-.447.068ZM112.979 91.69a.972.972 0 0 1-.602-.213l-5.049-4.01a.972.972 0 0 1 1.204-1.524l5.059 4.01a.967.967 0 0 1 .321 1.09.97.97 0 0 1-.933.648Z" fill="#E44F89"/><path d="M147.289 151.214a.865.865 0 0 1-.31-.058.968.968 0 0 1-.612-1.223c1.874-5.719 3.99-8.524 6.66-8.845 2.816-.34 5.738 2.155 9.456 8.117a.968.968 0 0 1-1.04 1.409.969.969 0 0 1-.6-.38c-3.136-5.02-5.69-7.457-7.583-7.224-1.893.233-3.505 2.816-5.048 7.534a.971.971 0 0 1-.923.67ZM121.794 256.864a.802.802 0 0 1-.301 0 .967.967 0 0 1-.563-.483.966.966 0 0 1-.058-.74c5.573-17.204 18.747-29.883 40.281-38.786a.97.97 0 0 1 .738 1.796c-21.262 8.786-33.708 20.728-39.174 37.592a.972.972 0 0 1-.923.621ZM234.842 256.864a.967.967 0 0 1-.806-.417c-16.116-23.301-25.805-29.961-37.728-36.844a.965.965 0 0 1-.481-.97.966.966 0 0 1 1.452-.71c12.146 7.01 22.01 13.796 38.359 37.417a.966.966 0 0 1 .016 1.087.964.964 0 0 1-.812.437ZM193.687 207.098a.979.979 0 0 1-.711-.226.977.977 0 0 1-.116-1.373.972.972 0 0 1 .662-.343c10.049-1.796 26.495-6.612 38.835-12.932a.972.972 0 0 1 .883 1.728c-12.543 6.408-29.223 11.291-39.407 13.116l-.146.03ZM111.163 149.273a.971.971 0 0 1-.971-.971v-.272c0-6.107-.058-11.388.641-15.534 4.146-24.272 13.981-40.505 29.223-48.165 17.156-8.621 40.544-5.932 67.66 7.767 4.971-1.942 9.34-1.844 13.01.165 8.175 4.486 11.65 18.185 13.854 29.621a.983.983 0 0 1-.433 1.008.994.994 0 0 1-.743.138.996.996 0 0 1-.623-.428.994.994 0 0 1-.143-.358c-2.077-11.02-5.417-24.185-12.873-28.272-3.282-1.796-7.127-1.767-11.767.097a.975.975 0 0 1-.806 0c-26.709-13.592-49.631-16.34-66.291-7.961-14.67 7.369-24.146 23.126-28.155 46.815-.67 3.952-.641 9.156-.612 15.175v.204a.97.97 0 0 1-.971.971ZM157.872 204.787a194.554 194.554 0 0 1-41.951-5.388.973.973 0 0 1 .475-1.884 192.576 192.576 0 0 0 41.476 5.33.971.971 0 0 1 0 1.942Z" fill="#1351AA"/><path d="M177.085 195.156a23.538 23.538 0 0 1-9.165-1.816c-28.825-12.116-40.728-43.922-40.844-44.242a.967.967 0 0 1 .201-1.121.965.965 0 0 1 1.128-.159.96.96 0 0 1 .486.62c.117.31 11.758 31.33 39.806 43.106 11.155 4.69 25.155-.689 35.689-13.689 13.184-16.291 19.214-43.213 2.913-66.64a.987.987 0 1 1 1.631-1.107c16.854 24.272 10.679 52.116-3.02 68.932-8.427 10.388-19 16.116-28.825 16.116Z" fill="#1351AA"/><path d="M180.949 224.35a45.454 45.454 0 0 1-12.446-1.767c-2.126-.612-7.155-2.291-7.903-4.573a.917.917 0 0 1 0-.534 170.33 170.33 0 0 0 3.67-26.456.973.973 0 1 1 1.942.107 171.168 171.168 0 0 1-3.641 26.495c.485.679 2.476 1.942 6.495 3.126 8.602 2.486 20.058 2.689 26.67-2.34-1.35-6.039-5.369-21.233-5.408-21.359a.963.963 0 0 1 .079-.754.974.974 0 0 1 .983-.492.973.973 0 0 1 .812.741c0 .165 4.359 16.505 5.563 22.068a.967.967 0 0 1-.33.971c-4.194 3.379-10.282 4.767-16.486 4.767ZM126.454 149.273a9.402 9.402 0 0 1-2.514-.33 7.424 7.424 0 0 1-4.466-3.631 5.415 5.415 0 0 1-.427-4.311.973.973 0 0 1 1.208-.547.974.974 0 0 1 .627 1.168 3.51 3.51 0 0 0 .31 2.787 5.477 5.477 0 0 0 3.272 2.66c6.796 1.942 17.204-6.796 26.379-14.408a114.989 114.989 0 0 1 12.077-9.281c4.262-2.593 8.67-1.088 12.942.378 8.505 2.913 17.301 5.942 28.272-20.301a.974.974 0 0 1 1.587-.313.987.987 0 0 1 .283.689.968.968 0 0 1-.074.372c-10.816 25.864-19.922 25.087-30.699 21.359-4.194-1.437-7.767-2.68-11.301-.553a115.295 115.295 0 0 0-11.845 9.106c-8.553 7.195-18.135 15.156-25.631 15.156ZM178.91 163.671a8.676 8.676 0 0 1-2.708-.36.971.971 0 0 1 .245-1.893.961.961 0 0 1 .376.049c3.029 1.019 9.913-.971 10.845-2.369 1.039-1.592-2.01-7.165-5.544-13.592-1.495-2.738-3.184-5.826-4.854-9.194a.977.977 0 0 1 1.171-1.369c.246.08.449.255.567.485 1.699 3.34 3.388 6.427 4.854 9.146 4.447 8.136 7.126 13.058 5.456 15.611-1.281 1.893-6.514 3.486-10.408 3.486ZM193.396 144.108a.975.975 0 0 1-.971-1.253c1.786-6.029 4.049-9.097 6.903-9.369 3.718-.369 6.98 4.272 9.058 8.233l.087.156a.966.966 0 0 1-.165 1.25.972.972 0 0 1-1.262.031 1.45 1.45 0 0 1-.378-.534c-2.466-4.709-5.146-7.398-7.156-7.204-1.339.127-3.339 1.622-5.233 7.991a.97.97 0 0 1-.883.699ZM173.978 176.107a12.966 12.966 0 0 1-10.135-4.854.954.954 0 0 1-.236-.734.976.976 0 0 1 .373-.674.96.96 0 0 1 .746-.19.968.968 0 0 1 .651.414 10.925 10.925 0 0 0 5.11 3.55c2.011.664 4.172.729 6.22.187a.973.973 0 0 1 .524 1.874c-1.06.287-2.154.431-3.253.427ZM73.105 236.826c-4.526.029-9-.967-13.087-2.913-9.505-4.553-16.36-14.291-19.301-27.417a.996.996 0 0 1 1.145-1.193.986.986 0 0 1 .641.41.994.994 0 0 1 .156.356c2.806 12.533 9.281 21.805 18.242 26.097 8.961 4.291 20.301 3.388 32.65-2.68 25.088-12.252 15.962-43 12.059-56.116-.466-1.563-.835-2.806-1.049-3.719a.992.992 0 0 1-.016-.38.981.981 0 0 1 1.115-.811.981.981 0 0 1 .795.735c.203.864.563 2.087.97 3.621 3.748 12.379 13.554 45.388-13.058 58.456-7.514 3.699-14.689 5.554-21.262 5.554Z" fill="#1351AA"/><path d="M78.076 261.894a30.87 30.87 0 0 1-3.33-.175c-2.01-.204-5.505-.796-6.35-2.369a.97.97 0 0 1-.116-.524c.35-5.496-.816-23.097-.825-23.301a.972.972 0 1 1 1.942-.126c0 .718 1.135 17.165.854 23.145.553.418 2.514 1.107 5.825 1.32 5.447.35 13.049-.737 16.98-4.854-1.708-4.359-5.63-15.874-5.825-16.388a.973.973 0 0 1 .977-1.341.97.97 0 0 1 .858.719c.049.127 4.457 13.088 5.99 16.835a.972.972 0 0 1-.155.971c-3.611 4.359-10.563 6.088-16.825 6.088ZM33.484 316.563h-.078a.968.968 0 0 1-.883-1.048c1.272-15.02 7.194-42.427 32.611-57.214a.97.97 0 0 1 .971 1.68c-24.66 14.34-30.417 41.058-31.66 55.699a.97.97 0 0 1-.96.883Z" fill="#1351AA"/><path d="M149.707 291.194a.97.97 0 0 1-.864-.524c-12.33-23.844-30.816-35.922-54.942-35.922a.97.97 0 1 1 0-1.942c24.913 0 43.971 12.447 56.66 36.981a.968.968 0 0 1-.417 1.31.875.875 0 0 1-.437.097ZM33.494 211.874a8.008 8.008 0 0 1-3.136-.64c-4.631-1.942-7.233-7.903-6.796-12.185a6.146 6.146 0 0 1 5.107-5.747c3.281-.612 7.01.398 9.29 1.339-2.096-12.242-1.368-20.33 2.166-24.067 1.854-1.942 4.417-2.729 7.621-2.311l.835.116c20.184 2.661 39.252 5.175 55.543-6.194a.976.976 0 0 1 1.086-.023.978.978 0 0 1 .431.991.967.967 0 0 1-.4.624c-16.912 11.806-36.34 9.233-56.912 6.525l-.835-.107c-2.593-.34-4.534.213-5.952 1.709-2.242 2.369-4.29 8.485-1.35 24.184a.972.972 0 0 1-1.164 1.175.884.884 0 0 1-.233-.117c-.398-.213-5.379-2.728-9.709-1.942a4.224 4.224 0 0 0-3.534 4.049c-.388 3.515 1.816 8.563 5.602 10.184 3.146 1.35 6.573 0 9.913-4.009a.972.972 0 0 1 1.485 1.252c-3.466 4.097-6.64 5.194-9.058 5.194ZM270.23 238.806c-7.106 0-14.097-2.087-19.669-7.495-9.243-8.971-14.146-22.437-13.107-36.019a.975.975 0 0 1 1.942.155c-.971 13.01 3.689 25.903 12.524 34.476 11.213 10.873 28.738 7.252 40.33.854 6.32-3.485 8.32-12.087 10.077-19.67.282-1.184.554-2.359.835-3.485a.973.973 0 0 1 1.175-.709.973.973 0 0 1 .709 1.175c-.282 1.116-.544 2.281-.825 3.466-1.855 7.971-3.952 17.019-11.03 20.922-6.514 3.592-14.815 6.33-22.961 6.33Z" fill="#1351AA"/><path d="M272.716 261.894a31.986 31.986 0 0 1-12.02-2.525c-1.854-.786-5.029-2.369-5.378-4.126a.971.971 0 0 1 0-.524c1.942-5.175 5.243-17.563 5.272-17.689a.973.973 0 0 1 1.786-.235c.129.224.164.49.097.739-.136.496-3.223 12.068-5.204 17.476.408.563 2.088 1.796 5.204 2.971 5.107 1.942 12.689 3.087 17.66.281-.398-4.592-1.126-16.029-1.136-16.145a.963.963 0 0 1 .236-.707.971.971 0 0 1 1.706.581c0 .126.806 12.621 1.185 16.699a.973.973 0 0 1-.447.903 16.688 16.688 0 0 1-8.961 2.301ZM311.376 316.553a.971.971 0 0 1-.971-.97c.971-31.884-12.786-44.243-23.854-54.175l-2.078-1.874a.975.975 0 0 1-.063-1.373.972.972 0 0 1 1.374-.064l2.068 1.864c10.767 9.709 25.514 22.894 24.485 55.69a.97.97 0 0 1-.961.902Z" fill="#1351AA"/><path d="M200.367 291.194a1.02 1.02 0 0 1-.408-.087.97.97 0 0 1-.466-1.291c9.99-21.359 41.67-37.369 57.339-37.369a.971.971 0 1 1 0 1.942c-15.184 0-45.893 15.534-55.582 36.252a.964.964 0 0 1-.883.553ZM269.23 209.971h-.106a40.984 40.984 0 0 1-10.525-2.446.969.969 0 0 1-.64-.971c1.106-10.505 2.602-20.563 8.631-28.204a.97.97 0 0 1 1.364-.16.971.971 0 0 1 .16 1.364c-5.573 7.049-7.078 16.505-8.136 26.437a37.957 37.957 0 0 0 9.33 2.107.97.97 0 1 1-.078 1.941v-.068Z" fill="#1351AA"/><path d="M250.677 201.923a15.39 15.39 0 0 1-9.844-3.32c-4.855-3.884-7.127-10.68-5.903-17.301a17.187 17.187 0 0 1 11.97-13.592c7.253-2.34 14.447 2.844 18.049 8.65a.984.984 0 0 1-1.031 1.495.986.986 0 0 1-.62-.427c-3.223-5.184-9.543-9.845-15.805-7.835a15.333 15.333 0 0 0-10.68 12.097c-1.097 5.951.971 12.01 5.214 15.427 4.242 3.418 10.582 3.825 17.475.893a.971.971 0 0 1 .758 1.787 24.837 24.837 0 0 1-9.583 2.126ZM285.366 207.525a13.278 13.278 0 0 1-5.279-.898 13.276 13.276 0 0 1-4.497-2.908 14.725 14.725 0 0 1-3.884-14.184c1.486-5.826 6.311-11.136 11.738-12.884 3.883-1.252 8.213-.34 12.146 2.583 4.699 3.495 7.912 9.194 7.825 13.873-.097 5.389-4.34 10.496-10.796 13a19.916 19.916 0 0 1-7.253 1.418Zm1.554-29.476a9.207 9.207 0 0 0-2.913.457c-4.748 1.524-9.146 6.368-10.456 11.504a12.625 12.625 0 0 0 3.437 12.369c3.242 3.418 9.097 4.175 14.893 1.942 5.796-2.233 9.466-6.631 9.553-11.223.078-4.029-2.912-9.194-7.039-12.282a12.618 12.618 0 0 0-7.475-2.776v.009Z" fill="#1351AA"/><path d="M290.882 197.574a.822.822 0 0 1-.262 0 .972.972 0 0 1-.67-1.194c.883-3.224.184-5.826-1.855-6.797-2.039-.971-5.068-.194-7.699 3.515a.975.975 0 0 1-1.05.532.968.968 0 0 1-.667-.472.972.972 0 0 1 .153-1.167c3.292-4.621 7.447-5.418 10.118-4.146 2.912 1.379 4.029 4.933 2.912 9.069a.968.968 0 0 1-.98.66ZM256.125 188.574a.971.971 0 0 1-.971-.971c0-3.35-1.301-5.69-3.515-6.107-2.214-.418-4.952 1.117-6.554 5.369a.97.97 0 0 1-1.816-.679c2.001-5.321 5.826-7.147 8.739-6.593 3.155.592 5.156 3.748 5.097 8.03a.973.973 0 0 1-.98.951ZM268.153 220.787h-.447a.97.97 0 1 1 0-1.942 20.734 20.734 0 0 0 9.807-2.262.968.968 0 0 1 1.31.418.968.968 0 0 1-.417 1.31 22.716 22.716 0 0 1-10.253 2.476ZM324.347 198.214a1.009 1.009 0 0 1-.233 0l-21.932-5.437a.971.971 0 0 1-.709-1.174.97.97 0 0 1 1.175-.709l21.932 5.437a.977.977 0 1 1-.233 1.941v-.058ZM273.425 186.166a.967.967 0 0 1-.475-.126 19.426 19.426 0 0 0-10.224-2.525.952.952 0 0 1-.374-.061.954.954 0 0 1-.544-.507.96.96 0 0 1-.026-.743.96.96 0 0 1 .507-.544.977.977 0 0 1 .369-.086c3.935-.13 7.829.831 11.253 2.776a.974.974 0 0 1 .459 1.096.966.966 0 0 1-.945.72Z" fill="#1351AA"/><path d="M312.327 213.612c-2.446 0-5.67-1.136-9.097-5.417a.975.975 0 1 1 1.525-1.214c3.233 4.049 6.631 5.524 9.796 4.253 3.835-1.525 6.165-6.515 5.825-10.039a4.22 4.22 0 0 0-3.427-4.136c-1.942-.418-4.787-.641-6.923.709-.061.038-.126.07-.194.097l-2.825.971a.977.977 0 0 1-.971-.195.966.966 0 0 1-.301-.97c3.359-15.67 1.456-21.845-.728-24.272-1.379-1.534-3.311-2.136-5.913-1.864-11.708 1.242-14.116-1.398-16.456-3.952a9.915 9.915 0 0 0-5.912-3.621c-1.525-.359-4.466-.136-7.864.116-10.059.758-25.243 1.884-34.117-8.495-8.009-9.398-9.786-18.271-4.854-24.359 5.932-7.34 19.99-8.349 31.339-2.243 3.476 1.865 7.564 1.35 11.884.797 4.136-.534 8.417-1.078 12.311.572a20.416 20.416 0 0 1 5.019 3.389 20.478 20.478 0 0 0 4.281 2.98c3.272 1.525 6.962 1.107 10.864.661 3.098-.34 6.301-.709 9.398-.059a15.302 15.302 0 0 1 11.797 15.534 31.958 31.958 0 0 1-.835 4.855c-.69 3.087-1.35 5.99-.088 8.504.429.778.936 1.51 1.515 2.185.34.417.679.844.971 1.281a13.773 13.773 0 0 1 2.305 8.469 13.772 13.772 0 0 1-3.276 8.143 25.053 25.053 0 0 1-2.913 2.602c-.806.67-1.582 1.291-2.281 1.99-.699.699-2.641 2.913-2.195 5.262.005.058.005.117 0 .175a6.425 6.425 0 0 1 2.369 4.709c.369 4.291-2.388 10.136-7.068 12.009a7.984 7.984 0 0 1-2.961.573Zm-12.029-44.038a7.97 7.97 0 0 1 6.204 2.572c3.456 3.884 3.971 12.01 1.524 24.272l1.107-.388c2.117-1.282 4.961-1.602 8.252-.903.195.048.379.087.564.145a8.733 8.733 0 0 1 2.835-5.825c.771-.75 1.581-1.46 2.427-2.126a24.765 24.765 0 0 0 2.679-2.398 11.781 11.781 0 0 0 2.832-6.947 11.783 11.783 0 0 0-1.938-7.247c-.292-.408-.602-.796-.913-1.194a13.92 13.92 0 0 1-1.709-2.486c-1.573-3.126-.815-6.514-.078-9.796.381-1.502.647-3.03.797-4.573a13.31 13.31 0 0 0-10.262-13.475c-2.797-.583-5.826-.243-8.787.087-3.99.456-8.126.922-11.903-.835a22.123 22.123 0 0 1-4.689-3.243 18.985 18.985 0 0 0-4.582-3.029c-3.408-1.446-7.243-.971-11.311-.437-4.437.573-9.019 1.156-13.039-.97-10.573-5.69-23.543-4.855-28.912 1.757-4.272 5.281-2.505 13.262 4.854 21.883 8.204 9.622 22.825 8.534 32.505 7.816 3.699-.282 6.621-.495 8.437-.078a11.836 11.836 0 0 1 6.912 4.204c2.097 2.301 4.087 4.476 14.816 3.33.457-.063.917-.102 1.378-.116Z" fill="#1351AA"/><path d="M298.9 225.894a.97.97 0 0 1-.388-1.864c4.767-2.117 10.544-7.185 12.883-11.292a.97.97 0 0 1 1.321-.359.975.975 0 0 1 .369 1.321c-2.515 4.417-8.738 9.844-13.787 12.106a.974.974 0 0 1-.398.088ZM313.852 209.05a.973.973 0 0 1-.893-.583 73.332 73.332 0 0 0-3.467-6.796.972.972 0 0 1 1.092-1.418.973.973 0 0 1 .588.447 73.813 73.813 0 0 1 3.563 6.99.969.969 0 0 1-.485 1.282.971.971 0 0 1-.398.078Z" fill="#1351AA"/><path d="M308.929 207.817a.97.97 0 0 1-.825-.457.965.965 0 0 1 .034-1.08.968.968 0 0 1 .277-.26 71.352 71.352 0 0 0 6.262-4.379.975.975 0 0 1 1.364.17.971.971 0 0 1-.169 1.365 76.418 76.418 0 0 1-6.428 4.495.976.976 0 0 1-.515.146ZM111.377 191.331a.979.979 0 0 1-.859-.515.972.972 0 0 1 .053-1c1.777-2.67 5.825-16.932 1.942-28.99a22.338 22.338 0 0 0-13.932-14.718c-30.097-11.253-47.796-4.612-57.379 2.912-11.533 9.078-17.475 24.864-15.456 41.204a.98.98 0 0 1-.854 1.087.974.974 0 0 1-1.087-.854c-2.04-16.981 4.165-33.417 16.194-42.942 9.98-7.854 28.359-14.796 59.223-3.223a24.15 24.15 0 0 1 15.097 15.932c4.165 12.884-.233 27.718-2.195 30.67a.962.962 0 0 1-.747.437ZM55.25 230.826a.961.961 0 0 1-.339-.059 47.568 47.568 0 0 1-23.776-19.359.968.968 0 0 1 .033-1.08.97.97 0 0 1 1.36-.219.971.971 0 0 1 .257.28 45.69 45.69 0 0 0 22.806 18.534.968.968 0 0 1 .573 1.243.968.968 0 0 1-.913.66Z" fill="#1351AA"/><path d="M31.96 158.729h-.185c-6.796-1.291-9.912-4.854-11.32-7.641a15.31 15.31 0 0 1 .185-13.408c4.66-9.767 18.32-13.65 27.67-11.087 6.844 1.942 10.407 6.796 9.766 13.35a.974.974 0 0 1-1.941-.185c.737-7.612-4.923-10.349-8.35-11.301-10.68-2.971-22 2.913-25.408 10.049a13.357 13.357 0 0 0-.184 11.737c1.728 3.418 5.165 5.699 9.942 6.602a.968.968 0 0 1 .777 1.136.968.968 0 0 1-.952.748ZM76.785 208.68a.972.972 0 0 1-.078-1.942 36.603 36.603 0 0 0 8.155-1.718 1.288 1.288 0 0 0 .971-.767c.796-1.942-1.796-6.796-4.3-11.534-2.505-4.738-5.03-9.378-5.71-13.349a.985.985 0 0 1 1.942-.321c.622 3.709 3.088 8.34 5.466 12.816 2.913 5.573 5.515 10.388 4.389 13.174a3.265 3.265 0 0 1-2.146 1.942 38.692 38.692 0 0 1-8.582 1.699h-.107ZM55.135 197.526a.973.973 0 0 1-.971-.719c-1.136-4.126 0-7.69 2.912-9.068 2.66-1.263 6.797-.476 10.118 4.155a.973.973 0 0 1-.953 1.521.972.972 0 0 1-.63-.395c-2.641-3.708-5.767-4.446-7.71-3.524-1.941.922-2.737 3.573-1.844 6.797a.97.97 0 0 1-.68 1.194c-.079.022-.16.035-.242.039ZM89.892 188.526a.972.972 0 0 1-.971-.971c-.059-4.292 1.942-7.438 5.097-8.04 2.913-.543 6.729 1.282 8.739 6.593a.971.971 0 0 1-1.816.689c-1.612-4.262-4.447-5.767-6.554-5.369-2.107.398-3.563 2.758-3.515 6.098a.97.97 0 0 1-.97.97l-.01.03ZM77.863 219.486a22.57 22.57 0 0 1-10.282-2.485.975.975 0 0 1-.29-1.22.968.968 0 0 1 1.154-.489 20.638 20.638 0 0 0 9.816 2.272.971.971 0 1 1 0 1.942l-.398-.02ZM36.475 203.894a.652.652 0 0 1-.233 0 21.045 21.045 0 0 1-6.525-2.845.97.97 0 0 1 .355-1.712.967.967 0 0 1 .704.091 19.514 19.514 0 0 0 5.932 2.583.973.973 0 0 1 .854 1.087.977.977 0 0 1-1.087.854v-.058Z" fill="#1351AA"/><path d="M31.999 205.652a1.009 1.009 0 0 1-.233 0 .972.972 0 0 1-.71-1.175 21.72 21.72 0 0 1 2.846-6.525.974.974 0 0 1 1.63 1.068 19.428 19.428 0 0 0-2.591 5.923.975.975 0 0 1-.942.709ZM83.93 106.127h-.242a.97.97 0 0 1-.728-.747 3.482 3.482 0 0 0-1.525-2.214 3.523 3.523 0 0 0-2.602-.495l-12.116 2.553a.971.971 0 0 1-1.155-.747l-4.515-21.156a.97.97 0 0 1 .748-1.145l12.067-2.602a5.398 5.398 0 0 1 4.117.757c.279.173.54.375.777.602a4.95 4.95 0 0 1 .466-.864 5.436 5.436 0 0 1 3.495-2.379l12.039-2.553a.97.97 0 0 1 1.145.748l4.515 21.155a.97.97 0 0 1-.748 1.146l-12.097 2.543a3.522 3.522 0 0 0-2.729 2.81c-.083.455-.076.922.02 1.375a.972.972 0 0 1-.747 1.145.718.718 0 0 1-.185.068ZM63.144 83.865l4.117 19.262 11.135-2.398a5.4 5.4 0 0 1 3.71.525l-3.651-17.03a3.457 3.457 0 0 0-1.563-2.262 3.525 3.525 0 0 0-2.66-.495l-11.088 2.398ZM81.99 91.39l2.02 9.446a5.417 5.417 0 0 1 3.174-1.942l11.136-2.378-4.107-19.282-11.136 2.36a3.476 3.476 0 0 0-2.223 1.524 3.525 3.525 0 0 0-.495 2.66l1.63 7.611Z" fill="#1351AA"/><path d="M67.62 110.438a.971.971 0 0 1-.971-.767l-1.117-5.214a.992.992 0 1 1 1.942-.407l.903 4.262 31.068-6.622-1.117-5.242a.99.99 0 1 1 1.942-.408l1.32 6.194a.972.972 0 0 1-.135.728.972.972 0 0 1-.612.418l-33.02 7.058h-.203ZM71.833 63.195a9.815 9.815 0 0 1-8.184-4.368 9.815 9.815 0 0 1 13.67-13.593l12.68-8.534a.971.971 0 0 1 .728-.145.971.971 0 0 1 .62.407l2.447 3.651a.97.97 0 0 1-.271 1.35l-.971.68 1.281 1.94a.97.97 0 0 1-.272 1.34l-5.485 3.68a.97.97 0 0 1-1.388-.33l-1.272-1.942-4.233 2.913a9.845 9.845 0 0 1-9.35 12.951Zm0-17.767a7.922 7.922 0 1 0 7.292 4.855.97.97 0 0 1 .359-1.185l5.67-3.806a.97.97 0 0 1 1.35.263l1.28 1.941 3.884-2.602-1.281-1.941a.971.971 0 0 1 .272-1.34l.97-.68-1.369-2.048-12.398 8.3a.971.971 0 0 1-1.145 0 7.769 7.769 0 0 0-3.33-1.562 7.579 7.579 0 0 0-1.573-.233l.02.038Zm0 12.156a4.862 4.862 0 0 1-.835-.078A4.241 4.241 0 0 1 68.3 55.7a4.196 4.196 0 0 1-.64-3.184 4.247 4.247 0 1 1 8.34 1.611 4.253 4.253 0 0 1-4.156 3.418l-.01.039Zm0-6.544a2.301 2.301 0 1 0 1.908 1.021 2.311 2.311 0 0 0-1.461-.982 2.389 2.389 0 0 0-.447-.039ZM268.764 87.06a.53.53 0 0 1-.174 0l-11.835-2.204a.973.973 0 0 1-.777-1.127 7.328 7.328 0 0 0-1.515-5.631 14.123 14.123 0 0 1 3.481-20.406 14.111 14.111 0 0 1 7.296-2.293 14.136 14.136 0 0 1 7.99 26.136 7.465 7.465 0 0 0-3.495 4.728.968.968 0 0 1-.971.796Zm-10.757-3.962 10.049 1.874a9.588 9.588 0 0 1 4.136-5.087 12.015 12.015 0 0 0 5.543-8.088 12.14 12.14 0 0 0-2.718-10.165 12.3 12.3 0 0 0-9.709-4.291 12.186 12.186 0 0 0-9.262 19.563 9.543 9.543 0 0 1 1.961 6.194Z" fill="#1351AA"/><path d="M265.522 93.758c-.209 0-.417-.019-.622-.058l-7.097-1.32a3.386 3.386 0 0 1-2.708-3.942l.883-4.728a.985.985 0 0 1 1.146-.796.986.986 0 0 1 .796 1.145l-.884 4.738a1.423 1.423 0 0 0 .226 1.074 1.418 1.418 0 0 0 .92.596l7.058 1.32a1.445 1.445 0 0 0 1.68-1.145l.883-4.728a.989.989 0 0 1 1.146-.796.986.986 0 0 1 .796 1.145l-.913 4.757a3.375 3.375 0 0 1-3.31 2.738Z" fill="#1351AA"/><path d="M262.978 85.293h-.184a.973.973 0 0 1-.777-1.126l1.874-10.03a.985.985 0 0 1 1.781-.388.99.99 0 0 1 .161.738l-1.865 10.03a.97.97 0 0 1-.99.777Z" fill="#1351AA"/><path d="M265.24 75.293a3.376 3.376 0 0 1-3.313-2.896 3.379 3.379 0 1 1 3.313 2.896Zm0-4.855a1.438 1.438 0 1 0 1.41 1.137 1.413 1.413 0 0 0-.225-.515 1.477 1.477 0 0 0-.913-.602l-.272-.02ZM206.774 62.516a.867.867 0 0 1-.271 0l-21.049-6.107a.971.971 0 0 1-.66-1.204l7.039-24.272a.964.964 0 0 1 .466-.582.971.971 0 0 1 .738-.087l21.048 6.106a.97.97 0 0 1 .67 1.156l-7.049 24.271a.962.962 0 0 1-.466.583.968.968 0 0 1-.466.136Zm-19.844-7.767 19.184 5.592 6.505-22.427-19.223-5.563-6.466 22.398Z" fill="#1351AA"/><path d="M209.357 41.506c-.09.01-.182.01-.272 0l-14.563-4.233a.968.968 0 0 1-.66-1.204.97.97 0 0 1 1.204-.66l14.563 4.233a.972.972 0 0 1 .66 1.194.974.974 0 0 1-.932.67ZM204.765 57.35a.833.833 0 0 1-.272 0l-14.563-4.223a.993.993 0 0 1-.68-1.233.999.999 0 0 1 1.233-.68l14.563 4.224a.977.977 0 0 1 .84 1.102.98.98 0 0 1-1.102.84l-.019-.03ZM129.619 44.011a1.088 1.088 0 0 1-.31 0c-.427-.146-.893-.272-1.369-.408a13.47 13.47 0 0 1-3.476-1.369.972.972 0 0 1-.31-1.34.97.97 0 0 1 1.33-.31c.954.499 1.969.87 3.019 1.107l.437.116a81.338 81.338 0 0 0 1.126-12.922.97.97 0 1 1 1.942 0 78.15 78.15 0 0 1-1.447 14.32 1.01 1.01 0 0 1-.475.621.974.974 0 0 1-.467.185Z" fill="#1351AA"/><path d="M127.095 51.477a4.514 4.514 0 0 1-3.708-1.942l-4.379-6.087a4.573 4.573 0 0 1-.777-3.389 4.515 4.515 0 0 1 1.855-2.912l5.068-3.602a.973.973 0 0 1 1.359.233.977.977 0 0 1-.233 1.36l-5.068 3.591a2.552 2.552 0 0 0-1.058 1.68 2.586 2.586 0 0 0 .436 1.942l4.379 6.175a2.603 2.603 0 0 0 3.621.611l6.175-4.379a2.604 2.604 0 0 0 .612-3.62l-1.204-1.836a.95.95 0 0 1-.156-.347.957.957 0 0 1 .126-.736.977.977 0 0 1 .986-.438.968.968 0 0 1 .626.395l1.253 1.767a4.534 4.534 0 0 1 .774 3.384 4.518 4.518 0 0 1-1.852 2.936l-6.165 4.379a4.543 4.543 0 0 1-2.67.835ZM241.182 43.526a7.174 7.174 0 0 1-3.223-13.592l8.835-4.408a5.298 5.298 0 0 1 7.087 2.495 5.312 5.312 0 0 1-2.495 7.078l-8.01 3.883a3.183 3.183 0 0 1-4.427-1.417 3.306 3.306 0 0 1-.185-2.588 3.306 3.306 0 0 1 1.738-1.927l8.738-4.204a.97.97 0 0 1 .845 1.748l-8.738 4.204a1.326 1.326 0 0 0-.766.794 1.333 1.333 0 0 0 .096 1.099 1.27 1.27 0 0 0 1.835.553l8.02-3.883a3.361 3.361 0 0 0 1.245-5.05 3.354 3.354 0 0 0-1.576-1.154 3.308 3.308 0 0 0-2.563.136l-8.786 4.398a5.245 5.245 0 0 0-2.34 7.02 5.254 5.254 0 0 0 7.029 2.34l5.457-2.73a.965.965 0 0 1 1.119.085.964.964 0 0 1 .35.693.968.968 0 0 1-.596.951l-5.456 2.738a7.153 7.153 0 0 1-3.233.738ZM28.64 325a.971.971 0 0 1-.418-1.845c72.883-34.699 195.892-36.621 292.494-4.563a.97.97 0 0 1 .434 1.556.958.958 0 0 1-.668.337.97.97 0 0 1-.378-.048c-96.174-31.913-218.572-30.039-291.047 4.466a.916.916 0 0 1-.418.097Z" fill="#1351AA"/><g opacity=".3" fill="#1351AA"><path opacity=".3" d="M93.396 158.855a.968.968 0 0 1-.65-.243 70.236 70.236 0 0 0-31.786-16.135.991.991 0 1 1 .408-1.942 72.054 72.054 0 0 1 32.62 16.505.968.968 0 0 1 .078 1.369.981.981 0 0 1-.67.446ZM59.766 160.03a.974.974 0 0 1-.97-.689 32.659 32.659 0 0 0-7.127-12.534.976.976 0 0 1-.161-1.074.971.971 0 0 1 .927-.554.973.973 0 0 1 .67.317 34.707 34.707 0 0 1 7.554 13.281.973.973 0 0 1-.971 1.253h.078ZM31.26 174.079a.845.845 0 0 1-.339-.068.968.968 0 0 1-.573-1.243 33.706 33.706 0 0 1 5.981-10.175.97.97 0 1 1 1.476 1.262 31.602 31.602 0 0 0-5.632 9.583.972.972 0 0 1-.912.641ZM27.911 156.069a.965.965 0 0 1-.388-.088.967.967 0 0 1-.505-1.271 33.551 33.551 0 0 1 30.767-19.845.97.97 0 1 1 0 1.942 31.506 31.506 0 0 0-28.98 18.679.966.966 0 0 1-.894.583ZM76.348 201.535a2.017 2.017 0 0 1-.748-.146.974.974 0 0 1-.582-.786 1.737 1.737 0 0 1 .505-1.437.977.977 0 0 1 .786-.263 1.535 1.535 0 0 1 1.709 1.127.97.97 0 0 1-.233.893 1.95 1.95 0 0 1-1.437.612ZM93.396 303.262a.967.967 0 0 1-.97-.825 233.92 233.92 0 0 0-6.894-30.097.969.969 0 0 1 .65-1.214c.123-.037.252-.05.38-.037a.97.97 0 0 1 .834.688 235.932 235.932 0 0 1 6.942 30.408.97.97 0 0 1-.806 1.106l-.136-.029ZM96.028 284.699a.967.967 0 0 1-.73-.181.991.991 0 0 1-.387-.644.984.984 0 0 1 .825-1.117l3.253-1.038a.958.958 0 0 1 .772.024.977.977 0 0 1 .51.581.97.97 0 0 1-.69 1.239l-3.272 1.088a1.077 1.077 0 0 1-.281.048ZM139.775 270.262a.97.97 0 0 1-.67-1.669 25.487 25.487 0 0 0 6.66-13.311c.398-2.214 2.34-21.301 2.33-27.33a.968.968 0 0 1 .971-.971.973.973 0 0 1 .971.971c0 6.097-1.942 25.437-2.359 27.679-.971 5.505-3.758 11.01-7.224 14.36a.97.97 0 0 1-.679.271ZM182.25 244.845c-9.184 0-20.446-1.612-21.155-3.883-.621-1.942.233-17.107.641-19.709a.97.97 0 0 1 1.464-.677.974.974 0 0 1 .458.978c-.485 3.058-1.087 16.777-.738 18.699 2.117 1.65 22.592 4.213 30.097 1.262 1.515-.602 2.301-1.34 2.33-2.194.117-2.524.301-5.825.486-9.097.184-3.272.369-6.534.485-9.049a.982.982 0 0 1 .315-.673.977.977 0 0 1 .7-.254.982.982 0 0 1 .673.315.977.977 0 0 1 .254.7 681.238 681.238 0 0 1-.476 9.068 927.397 927.397 0 0 0-.485 9.077c-.117 2.524-2.913 4.311-8.321 5.029a53.271 53.271 0 0 1-6.728.408ZM217.454 270.476a.98.98 0 0 1-.748-.35c-3.776-4.543-5.776-8.349-6.106-11.65a151.064 151.064 0 0 1-.282-27.184.976.976 0 0 1 1.049-.894.973.973 0 0 1 .893 1.049 149.087 149.087 0 0 0 .281 26.815c.282 2.845 2.195 6.398 5.67 10.583a.967.967 0 0 1-.126 1.369.971.971 0 0 1-.631.262ZM99.474 296.641a.969.969 0 0 1-.97-.68.966.966 0 0 1 .297-1.04.984.984 0 0 1 .333-.183l4.651-1.447a.977.977 0 0 1 .696.107.967.967 0 0 1 .395 1.251.97.97 0 0 1-.508.487l-4.651 1.457c-.079.026-.16.042-.243.048ZM129.765 127.36a.967.967 0 0 1-.893-.573.967.967 0 0 1 .165-1.048c13.592-15.194 23.961-15.66 32.301-16.039 7.097-.32 12.223-.553 17.039-9.544a.97.97 0 0 1 1.708.913c-5.33 9.971-11.505 10.252-18.66 10.573-7.98.359-17.912.806-30.932 15.398a.968.968 0 0 1-.728.32ZM128.804 110.438a1.017 1.017 0 0 1-.66-.253.961.961 0 0 1-.312-.679.984.984 0 0 1 .263-.699c12.301-13.36 19.272-11.806 25.427-10.418 4.457.971 8.301 1.855 13.893-3.65a.977.977 0 0 1 1.06-.207.978.978 0 0 1 .524.528.968.968 0 0 1-.003.743.962.962 0 0 1-.212.315c-6.349 6.252-11.097 5.194-15.689 4.164-5.912-1.33-12.029-2.698-23.573 9.845a.962.962 0 0 1-.718.311ZM123.134 191.418a1.189 1.189 0 0 1-.359-.068.972.972 0 0 1-.544-1.262 49.216 49.216 0 0 0 3.359-21.398.98.98 0 0 1 .541-.936.982.982 0 0 1 .744-.048.965.965 0 0 1 .559.491c.057.115.09.239.098.367a51.332 51.332 0 0 1-3.495 22.272.968.968 0 0 1-.903.582ZM137.794 191.127a.97.97 0 0 1-.971-.971c-.108-2.18.032-4.366.418-6.515a.975.975 0 0 1 .756-.792.998.998 0 0 1 .743.13.996.996 0 0 1 .434.618.993.993 0 0 1 .009.384 26.57 26.57 0 0 0-.389 6.078.963.963 0 0 1-.266.719.981.981 0 0 1-.705.301l-.029.048ZM217.6 192.039a.966.966 0 0 1-.505-.145.972.972 0 0 1-.33-1.33c.087-.146 8.932-14.903 7.98-26.845a.975.975 0 0 1 1.603-.819.978.978 0 0 1 .339.664c.971 12.573-7.883 27.378-8.262 28.009a.975.975 0 0 1-.825.466ZM235.202 181.535a.972.972 0 0 1-.971-.806l-1.661-9.34a.993.993 0 0 1 .165-.736.992.992 0 0 1 .636-.405.997.997 0 0 1 .737.164.979.979 0 0 1 .404.637l1.67 9.341a.967.967 0 0 1-.786 1.126l-.194.019ZM224.716 134.088a.97.97 0 0 1-.971-.971 53.704 53.704 0 0 0-2.864-17.602.966.966 0 0 1 .614-1.199.968.968 0 0 1 1.221.568 55.783 55.783 0 0 1 2.971 18.243.971.971 0 0 1-.971.961ZM142.163 159.651a.971.971 0 0 1-.446-1.825 11.181 11.181 0 0 1 7.058-1.116.963.963 0 0 1 .633.397.966.966 0 0 1-.233 1.352.969.969 0 0 1-.72.163 9.273 9.273 0 0 0-5.826.971.973.973 0 0 1-.466.058ZM205.493 151.001a.97.97 0 0 1-.369-1.874 15.815 15.815 0 0 1 7.059-1.146.984.984 0 0 1 .667.332.969.969 0 0 1 .236.707.974.974 0 0 1-1.039.903 13.781 13.781 0 0 0-6.185.971 1.06 1.06 0 0 1-.369.107Z"/><path opacity=".3" d="M73.833 281.952h-.252c-3.883-.224-7.893-5.437-12.748-16.427a.974.974 0 0 1 .496-1.282.964.964 0 0 1 .743-.018.973.973 0 0 1 .538.513c4.408 9.971 8.136 15.107 11.078 15.272 2.427.107 4.505-3.427 6.34-6.573 1.834-3.146 3.33-5.709 5.495-6.087 1.941-.34 4.475.738 7.437 2 3.62 1.543 7.766 3.291 9.708 1.65 1.942-1.641 2.243-6.67.612-14.912a.983.983 0 0 1 .424-1.014.997.997 0 0 1 .743-.145.974.974 0 0 1 .628.423.99.99 0 0 1 .147.357c1.825 9.252 1.417 14.563-1.292 16.796-2.912 2.379-7.611.388-11.747-1.369-2.447-1.039-4.98-2.116-6.33-1.874-1.35.243-2.806 2.845-4.156 5.156-2.058 3.534-4.398 7.534-7.864 7.534ZM272.337 273.981c-8.145 0-16.204-2.476-21.359-7.01-3.709-3.272-5.272-7.272-4.417-11.281a.992.992 0 1 1 1.941.407c-.903 4.224 1.563 7.447 3.796 9.418 6.272 5.524 19.796 8.738 31.554 4.66a.975.975 0 0 1 1.045.27.96.96 0 0 1 .245.703.96.96 0 0 1-.323.669.966.966 0 0 1-.327.193 37.076 37.076 0 0 1-12.155 1.971ZM257.056 301.379a.969.969 0 0 1-.389-.088.958.958 0 0 1-.513-.538.972.972 0 0 1 .018-.743c1.583-3.515 3.971-8.097 6.389-12.262a.971.971 0 0 1 1.233-.408l15.038 6.641a.948.948 0 0 1 .31.218.955.955 0 0 1 .268.693.96.96 0 0 1-.301.68.937.937 0 0 1-.32.203.964.964 0 0 1-.743-.018l-14.233-6.281c-2.233 3.883-4.398 8.087-5.825 11.33a.974.974 0 0 1-.932.573ZM262.959 142.166c-2.845 0-5.165-1.146-7.311-2.194-3.291-1.622-6.136-3.029-10.485-.233a.973.973 0 0 1-1.049-1.641c5.272-3.379 8.893-1.592 12.388.126 3.292 1.622 6.389 3.146 11.233.777a.98.98 0 0 1 .743-.046.966.966 0 0 1 .604 1.235.963.963 0 0 1-.492.558 12.683 12.683 0 0 1-5.631 1.418ZM261.571 155.428a.967.967 0 0 1-.787-.398 5.573 5.573 0 0 0-7.252-1.272.97.97 0 0 1-1.078-1.612 7.518 7.518 0 0 1 9.903 1.738.97.97 0 0 1-.786 1.544ZM288.318 150.923h-.097a19.496 19.496 0 0 1-4.233-.67c-.68-.155-1.36-.32-2.039-.437-1.573-.271-3.738-.339-5.165.845a.97.97 0 0 1-1.369-.126.975.975 0 0 1 .126-1.369c1.583-1.311 3.884-1.748 6.738-1.262.728.126 1.456.301 2.155.466a17.28 17.28 0 0 0 3.806.611 8.409 8.409 0 0 0 6.126-2.621.97.97 0 0 1 1.686.619.971.971 0 0 1-.259.701 10.403 10.403 0 0 1-7.475 3.243ZM299.338 163.089a.98.98 0 0 1-.796-.408 7.124 7.124 0 0 0-6.962-2.816.978.978 0 0 1-.739-.157.994.994 0 0 1-.406-1.02.974.974 0 0 1 .428-.622.987.987 0 0 1 .358-.143 8.969 8.969 0 0 1 8.903 3.612.967.967 0 0 1-.786 1.524v.03ZM313.881 160.409a.917.917 0 0 1-.515-.155.973.973 0 0 1-.301-1.34 7.96 7.96 0 0 0-1.641-10.088.965.965 0 0 1-.356-.654.991.991 0 0 1 .034-.379.987.987 0 0 1 .469-.579.963.963 0 0 1 .74-.079.98.98 0 0 1 .337.176 9.858 9.858 0 0 1 2.107 12.642.97.97 0 0 1-.874.456ZM315.104 189.214a.964.964 0 0 1-.864-.524c-1.282-2.466-.223-4.165.806-5.825 1.408-2.262 3-4.855.155-10.952a.97.97 0 0 1 .442-1.348.972.972 0 0 1 1.315.533c3.292 7.068 1.233 10.378-.262 12.796-1.019 1.631-1.466 2.476-.738 3.883a.97.97 0 0 1-.854 1.418v.019ZM197.328 262.864h-.049l-38.999-3.087a.973.973 0 0 1-.894-1.039.978.978 0 0 1 .339-.665.961.961 0 0 1 .71-.228l38.971 3.078a.972.972 0 1 1-.078 1.941Z"/></g></svg>
