<svg width="351" height="350" viewBox="0 0 351 350" fill="none" xmlns="http://www.w3.org/2000/svg"><path d="M262.384 283.404c-.125 4.877 1.047 12.999 4.48 16.505 1.507 1.559 3.872 2.574 5.871 1.727 2.564-1.047 3.14-4.71 1.905-7.201-1.235-2.491-3.726-4.081-6.102-5.547-2.375-1.465-4.856-3.024-6.154-5.484M285.221 165.309c17.875 6.049 37.059-20.68 43.37-16.745 9.042 5.599-16.662 29.492-43.37 16.745ZM321.045 182.421s10.969-.137 15.783.785c4.061.774 2.7 5.149-2.7 3.736a89.024 89.024 0 0 1-13.083-4.521M211.95 68.26c.262-5.4.68-11.24 4.186-15.395 7.933-9.492 20.723-3.558 4.574 7.682a94.764 94.764 0 0 0-8.718 7.713M85.241 84.964c-5.452-6.175-13.71-14.202-21.507-16.871a21.978 21.978 0 0 0-9.858-1.424 4.731 4.731 0 0 0-3.14 1.392c-1.225 1.507-.471 3.915 1.046 5.129 1.518 1.214 3.527 1.56 5.432 1.925a99.334 99.334 0 0 1 27.996 9.849M25.033 192.468c-22.67-2.188-18.578 10.236-10.194 6.625 3.726-1.601 6.698-4.574 10.194-6.625ZM71.678 293.326c-4.992 3.14-10.968 4.259-16.442 6.489-18.514 7.535-4.416 18.043 6.604 6.279 3.255-3.464 6.457-9.419 9.838-12.768Z" fill="#FC95BF"/><path d="M152.588 107.549c22.271 0 40.325-17.398 40.325-38.86 0-21.461-18.054-38.859-40.325-38.859-22.27 0-40.324 17.398-40.324 38.86 0 21.46 18.054 38.859 40.324 38.859Z" fill="#DCECFF"/><path d="M166.131 60.662a14.327 14.327 0 0 0-4.391-10.318 14.32 14.32 0 0 0-10.481-3.988 14.465 14.465 0 0 0-13.752 13.96 14.238 14.238 0 0 0 5.317 11.513 4.914 4.914 0 0 1 1.8 3.851v4.03a5.046 5.046 0 0 0 5.034 4.96h4.28a5.044 5.044 0 0 0 5.055-5.044V75.65a4.882 4.882 0 0 1 1.759-3.83 14.265 14.265 0 0 0 5.379-11.157Z" fill="#fff"/><path d="M145.189 76.968h13.031v4.458a3.372 3.372 0 0 1-3.329 3.36h-6.279a3.37 3.37 0 0 1-3.371-3.37v-4.448h-.052Z" fill="#92C4FF"/><path d="M277.068 151.568c24.473 0 44.312-18.781 44.312-41.947 0-23.167-19.839-41.947-44.312-41.947s-44.312 18.78-44.312 41.947c0 23.166 19.839 41.947 44.312 41.947ZM301.945 267.947c21.854 0 39.571-17.717 39.571-39.571 0-21.855-17.717-39.571-39.571-39.571s-39.571 17.716-39.571 39.571c0 21.854 17.717 39.571 39.571 39.571Z" fill="#DCECFF"/><path d="M321.139 230.49H310.83a4.237 4.237 0 0 0-4.238 4.238v10.309a4.238 4.238 0 0 0 4.238 4.239h10.309a4.24 4.24 0 0 0 4.239-4.239v-10.309a4.238 4.238 0 0 0-4.239-4.238Z" fill="#92C4FF"/><path d="M311.751 221.091h-10.308a4.24 4.24 0 0 0-4.239 4.239v10.309a4.238 4.238 0 0 0 4.239 4.238h10.308a4.238 4.238 0 0 0 4.239-4.238V225.33a4.24 4.24 0 0 0-4.239-4.239Z" fill="#92C4FF"/><path d="M301.108 211.693h-10.309a4.24 4.24 0 0 0-4.239 4.239v10.309a4.239 4.239 0 0 0 4.239 4.238h10.309a4.238 4.238 0 0 0 4.238-4.238v-10.309a4.238 4.238 0 0 0-4.238-4.239Z" fill="#92C4FF"/><path d="M46.644 171.275c21.877 0 39.613-16.789 39.613-37.499S68.52 96.277 46.644 96.277c-21.878 0-39.613 16.789-39.613 37.499s17.735 37.499 39.613 37.499Z" fill="#DCECFF"/><path d="M50.516 122.703H37.811a5.306 5.306 0 0 0-5.306 5.306v12.706a5.306 5.306 0 0 0 5.306 5.306h12.705a5.306 5.306 0 0 0 5.306-5.306v-12.706a5.306 5.306 0 0 0-5.306-5.306Z" fill="#92C4FF"/><path d="M90.893 246.785a39.857 39.857 0 0 1-24.597 36.839 39.855 39.855 0 0 1-15.257 3.035c-21.978 0-42.846-22.323-42.846-44.333 0-22.009 28.53-35.374 50.539-35.374 22.01 0 32.16 17.823 32.16 39.833Z" fill="#DCECFF"/><path d="M60.176 267.695c-16.295-1.433-33.177 4.187-33.177-6.488 1.487-15.584-4.374-31.722 6.772-31.722 16.306 1.423 33.187-4.186 33.187 6.478v25.244a6.646 6.646 0 0 1-6.782 6.488Z" fill="#92C4FF"/><path d="M131.008 101.049a25.203 25.203 0 0 1-9.074 3.266c-26.96 3.998-13.469 15.311-18.085 24.008-3.076 5.788-10.59 10.466-15.31 15.05-10.09 9.712-.116 17.949.083 18.42 5.233 12.412-26.897 17.572-5.013 42.982 8.372 9.702-5.233 13.836-4.553 25.819.565 9.765 10.194 14.935 11.91 24.563-3.36 6.479-11.45 23.538.733 34.443 3 2.617 6.692 4.311 10.633 4.877 31.659 4.856 64.333 9.817 96.023 4.626 84.772-13.877 34.035-37.907 41.402-56.201 5.348-13.302 45.704-16.421 26.28-49.189a8.439 8.439 0 0 1 .701-9.586c9.095-11.429-4.395-21.173-6.824-24.072-12.946-15.353 3.35-33.794-17.99-40.083-15.039-4.427-10.225-.901-15.887-11.816-7.085-13.7-30.947-12.894-45.202-6.51-8.676 3.956-16.452-20.22-49.827-.597Z" fill="#3884FF"/><path d="M96.534 314.069c20.576 11.01 108.844 16.745 137.101 2.041a94.882 94.882 0 0 0-24.929-33.846c-3.621-3.14-15.824-11.9-20.272-13.93-3.967-1.821-36.034-4.626-46.426-1.047-33.166 11.366-41.099 29.89-45.474 46.782Z" fill="#92C4FF"/><path d="M112.484 160.589c-10.068 38.462-8.593 65.516 33.312 78.985 0 0-6.426 25.777-3.789 27.692 19.781 14.412 44.155 4.877 46.154 1.382.712-1.235-9.011-31.963-2.229-33.888 25.955-7.4 25.505-24.134 36.63-21.036 18.839 5.232 28.938-20.681 14.234-28.258-5.788-2.962-9.514.408-15.259 3.443-1.193.628-4.323 5.725-7.253 6.573-3.234.921-5.871-1.507-7.19-.806-6.478-5.85-5.997-13.155-6.332-21.873-.335-8.718 3.14-19.195 1.329-27.735-21.36 12.214-28.257-3.464-41.256.314-45.149 13.187-32.632-44.835-48.351 15.207Z" fill="#DCECFF"/><path d="M157.11 211.589c-2.198-.984-3.203-4.731 0-4.919 6.363-.366 2.093-.974 7.86-3.642.219-.134.48-.183.733-.137 1.046.304.764 3.8-.608 5.778 9.556 7.117-11.031 9.681-8.017 2.92" fill="#FC95BF"/><path d="M161.495 216.54a8.38 8.38 0 0 1-3.841-.806 3.21 3.21 0 0 1-1.8-3.716 4.38 4.38 0 0 1-1.769-4.071 2.931 2.931 0 0 1 2.993-2.345c3.088-.188 3.234-.376 3.538-.764.46-.607 1.162-1.507 3.946-2.794a2.09 2.09 0 0 1 1.455-.199c.284.092.542.251.752.464.209.214.364.474.451.761a7.808 7.808 0 0 1-.732 5.316c2.92 2.502 2.375 4.48 1.737 5.474-1.12 1.8-4.03 2.68-6.73 2.68Zm3.81-12.56c-2.209 1.047-2.68 1.654-3.035 2.093-.817 1.047-1.424 1.361-5.066 1.57-.963.063-1.047.482-1.047.639a2.466 2.466 0 0 0 1.403 2.281 1.059 1.059 0 0 1 .553.581 1.043 1.043 0 0 1-.019.801c-.419.91-.252 1.465.565 1.905 2.093 1.141 6.803.45 7.829-1.162.669-1.047-.942-2.491-1.968-3.255a1.045 1.045 0 0 1-.23-1.434 6.623 6.623 0 0 0 1.067-3.967l-.052-.052Z" fill="#FC95BF"/><path d="M200.741 168.752c-12.36 9.974-15.876-19.414-35.772-17.32-1.611.167-43.37 9.084-45.735-9.943l2.093-9.293c1.465 0 2.878-.482 4.343-.566a22.52 22.52 0 0 0 12.532 14.316 22.503 22.503 0 0 0 9.556 1.91 22.503 22.503 0 0 0 9.467-2.306c12.663-6.28 10.465-3.328 18.158 1.046 9.953 5.694 25.358-3.548 27.211-6.572l-.492 9.419-1.361 19.309ZM146.623 237.01c5.338 1.601 11.01 1.737 16.578 1.601 5.567-.136 11.512-.628 16.41-3.433l2.271 8.373c-12.234 1.884-23.966 4.186-35.95 1.046l.691-7.587Z" fill="#92C4FF"/><path d="M159.736 239.124a62.684 62.684 0 0 1-21.287-3.694c-20.785-7.504-34.129-24.689-34.83-44.867-.607-17.352 11.722-45.61 15.51-53.857a1.045 1.045 0 0 1 .994-.608 1.051 1.051 0 0 1 .943.685 1.05 1.05 0 0 1-.032.802c-3.747 8.143-15.918 36.013-15.322 52.905.67 19.298 13.491 35.761 33.491 42.909a60.224 60.224 0 0 0 20.617 3.663c22.271 0 41.863-12.485 54.422-26.562a1.047 1.047 0 0 1 1.559 1.392c-11.135 12.559-24.605 21.141-38.932 24.929a66.943 66.943 0 0 1-17.133 2.303ZM228.967 213.483c-3.349 0-7.598-1.266-12.705-5.233a1.04 1.04 0 0 1-.397-.701 1.06 1.06 0 0 1 .913-1.171c.274-.036.552.039.771.208 6.709 5.233 12.695 6.217 17.321 2.93 5.515-3.914 7.326-12.757 5.474-18.252-.859-2.553-2.805-5.557-7.326-5.442-3.308.094-7.85.827-10.759 3.82a1.049 1.049 0 0 1-1.801-.709 1.047 1.047 0 0 1 .294-.746c2.7-2.773 6.918-4.312 12.203-4.458 4.469-.126 7.86 2.376 9.419 6.876 2.093 6.279.105 16.107-6.279 20.617a12.196 12.196 0 0 1-7.128 2.261ZM117.643 133.587c-5.986 0-9.419-2.679-11.083-4.72-3.925-4.699-4.186-12.244-.638-18.367 4.469-7.703 13.438-11.177 24.071-9.293a1.06 1.06 0 0 1 .863 1.229 1.06 1.06 0 0 1-1.229.864c-9.671-1.727-17.792 1.371-21.842 8.278-3.14 5.369-2.931 11.941.439 15.971 3.663 4.395 10.246 5.159 18.535 2.166a1.05 1.05 0 0 1 1.312.638 1.046 1.046 0 0 1-.6 1.33 28.884 28.884 0 0 1-9.828 1.904Z" fill="#1351AA"/><path d="M185.022 148.323a26.15 26.15 0 0 1-12.559-3.14l-1.047-.575a12.387 12.387 0 0 0-3.516-1.601c-2.355-.524-4.877.429-7.326 1.35l-.314.115c-5.484 2.093-13.669 4.563-21.455 2.543-6.907-1.79-13.606-8.425-12.8-16.421a1.05 1.05 0 0 1 1.141-.942 1.048 1.048 0 0 1 .942 1.152c-.67 6.876 5.233 12.621 11.251 14.191 7.211 1.863 14.976-.523 20.188-2.48l.314-.115c2.606-.984 5.547-2.094 8.509-1.434a14.182 14.182 0 0 1 4.113 1.831l.973.555a23.95 23.95 0 0 0 28.346-3.964 23.954 23.954 0 0 0 5.542-8.501 1.05 1.05 0 0 1 1.35-.607 1.046 1.046 0 0 1 .607 1.35 26.4 26.4 0 0 1-15.343 15.165 25.978 25.978 0 0 1-8.916 1.528ZM228.151 119.783h-.178a1.05 1.05 0 0 1-.858-1.203c.659-3.894.837-9.482-2.093-14.087-4.396-6.97-13.763-8.425-20.44-7.567-5.421.701-10.696 2.669-15.803 4.574-2.313.858-4.71 1.758-7.106 2.522-2.847.921-6.144 1.653-8.928.115a11.814 11.814 0 0 1-2.993-2.721 18.67 18.67 0 0 0-.973-1.047c-3.36-3.39-8.959-4.856-14.652-3.82s-10.539 4.04-14.652 6.855a1.045 1.045 0 0 1-1.492-1.442c.086-.116.195-.213.32-.285 4.301-2.94 9.513-6.101 15.468-7.19 6.342-1.15 12.664.534 16.494 4.417.366.366.712.754 1.047 1.151a9.982 9.982 0 0 0 2.417 2.24c2.093 1.151 4.846.513 7.326-.272 2.481-.785 4.72-1.643 7.012-2.491 5.233-1.947 10.613-3.956 16.264-4.689 7.326-.942 17.562.722 22.48 8.519 3.255 5.16 3.077 11.303 2.366 15.553a1.05 1.05 0 0 1-1.026.868ZM224.164 292.353a1.047 1.047 0 0 1 0-2.094c10.79-.136 16.368-4.27 19.152-7.713a16.173 16.173 0 0 0 3.149-6.116c.6-2.241.711-4.584.325-6.872-.627-3.139-2.375-6.091-4.06-8.958-2.407-4.092-4.898-8.373-4.354-13.208.775-6.97 7.18-11.23 12.821-14.987l1.643-1.047c6.74-4.563 11.512-9.67 14.223-15.185 3.244-6.646 3.359-14.234.293-19.812-.346-.628-.743-1.266-1.131-1.915-1.747-2.857-3.725-6.102-2.428-9.482a10.666 10.666 0 0 1 1.916-2.931c.272-.324.544-.649.795-.994a13.236 13.236 0 0 0 1.329-12.276 22.672 22.672 0 0 0-8.205-10.204l-1.34-.963c-3.506-2.501-7.472-5.327-7.723-9.869.005-1.721.335-3.426.973-5.024.199-.596.387-1.193.544-1.79a14.79 14.79 0 0 0-9.461-17.782 14.787 14.787 0 0 0-7.284-.606 1.07 1.07 0 0 1-.791-.184 1.061 1.061 0 0 1 .446-1.909 16.885 16.885 0 0 1 19.15 12.615 16.892 16.892 0 0 1-.061 8.316 30.534 30.534 0 0 1-.586 1.905 11.835 11.835 0 0 0-.869 4.26c.189 3.537 3.58 5.944 6.855 8.289l1.35.973a24.832 24.832 0 0 1 8.938 11.177 15.37 15.37 0 0 1-1.611 14.234c-.273.377-.576.732-.869 1.046a8.507 8.507 0 0 0-1.57 2.345c-.931 2.417.617 4.95 2.261 7.64.408.669.816 1.339 1.172 1.999 3.391 6.164 3.296 14.495-.241 21.737-2.857 5.85-7.881 11.23-14.935 16.002l-1.653 1.109c-5.516 3.674-11.23 7.473-11.9 13.47-.471 4.186 1.738 7.943 4.071 11.92 1.78 3.014 3.611 6.133 4.312 9.597a18.297 18.297 0 0 1-3.914 14.788c-3.056 3.8-9.147 8.373-20.743 8.499h.011ZM103.849 289.862h-.188c-8.195-1.497-13.679-4.584-16.305-9.189-3.883-6.813-.785-15.196 1.266-20.754.68-1.842 1.455-3.935 1.319-4.521a19.814 19.814 0 0 0-1.57-2.323c-4.511-6.175-16.473-22.575-3.318-40.21 5.233-7.053 2.637-9.126-1.716-12.558-3.936-3.14-8.823-6.96-8.457-15.699.325-7.682 6.688-13.532 11.795-18.242 2.198-2.02 1.413-3.684-.408-6.98-3.14-5.61-7.326-13.292 12.831-25.38a1.037 1.037 0 0 1 1.251-.033 1.042 1.042 0 0 1 .388 1.19 1.038 1.038 0 0 1-.592.633c-18.43 11.052-15.05 17.174-12.078 22.574 1.717 3.14 3.496 6.28 0 9.535-5.086 4.678-10.842 9.973-11.125 16.745-.324 7.661 3.914 11.01 7.661 13.961 4.406 3.485 8.582 6.782 2.093 15.468-12.234 16.4-1.329 31.335 3.328 37.677.815.93 1.466 1.992 1.926 3.14.272 1.193-.387 2.993-1.392 5.714-1.915 5.233-4.814 13.02-1.413 18.975 2.303 4.05 7.326 6.792 14.861 8.173a1.052 1.052 0 1 1-.188 2.093l.031.011ZM167.45 275.744a59.664 59.664 0 0 1-16.233-2.303c-2.752-.795-9.241-2.951-10.193-5.85a.94.94 0 0 1 0-.565 169.645 169.645 0 0 0 4.542-30.351 1.046 1.046 0 0 1 1.828-.637c.184.206.279.476.265.752a172.543 172.543 0 0 1-4.521 30.413c.596.942 3.213 2.69 8.686 4.271 11.356 3.275 26.521 3.526 35.207-3.14-1.727-7.808-7.054-27.933-7.117-28.132a1.053 1.053 0 0 1 2.031-.544c.052.219 5.693 21.528 7.326 28.864a1.048 1.048 0 0 1-.356 1.047c-5.505 4.374-13.417 6.175-21.465 6.175ZM179.151 177.366a1.044 1.044 0 0 1-1.046-.722c-1.57-4.783-3.967-7.64-6.406-7.661-2.438 0-4.877 2.836-6.499 7.598a1.045 1.045 0 0 1-1.317.613 1.046 1.046 0 0 1-.661-1.293c1.957-5.725 5.044-9.012 8.477-9.012 3.433 0 6.479 3.339 8.373 9.106a1.044 1.044 0 0 1-.67 1.319 1.243 1.243 0 0 1-.251.052ZM130.036 178.109a1.046 1.046 0 0 1-1.047-1.046c-.126-4.7-2.093-8.468-4.804-8.98-2.711-.513-5.348 2.271-7.536 7.326a1.047 1.047 0 0 1-1.926-.816c3.747-8.74 8.143-8.928 9.86-8.593 3.663.701 6.342 5.233 6.499 10.979a1.046 1.046 0 0 1-1.046 1.047v.083ZM150.882 199.668a1.027 1.027 0 0 1-.293 0c-6.279-1.811-13.343-3.872-17.498-8.435a1.047 1.047 0 0 1-.231-1.047c5.014-17.028 15.594-32.067 15.699-32.224a1.046 1.046 0 0 1 1.706 1.214c-.094.147-10.246 14.579-15.228 31.021 3.831 3.851 10.361 5.745 16.139 7.42a1.043 1.043 0 0 1 .711 1.298 1.041 1.041 0 0 1-1.005.753Z" fill="#1351AA"/><path d="M96.785 311.411a1.112 1.112 0 0 1-.534-.147 1.05 1.05 0 0 1-.356-1.444c11.513-18.933 23.151-32.821 45.663-43.496a1.047 1.047 0 0 1 1.228 1.65 1.048 1.048 0 0 1-.328.245c-22.041 10.465-33.491 24.071-44.773 42.689a1.042 1.042 0 0 1-.9.503ZM232.609 312.918c-.209 0-.414-.063-.588-.18a1.055 1.055 0 0 1-.385-.48c-7.033-17.624-29.775-35.751-43.684-43.003a1.044 1.044 0 0 1-.629-1.033 1.041 1.041 0 0 1 .765-.937 1.05 1.05 0 0 1 .827.117c14.202 7.4 37.436 25.966 44.668 44.082a1.043 1.043 0 0 1-.243 1.138 1.034 1.034 0 0 1-.731.296ZM155.33 212.865a10.913 10.913 0 0 1-4.971-.91 1.045 1.045 0 0 1 .27-1.888c.259-.076.537-.048.777.077 2.334 1.34 14.484 1.329 19.811-7.252a1.05 1.05 0 0 1 1.062-.48 1.055 1.055 0 0 1 .681.425 1.044 1.044 0 0 1 .037 1.164c-4.155 6.687-12.183 8.864-17.667 8.864ZM61.746 240.286H33.258a1.048 1.048 0 0 1-.74-1.787c.196-.196.462-.306.74-.306h28.488a1.047 1.047 0 1 1 0 2.093ZM61.746 249.684l-28.477-.105v-2.093l28.477.105a1.047 1.047 0 1 1 0 2.093ZM36.795 259.03c-1.13 0-2.323 0-3.579-.074a1.047 1.047 0 1 1 .084-2.093c3.642.147 6.709 0 9.67-.083 2.962-.084 6.112-.231 9.849-.074a1.051 1.051 0 0 1 1.004 1.089 1.048 1.048 0 0 1-1.088 1.004c-3.653-.136-6.72 0-9.681.084-1.989.063-4.03.147-6.259.147Z" fill="#1351AA"/><path d="M48.988 288.177c-3.182-.01-6.349-.44-9.419-1.277-16.243-4.427-30.1-19.822-32.936-36.703-2.27-13.512 2.837-25.286 14.36-33.093a52.456 52.456 0 0 1 45.065-6.279 1.043 1.043 0 0 1 .707 1.331 1.053 1.053 0 0 1-.538.617 1.054 1.054 0 0 1-.818.04 50.347 50.347 0 0 0-43.234 6.039c-10.822 7.326-15.604 18.367-13.48 31.02 2.71 16.107 15.929 30.843 31.397 35.029 14.045 3.768 27.933-1.538 39.08-14.987a1.045 1.045 0 0 1 1.601 1.34c-9.22 11.125-20.262 16.923-31.785 16.923ZM44.676 171.222a42.754 42.754 0 0 1-13.05-1.967c-13.376-4.406-22.104-15.312-24.553-30.707-2.355-14.673 1.842-26.959 11.763-34.599 11.282-8.666 28.52-10.184 42.91-3.768a37.846 37.846 0 0 1 22.92 32.527 1.05 1.05 0 1 1-2.093.157 35.835 35.835 0 0 0-21.685-30.779c-13.69-6.102-30.058-4.689-40.754 3.516-9.315 7.159-13.218 18.734-11 32.622 2.983 18.681 14.234 26.164 23.14 29.042 12.34 4.061 25.422 1.235 30.477-3.715a1.046 1.046 0 0 1 1.785.743 1.043 1.043 0 0 1-.31.743c-4.395 4.301-11.983 6.185-19.55 6.185Z" fill="#1351AA"/><path d="M43.42 138.998h-.115a1.039 1.039 0 0 1-.722-.418c-.492-.67-1.047-1.351-1.622-2.094a23.71 23.71 0 0 1-3.674-5.442 1.047 1.047 0 0 1 1.926-.816 22.538 22.538 0 0 0 3.37 4.94l.984 1.214c5.306-4.825 11.512-12.559 15.814-18.336a1.047 1.047 0 1 1 1.674 1.256c-4.636 6.185-11.334 14.557-16.944 19.435-.19.168-.436.261-.69.261ZM175.561 94.812a1.048 1.048 0 0 1-.979-1.411c.079-.212.224-.392.414-.515 12.464-7.839 18.137-18.493 15.981-29.995-2.596-13.919-16.547-26.75-32.444-29.827-15.898-3.077-30.476 3.862-40.168 19.037-11.313 17.708-2.94 35.584 3.831 40.817a1.045 1.045 0 0 1 .4.698 1.048 1.048 0 0 1-.212.777 1.043 1.043 0 0 1-.699.4 1.049 1.049 0 0 1-.776-.211c-7.504-5.788-16.484-24.563-4.302-43.611 10.173-15.94 25.599-23.213 42.324-19.969 16.965 3.297 31.313 16.547 34.107 31.502 2.324 12.402-3.694 23.82-16.923 32.15a1.043 1.043 0 0 1-.554.158ZM282.855 154.121a34.536 34.536 0 0 1-23.338-9.356 1.048 1.048 0 1 1 1.413-1.549c14.097 12.789 31.167 10.068 41.863 1.716 11.993-9.419 20.826-29.932 6.279-56.86-7.378-13.606-25.861-21.005-43.956-17.488-17.321 3.37-28.844 15.929-30.832 33.605a1.051 1.051 0 0 1-1.162.932 1.056 1.056 0 0 1-.931-1.162c2.093-18.64 14.244-31.879 32.506-35.427 18.975-3.683 38.41 4.114 46.207 18.546 15.164 28.079 5.798 49.597-6.835 59.497a34.227 34.227 0 0 1-21.214 7.546Z" fill="#1351AA"/><path d="M275.655 127.318a12.776 12.776 0 0 1-12.537-15.266 12.774 12.774 0 0 1 3.495-6.544l13.155-13.156a9.251 9.251 0 0 1 15.699 6.814 9.182 9.182 0 0 1-2.826 6.488l-12.057 11.722a5.237 5.237 0 0 1-7.692.094 5.397 5.397 0 0 1-1.194-6.111 5.42 5.42 0 0 1 1.288-1.78l13.103-12.737a1.06 1.06 0 0 1 .744-.299 1.048 1.048 0 0 1 .722 1.796l-13.124 12.726a3.33 3.33 0 0 0-1.124 2.449 3.336 3.336 0 0 0 1.05 2.481 3.15 3.15 0 0 0 2.389 1.023 3.136 3.136 0 0 0 2.342-1.128l12.077-11.743a7.166 7.166 0 0 0 2.379-5.07 7.16 7.16 0 0 0-12.311-5.228l-13.134 13.135a10.69 10.69 0 1 0 15.112 15.123l8.163-8.164a1.049 1.049 0 0 1 1.705 1.146 1.046 1.046 0 0 1-.229.34l-8.184 8.153a12.718 12.718 0 0 1-9.011 3.736ZM306.037 268.585a49.471 49.471 0 0 1-12.318-1.601c-16.159-4.187-31.638-16.965-29.943-33.239a1.056 1.056 0 0 1 .383-.705 1.057 1.057 0 0 1 .769-.227 1.056 1.056 0 0 1 .704.383 1.038 1.038 0 0 1 .227.768c-1.57 15.102 13.093 27.023 28.394 30.989 13.919 3.622 32.81 1.706 40.198-15.583 13.03-30.487-3.453-45.599-11.156-50.675-14.453-9.545-34.537-9.367-43.872.377a1.042 1.042 0 0 1-1.424-.023 1.045 1.045 0 0 1-.083-1.422c10.151-10.612 31.02-10.915 46.53-.68 16.944 11.177 21.403 31.083 11.931 53.239a28.934 28.934 0 0 1-17.959 16.494 39.004 39.004 0 0 1-12.381 1.905Z" fill="#1351AA"/><path d="M300.93 240.924a4.773 4.773 0 0 1-4.773-4.772v-11.335a4.772 4.772 0 0 1 4.773-4.772h11.334a4.773 4.773 0 0 1 4.773 4.772 1.047 1.047 0 0 1-2.094 0 2.68 2.68 0 0 0-2.679-2.679H300.93a2.67 2.67 0 0 0-1.895.785 2.681 2.681 0 0 0-.784 1.894v11.335a2.674 2.674 0 0 0 1.654 2.475 2.67 2.67 0 0 0 1.025.204 1.048 1.048 0 1 1 0 2.093Z" fill="#1351AA"/><path d="M290.286 231.536a4.77 4.77 0 0 1-4.772-4.772v-11.345a4.773 4.773 0 0 1 4.772-4.772h11.334a4.771 4.771 0 0 1 4.773 4.772 1.047 1.047 0 1 1-2.093 0 2.682 2.682 0 0 0-2.68-2.679h-11.334a2.68 2.68 0 0 0-2.679 2.679v11.345a2.676 2.676 0 0 0 2.679 2.679 1.047 1.047 0 1 1 0 2.093ZM321.662 250.322h-11.344a4.775 4.775 0 0 1-4.762-4.772v-11.335a4.77 4.77 0 0 1 4.762-4.772h11.344a4.773 4.773 0 0 1 4.773 4.772v11.335a4.77 4.77 0 0 1-4.773 4.772Zm-11.344-18.786a2.668 2.668 0 0 0-2.669 2.679v11.335a2.68 2.68 0 0 0 2.669 2.679h11.344a2.679 2.679 0 0 0 2.68-2.679v-11.335a2.68 2.68 0 0 0-2.68-2.679h-11.344Z" fill="#1351AA"/><path d="M321.663 250.323h-11.345a1.047 1.047 0 0 1 0-2.094h11.345c.711 0 1.392-.282 1.895-.784a2.682 2.682 0 0 0 .784-1.895 1.047 1.047 0 0 1 2.094 0 4.773 4.773 0 0 1-4.773 4.773ZM211.081 197.292a6.794 6.794 0 0 1-2.574-.491c-3.893-1.56-12.392-9.524-7.201-49.65a1.077 1.077 0 0 1 .399-.702 1.07 1.07 0 0 1 .779-.214 1.058 1.058 0 0 1 .916 1.178c-4.093 31.596.366 45.222 5.902 47.441 3.234 1.298 7.379-1.047 11.376-6.541a1.053 1.053 0 0 1 1.696 1.245c-3.715 5.003-7.703 7.734-11.293 7.734Z" fill="#1351AA"/><path d="M271.207 302.986a7.388 7.388 0 0 1-5.086-2.355c-3.737-3.851-4.909-12.433-4.783-17.248a1.043 1.043 0 0 1 1.484-.944c.213.098.387.265.494.474 1.183 2.26 3.621 3.767 5.777 5.086 2.763 1.706 5.16 3.328 6.478 5.965a7.323 7.323 0 0 1 .335 5.631 5.092 5.092 0 0 1-2.763 3.004 4.858 4.858 0 0 1-1.936.387Zm-7.692-16.431c.356 4.814 1.737 10.172 4.102 12.621 1.152 1.193 3.14 2.167 4.71 1.497a2.989 2.989 0 0 0 1.612-1.811 5.235 5.235 0 0 0-.241-3.956c-1.047-2.093-3.224-3.589-5.704-5.117a26.48 26.48 0 0 1-4.479-3.234ZM301.338 170.081a38.21 38.21 0 0 1-16.567-3.778 1.041 1.041 0 0 1-.524-.566 1.048 1.048 0 0 1 1.309-1.37c10.204 3.443 20.931-4.375 29.544-10.654 6.343-4.615 10.916-7.954 14.045-6.007 2.627 1.622 3.067 4.667 1.173 8.132-3.527 6.436-15.019 14.243-28.98 14.243Zm-7.902-3.024c16.411 3.673 31.23-5.233 35.05-12.266.942-1.727 1.633-4.061-.439-5.348-2.073-1.287-6.688 2.261-11.712 5.924-6.373 4.657-14.516 10.581-22.899 11.69ZM336.105 188.281a8.7 8.7 0 0 1-2.24-.303 89.662 89.662 0 0 1-13.239-4.584 1.052 1.052 0 0 1-.592-1.162 1.05 1.05 0 0 1 1.001-.837c.45 0 11.125-.126 15.991.806a3.734 3.734 0 0 1 3.14 2.281 2.607 2.607 0 0 1-.628 2.585 4.536 4.536 0 0 1-3.433 1.214Zm-9.513-4.762a89.459 89.459 0 0 0 7.797 2.439c1.936.502 3.139.136 3.569-.324a.488.488 0 0 0 .157-.513c-.084-.283-.534-.681-1.476-.858a74.096 74.096 0 0 0-10.047-.765v.021ZM211.95 69.317a1.046 1.046 0 0 1-1.047-1.046c.231-4.825.545-11.418 4.396-16.023 3.684-4.417 8.373-5.63 11.083-4.898a3.915 3.915 0 0 1 3.046 3.087c.534 3.067-2.365 6.98-8.163 11.02a95.019 95.019 0 0 0-8.572 7.515 1.05 1.05 0 0 1-.743.345Zm12.758-20.136c-2.229 0-5.306 1.36-7.808 4.354-2.647 3.14-3.411 7.326-3.746 12.109a72.275 72.275 0 0 1 6.917-5.955c5.819-4.05 7.588-7.326 7.326-8.938a1.887 1.887 0 0 0-1.517-1.434 4.374 4.374 0 0 0-1.172-.136ZM85.241 86.01c-.17.003-.34-.037-.492-.115a97.863 97.863 0 0 0-27.692-9.754h-.21a12.56 12.56 0 0 1-5.682-2.093 5.568 5.568 0 0 1-1.978-3.695 3.914 3.914 0 0 1 .827-2.95 5.536 5.536 0 0 1 3.778-1.77 22.626 22.626 0 0 1 10.34 1.466C72.159 69.85 80.5 77.962 86.11 84.273a1.047 1.047 0 0 1-.785 1.737h-.084ZM55.822 67.601a13.002 13.002 0 0 0-1.82.115 3.6 3.6 0 0 0-2.419 1.047 1.894 1.894 0 0 0-.366 1.413c.123.877.571 1.677 1.256 2.24 1.433.925 3.065 1.498 4.762 1.674h.21a99.949 99.949 0 0 1 23.14 7.44c-5.014-5.117-11.241-10.37-17.186-12.412a23.58 23.58 0 0 0-7.577-1.517ZM11.887 200.84a5.232 5.232 0 0 1-3.789-1.434 3.314 3.314 0 0 1-.607-3.872c1.685-3.443 8.279-4.961 17.646-4.061a1.05 1.05 0 0 1 .429 1.947 44.227 44.227 0 0 0-3.998 2.732 32.702 32.702 0 0 1-6.28 3.945 8.524 8.524 0 0 1-3.4.743Zm8.08-7.546c-6.583 0-9.817 1.581-10.592 3.14a1.266 1.266 0 0 0 .23 1.507c.775.806 2.565 1.183 4.825.209a30.632 30.632 0 0 0 5.903-3.704l1.538-1.131a24.244 24.244 0 0 0-1.904-.073v.052ZM51.406 312.426a8.367 8.367 0 0 1-3.056-.534 4.475 4.475 0 0 1-3.14-4.092c0-3.192 3.485-6.447 9.628-8.959 1.968-.795 4.009-1.454 5.987-2.093a44.24 44.24 0 0 0 10.34-4.301 1.046 1.046 0 0 1 1.298 1.632 48.32 48.32 0 0 0-5.15 6.615 56.774 56.774 0 0 1-4.667 6.122c-3.8 4.009-7.944 5.61-11.24 5.61Zm16.222-15.866c-2.03.848-4.114 1.517-6.165 2.177-2.051.659-3.945 1.277-5.84 2.093-6.154 2.501-8.372 5.233-8.32 6.991a2.486 2.486 0 0 0 1.81 2.166c2.711 1.047 7.61.084 11.963-4.563a54.304 54.304 0 0 0 4.48-5.892c.68-1.015 1.423-2.009 2.072-2.972Z" fill="#E44F89"/><path d="M49.752 147.067H38.031a6.581 6.581 0 0 1-6.573-6.583v-11.711a6.571 6.571 0 0 1 6.573-6.572h9.628a1.047 1.047 0 1 1 0 2.093h-9.628a4.48 4.48 0 0 0-4.48 4.479v11.711a4.488 4.488 0 0 0 4.48 4.49h11.721a4.49 4.49 0 0 0 4.48-4.49v-3.338a1.045 1.045 0 0 1 1.786-.74c.196.196.307.462.307.74v3.338a6.582 6.582 0 0 1-6.573 6.583ZM232.61 205.028a1.046 1.046 0 0 1-.837-.419l-5.883-7.861a1.045 1.045 0 0 1 .21-1.465 1.046 1.046 0 0 1 1.465.209l5.883 7.861a1.052 1.052 0 0 1 .063 1.161 1.048 1.048 0 0 1-.901.514Z" fill="#1351AA"/><path d="M224.164 204.19a1.042 1.042 0 0 1-.848-.44 1.049 1.049 0 0 1 .241-1.455 44.121 44.121 0 0 1 11.115-5.808 1.043 1.043 0 0 1 1.334.643 1.045 1.045 0 0 1-.643 1.335 41.976 41.976 0 0 0-10.582 5.515 1.048 1.048 0 0 1-.617.21Z" fill="#1351AA"/><path d="M30.35 299.888a17.427 17.427 0 0 1-8.08-1.967 1.057 1.057 0 0 1-.532-.616 1.043 1.043 0 0 1 .697-1.325 1.047 1.047 0 0 1 .808.088 15.405 15.405 0 0 0 11.157 1.183 1.039 1.039 0 0 1 1.104.367 1.054 1.054 0 0 1 .212.773 1.053 1.053 0 0 1-.762.88c-1.5.414-3.049.622-4.605.617ZM10.181 215.053c-.2 0-.396-.058-.565-.167a1.038 1.038 0 0 1-.482-.673 1.048 1.048 0 0 1 .158-.813 9.577 9.577 0 0 1 5.516-4.051 1.046 1.046 0 0 1 1.106.375 1.059 1.059 0 0 1 .208.777 1.056 1.056 0 0 1-.77.879 7.322 7.322 0 0 0-4.292 3.14 1.043 1.043 0 0 1-.879.533ZM2.98 158.612a1.044 1.044 0 0 1-.973-.649 26.95 26.95 0 0 1-1.946-12.015 1.047 1.047 0 0 1 1.11-.974 1.047 1.047 0 0 1 .973 1.11 25.115 25.115 0 0 0 1.8 11.083 1.053 1.053 0 0 1-.225 1.144 1.042 1.042 0 0 1-.34.227 1.104 1.104 0 0 1-.398.074ZM98.198 78.444a1.046 1.046 0 0 1-.92-.544 22.44 22.44 0 0 1-2.607-12.465 1.05 1.05 0 0 1 2.093.177c-.318 3.91.504 7.83 2.366 11.283a1.047 1.047 0 0 1-.921 1.55h-.01ZM219.778 82.306a1.045 1.045 0 0 1-1.025-1.233c.036-.202.131-.388.272-.536a44.923 44.923 0 0 1 10.602-8.059 1.055 1.055 0 0 1 1.047 1.832 43.116 43.116 0 0 0-10.111 7.682 1.04 1.04 0 0 1-.785.314ZM284.938 182.275a1.048 1.048 0 0 1-.167-2.083l8.101-1.215a1.064 1.064 0 0 1 1.064.502 1.064 1.064 0 0 1-.055 1.174 1.069 1.069 0 0 1-.695.418l-8.101 1.225-.147-.021ZM276.054 275.075a.972.972 0 0 1-.241 0 16.077 16.077 0 0 1-9.42-6.49 1.041 1.041 0 0 1-.022-1.171 1.03 1.03 0 0 1 .287-.294 1.033 1.033 0 0 1 .79-.165 1.061 1.061 0 0 1 .672.447 13.899 13.899 0 0 0 8.175 5.653 1.055 1.055 0 0 1 .535 1.872 1.057 1.057 0 0 1-.776.221v-.073ZM240.271 308.398a1.05 1.05 0 0 1-.974-.659l-3.025-7.652a1.05 1.05 0 0 1 .608-1.314 1.042 1.042 0 0 1 1.339.55l3.025 7.651a1.05 1.05 0 0 1-.586 1.351 1.068 1.068 0 0 1-.387.073ZM342.646 252.27a.988.988 0 0 1-.596-.189 1.045 1.045 0 0 1-.252-1.455 39.445 39.445 0 0 0 6.081-13.606 1.081 1.081 0 0 1 .477-.669 1.07 1.07 0 0 1 1.193.035 1.07 1.07 0 0 1 .436.697c.024.139.019.281-.012.419a41.638 41.638 0 0 1-6.416 14.286 1.052 1.052 0 0 1-.911.482ZM178.963 34.174a1.045 1.045 0 0 1-.89-.481 14.799 14.799 0 0 0-9.817-6.584 1.063 1.063 0 1 1 .366-2.093 16.924 16.924 0 0 1 11.241 7.536 1.052 1.052 0 0 1-.036 1.164 1.058 1.058 0 0 1-.299.28 1.047 1.047 0 0 1-.565.178Z" fill="#E44F89"/><path d="M158.031 77.836h-12.465a1.045 1.045 0 0 1-1.047-1.046 7.614 7.614 0 0 0-2.616-5.442 14.727 14.727 0 0 1-.309-21.545 14.725 14.725 0 0 1 7.017-3.751 14.886 14.886 0 0 1 12.559 2.94 14.707 14.707 0 0 1 5.465 11.009c.064 2.12-.332 4.229-1.16 6.182a14.702 14.702 0 0 1-3.635 5.133 7.671 7.671 0 0 0-2.763 5.474 1.047 1.047 0 0 1-1.046 1.046Zm-11.534-2.093h10.56a10.166 10.166 0 0 1 3.276-5.976 12.469 12.469 0 0 0 4.113-9.293 12.63 12.63 0 0 0-4.699-9.848 12.763 12.763 0 0 0-10.759-2.523 12.618 12.618 0 0 0-9.475 9.103 12.62 12.62 0 0 0 3.75 12.593 10 10 0 0 1 3.255 5.944h-.021Z" fill="#1351AA"/><path d="M155.572 85.34h-7.505a3.55 3.55 0 0 1-3.548-3.547V76.79a1.048 1.048 0 0 1 1.787-.74c.196.196.307.462.307.74v5.003a1.454 1.454 0 0 0 1.454 1.455h7.505a1.453 1.453 0 0 0 1.413-1.455V76.79a1.047 1.047 0 1 1 2.093 0v5.003a3.55 3.55 0 0 1-3.506 3.548Z" fill="#1351AA"/><path d="M151.814 77.136a1.045 1.045 0 0 1-1.047-1.047V65.477a1.048 1.048 0 0 1 1.787-.74c.196.196.307.462.307.74v10.612a1.048 1.048 0 0 1-1.047 1.047Z" fill="#1351AA"/><path d="M151.752 66.524a3.548 3.548 0 1 1 .02-7.096 3.548 3.548 0 0 1-.02 7.096Zm0-5.003a1.455 1.455 0 1 0 .02 2.91 1.455 1.455 0 0 0-.02-2.91Z" fill="#1351AA"/><g opacity=".3" fill="#1351AA"><path opacity=".3" d="M217.434 254.027a1.038 1.038 0 0 1-.931-.555 1.043 1.043 0 0 1 .429-1.412c2.836-1.539 4.395-3.14 4.657-4.637.366-2.177-1.863-4.594-4.019-6.928-2.47-2.69-5.034-5.474-4.406-8.582.492-2.397 2.711-4.417 6.991-6.363a1.05 1.05 0 0 1 1.387.518 1.05 1.05 0 0 1-.518 1.387c-3.517 1.601-5.474 3.244-5.809 4.866-.408 2.093 1.78 4.448 3.904 6.751 2.491 2.71 5.065 5.505 4.532 8.697-.367 2.239-2.24 4.249-5.725 6.133-.151.081-.32.124-.492.125ZM234.169 169.548a1.049 1.049 0 0 1-.743-.314 1.05 1.05 0 0 1 0-1.486 8.5 8.5 0 0 0 .502-11.031 18.096 18.096 0 0 0-3.14-2.774c-3.694-2.731-7.504-5.557-3.589-16.745a1.046 1.046 0 0 1 1.932-.11c.121.251.137.539.046.801-3.412 9.785-.649 11.837 2.857 14.422a20.192 20.192 0 0 1 3.537 3.139 10.539 10.539 0 0 1-.638 13.878c-.216.171-.491.25-.764.22ZM204.76 267.477a1.046 1.046 0 0 1-.931-.566 18.304 18.304 0 0 1 0-16.599 1.053 1.053 0 0 1 .615-.531 1.046 1.046 0 0 1 1.237 1.504 16.167 16.167 0 0 0 0 14.653 1.041 1.041 0 0 1 .069.8 1.049 1.049 0 0 1-.519.613.96.96 0 0 1-.471.126ZM226.058 279.804a1.048 1.048 0 0 1-1.047-.869 8.873 8.873 0 0 1 1.895-6.488c.491-.722 1.046-1.403 1.569-2.093a24.671 24.671 0 0 0 2.094-2.795 11.316 11.316 0 0 0 1.329-7.703 1.054 1.054 0 0 1 .169-.796 1.082 1.082 0 0 1 .684-.444 1.074 1.074 0 0 1 .796.17 1.051 1.051 0 0 1 .444.683 13.413 13.413 0 0 1-1.654 9.189 25.56 25.56 0 0 1-2.208 3.046c-.534.659-1.047 1.276-1.486 1.936a6.867 6.867 0 0 0-1.539 4.95 1.047 1.047 0 0 1-.858 1.204l-.188.01ZM216.639 178.642a1.047 1.047 0 0 1-.869-.46c-2.093-3.14-2.03-7.096-1.716-10.215.063-.533.115-1.046.188-1.611a21.805 21.805 0 0 0 0-7.818 1.048 1.048 0 0 1 2.03-.513 23.562 23.562 0 0 1 0 8.571c-.062.534-.125 1.047-.177 1.581-.283 2.773-.388 6.279 1.36 8.822a1.046 1.046 0 0 1-.272 1.455c-.16.112-.349.178-.544.188ZM175.822 123.226c-.219 0-.433-.069-.612-.197a1.055 1.055 0 0 1-.381-.518 1.049 1.049 0 0 1 .365-1.168 21.888 21.888 0 0 1 11.565-4.312c1.047-.063 2.03-.063 3.004-.063 2.036.131 4.08-.096 6.038-.67 2.659-.963 4.658-3.14 6.814-5.714a1.03 1.03 0 0 1 .298-.348 1.03 1.03 0 0 1 .419-.187 1.04 1.04 0 0 1 1.152.575 1.05 1.05 0 0 1-.279 1.257c-2.26 2.701-4.563 5.233-7.713 6.343a19.474 19.474 0 0 1-6.74.795c-.942 0-1.925 0-2.857.063a19.735 19.735 0 0 0-10.466 3.893c-.17.147-.383.235-.607.251ZM141.118 122.839a1.04 1.04 0 0 1-.935-.571 1.052 1.052 0 0 1 .087-1.093 19.249 19.249 0 0 1 13.836-7.65c.764-.063 1.549-.074 2.344-.095 2.7-.073 5.233-.125 6.887-1.747a1.046 1.046 0 1 1 1.475 1.486c-2.218 2.208-5.463 2.281-8.309 2.355-.764 0-1.518 0-2.24.083a17.172 17.172 0 0 0-12.308 6.814 1.047 1.047 0 0 1-.837.418ZM95.404 175.189a1.053 1.053 0 0 1-.524-.136 1.047 1.047 0 0 1-.376-1.424c1.182-2.093.784-4.552.366-7.221a23.941 23.941 0 0 1-.44-4.971 11.93 11.93 0 0 1 7.086-10.204 1.047 1.047 0 0 1 .816 1.925 9.803 9.803 0 0 0-5.85 8.373c-.018 1.524.12 3.046.408 4.542.46 2.91.942 5.913-.618 8.603a1.048 1.048 0 0 1-.868.513ZM105.869 228.449a1.045 1.045 0 0 1-1.046-.838 15.421 15.421 0 0 1-.199-3.139c0-1.738 0-3.245-.931-4.187a6.097 6.097 0 0 0-2.272-1.193 7.404 7.404 0 0 1-3.14-1.842 6.53 6.53 0 0 1-1.161-2.093 22.288 22.288 0 0 1-1.235-10.465 1.055 1.055 0 0 1 1.875-.526c.173.22.251.499.218.777a20.176 20.176 0 0 0 1.12 9.419 4.65 4.65 0 0 0 .775 1.465 5.55 5.55 0 0 0 2.323 1.266 7.753 7.753 0 0 1 3.035 1.706c1.549 1.581 1.538 3.758 1.528 5.683-.041.921.012 1.843.157 2.753a1.057 1.057 0 0 1-.152.786 1.05 1.05 0 0 1-.664.449l-.231-.021ZM122.929 262.808a1.049 1.049 0 0 1-.806-1.717c2.197-2.647 1.433-6.771.785-8.99a53.205 53.205 0 0 0-.9-2.752 24.104 24.104 0 0 1-1.727-7.588 1.048 1.048 0 1 1 2.093 0c.16 2.381.704 4.721 1.612 6.928.324.921.648 1.884.931 2.847 1.329 4.521.9 8.373-1.183 10.916a1.054 1.054 0 0 1-.805.356ZM105.252 278.205a1.051 1.051 0 0 1-1.027-.877 1.046 1.046 0 0 1 .179-.777 20.396 20.396 0 0 0 3.569-8.699 1.045 1.045 0 0 1 .795-.854 1.048 1.048 0 0 1 1.278 1.189 22.548 22.548 0 0 1-3.936 9.578 1.055 1.055 0 0 1-.858.44ZM244.394 229.758a1.05 1.05 0 0 1-.965-.625 1.048 1.048 0 0 1 .19-1.133c3.595-4 5.628-9.161 5.725-14.538a1.047 1.047 0 0 1 2.094 0 24.506 24.506 0 0 1-6.28 15.93 1.052 1.052 0 0 1-.764.366ZM100.469 252.772a1.046 1.046 0 0 1-.837-1.674 10.049 10.049 0 0 0-1.047-12.696 1.05 1.05 0 1 1 1.465-1.507 12.063 12.063 0 0 1 1.215 15.458 1.05 1.05 0 0 1-.796.419ZM254.116 189.108h-.062a1.046 1.046 0 0 1-.984-1.109 17.623 17.623 0 0 0-1.235-6.384c-.178-.555-.356-1.11-.523-1.664-1.162-3.904-1.047-6.929.293-9.231a1.049 1.049 0 0 1 1.888.27c.075.259.047.537-.078.776-1.046 1.78-1.046 4.26-.094 7.578.157.533.335 1.046.502 1.622a19.435 19.435 0 0 1 1.34 7.158 1.044 1.044 0 0 1-1.047.984ZM173.604 289.726c-4.647 0-8.111-3.37-11.513-6.667l-1.674-1.633a3.281 3.281 0 0 0-1.79-1.046 6.156 6.156 0 0 0-2.574 1.297 63.516 63.516 0 0 1-7.054 4.061c-4.239 2.093-7.504 2.491-9.974 1.225-3.684-1.905-5.233-7.201-6.478-15.134a1.061 1.061 0 0 1 .884-1.209 1.057 1.057 0 0 1 1.209.885c1.14 7.075 2.48 12.098 5.379 13.605 1.842.942 4.479.544 8.08-1.235a61.982 61.982 0 0 0 6.844-3.935c1.601-1.046 2.554-1.674 3.768-1.643a4.987 4.987 0 0 1 3.14 1.633l1.706 1.643c5.295 5.149 9.471 9.21 17.865 2.731a28.709 28.709 0 0 0 10.099-14.934 1.05 1.05 0 0 1 2.02.565 30.875 30.875 0 0 1-10.79 16.002c-3.58 2.731-6.552 3.789-9.147 3.789Z"/><path opacity=".3" d="M153.059 324.974h-.073a1.045 1.045 0 0 1-.973-1.109 420.808 420.808 0 0 1 5.316-44.218c.048-.277.203-.525.433-.688a1.06 1.06 0 0 1 1.661 1.044 419.878 419.878 0 0 0-5.286 43.956 1.047 1.047 0 0 1-1.078 1.015ZM200.574 323.509a1.046 1.046 0 0 1-1.047-1.047c.119-4.653-.055-9.309-.523-13.94-7.577.837-15.27 1.35-22.889 1.528-.083 1.172-.23 2.501-.366 3.789-.178 1.622-.366 3.307-.419 4.636a1.043 1.043 0 0 1-1.046.994 1.046 1.046 0 0 1-1.047-1.046c.063-1.392.251-3.14.429-4.773.178-1.632.356-3.307.409-4.625a1.048 1.048 0 0 1 1.046-1.047 260.208 260.208 0 0 0 24.731-1.654 1.046 1.046 0 0 1 1.161.942c.539 5.075.748 10.179.628 15.28a1.042 1.042 0 0 1-1.067.963Z"/></g></svg>
