<svg width="73" height="73" viewBox="0 0 73 73" fill="none" xmlns="http://www.w3.org/2000/svg"><path d="M71.219 9h-54.52v38.18h54.52V9Z" fill="#DCECFF"/><path opacity=".5" d="M10.349 28.41v18.77h16.68V28.41h.19a3.799 3.799 0 1 0 0-7.59H9.159a3.8 3.8 0 1 0 0 7.59h1.19Z" fill="#92C4FF"/><path d="M22.889 40.46c-10.07 5.97-11.17-1.79-16.67-.57v13.3a8.34 8.34 0 0 0 16.68 0l-.01-12.73Z" fill="#92C4FF"/><path d="M22.889 39.67V27.24h-17.4v12.43c6.21 0 4.38 2.07 8.35 2.2 2.71.13 7.17.02 9.05-2.2Z" fill="#fff"/><path d="M23.079 19.65H5.019c-2.099 0-3.8 1.7-3.8 3.795a3.798 3.798 0 0 0 3.8 3.795h18.06c2.099 0 3.8-1.7 3.8-3.795a3.798 3.798 0 0 0-3.8-3.795Z" fill="#fff"/><path d="M14.049 63.39a9.85 9.85 0 0 1-9.83-9.84V27.24a1 1 0 0 1 1-1h17.67a1 1 0 0 1 1 1v26.31a9.85 9.85 0 0 1-9.84 9.84Zm-7.83-35.15v25.31a7.84 7.84 0 0 0 15.68 0V28.24H6.219Z" fill="#1351AA"/><path d="M23.079 28.24H5.019a4.8 4.8 0 1 1 0-9.59h18.06a4.8 4.8 0 1 1 0 9.59Zm-18.06-7.59a2.801 2.801 0 1 0 0 5.59h18.06a2.8 2.8 0 1 0 0-5.59H5.019Z" fill="#1351AA"/><path d="M71.219 48.18h-43.91a1 1 0 0 1 0-2h42.91V10h-52.52v5.19a1 1 0 0 1-2 0V9a1 1 0 0 1 1-1h54.52a1 1 0 0 1 1 1v38.18a1 1 0 0 1-1 1Z" fill="#1351AA"/><path d="M39.609 39.54a1 1 0 0 1-.93-.63l-3.7-9.24h-4.25a1 1 0 1 1 0-2h4.93a1 1 0 0 1 .93.63l2.7 6.7 3.29-16.4a1 1 0 0 1 1-.8h18.73a1 1 0 0 1 0 2h-17.93l-3.79 18.94a1 1 0 0 1-.89.8h-.09Z" fill="#1351AA"/><path d="M57.379 35.59a.998.998 0 0 1-.71-.29l-9.87-9.87a.997.997 0 0 1-.219-1.095.998.998 0 0 1 .219-.325 1.003 1.003 0 0 1 1.42-.01l9.87 9.87a1 1 0 0 1-.7 1.71l-.01.01Z" fill="#1351AA"/><path d="M47.509 35.59a1 1 0 0 1-.71-1.71l9.87-9.88a1 1 0 1 1 1.41 1.42l-9.86 9.88a1 1 0 0 1-.71.29ZM15.439 43.66a10.29 10.29 0 0 1-5.35-1.74c-1.49-.85-2.67-1.52-4.38-1.14a1 1 0 0 1-1.2-.78 1 1 0 0 1 .76-1.19c2.47-.55 4.16.42 5.81 1.35 2.48 1.41 4.82 2.75 10.58-.66a1 1 0 0 1 1 1.72c-3.02 1.78-5.35 2.44-7.22 2.44ZM16.7 54.4a1.48 1.48 0 0 1-1.06-.4 1.52 1.52 0 0 1-.42-1.1 1.5 1.5 0 0 1 .44-1.06 1.55 1.55 0 0 1 2.12 0 1.5 1.5 0 0 1-1.06 2.56h-.02ZM11.699 48.9a1 1 0 1 1 .042-2 1.001 1.001 0 0 1 .387 1.904 1 1 0 0 1-.43.096ZM16.699 34.88a1.07 1.07 0 0 1-.39-.07 1 1 0 0 1-.32-.22 1 1 0 0 1 0-1.41.87.87 0 0 1 .32-.22 1.16 1.16 0 0 1 .58-.06l.19.06.17.09c.056.035.107.08.15.13a1 1 0 0 1 .3.7 1.001 1.001 0 0 1-.3.71.44.44 0 0 1-.15.12.993.993 0 0 1-.17.1l-.19.05a.618.618 0 0 1-.19.02Z" fill="#1351AA"/></svg>
